G04 #@! TF.GenerationSoftware,KiCad,Pcbnew,(5.0.0)*
G04 #@! TF.CreationDate,2018-09-05T15:10:51-04:00*
G04 #@! TF.ProjectId,MDAS_Controller_V2,4D4441535F436F6E74726F6C6C65725F,rev?*
G04 #@! TF.SameCoordinates,Original*
G04 #@! TF.FileFunction,Copper,L4,Bot,Signal*
G04 #@! TF.FilePolarity,Positive*
%FSLAX46Y46*%
G04 Gerber Fmt 4.6, Leading zero omitted, Abs format (unit mm)*
G04 Created by KiCad (PCBNEW (5.0.0)) date 09/05/18 15:10:51*
%MOMM*%
%LPD*%
G01*
G04 APERTURE LIST*
G04 #@! TA.AperFunction,ComponentPad*
%ADD10O,2.400000X2.400000*%
G04 #@! TD*
G04 #@! TA.AperFunction,ComponentPad*
%ADD11R,2.400000X2.400000*%
G04 #@! TD*
G04 #@! TA.AperFunction,ComponentPad*
%ADD12C,4.000000*%
G04 #@! TD*
G04 #@! TA.AperFunction,ComponentPad*
%ADD13C,1.600000*%
G04 #@! TD*
G04 #@! TA.AperFunction,ComponentPad*
%ADD14R,1.600000X1.600000*%
G04 #@! TD*
G04 #@! TA.AperFunction,ComponentPad*
%ADD15O,1.700000X1.700000*%
G04 #@! TD*
G04 #@! TA.AperFunction,ComponentPad*
%ADD16R,1.700000X1.700000*%
G04 #@! TD*
G04 #@! TA.AperFunction,ComponentPad*
%ADD17C,2.000000*%
G04 #@! TD*
G04 #@! TA.AperFunction,ComponentPad*
%ADD18O,1.600000X1.600000*%
G04 #@! TD*
G04 #@! TA.AperFunction,ComponentPad*
%ADD19O,2.500000X1.500000*%
G04 #@! TD*
G04 #@! TA.AperFunction,ComponentPad*
%ADD20R,2.500000X1.500000*%
G04 #@! TD*
G04 #@! TA.AperFunction,ComponentPad*
%ADD21R,1.800000X1.070000*%
G04 #@! TD*
G04 #@! TA.AperFunction,ComponentPad*
%ADD22O,1.800000X1.070000*%
G04 #@! TD*
G04 #@! TA.AperFunction,ComponentPad*
%ADD23C,6.400000*%
G04 #@! TD*
G04 #@! TA.AperFunction,ViaPad*
%ADD24C,0.508000*%
G04 #@! TD*
G04 #@! TA.AperFunction,Conductor*
%ADD25C,0.203200*%
G04 #@! TD*
G04 #@! TA.AperFunction,Conductor*
%ADD26C,0.635000*%
G04 #@! TD*
G04 APERTURE END LIST*
D10*
G04 #@! TO.P,D2,2*
G04 #@! TO.N,GND*
X154305000Y-56515000D03*
D11*
G04 #@! TO.P,D2,1*
G04 #@! TO.N,+12V*
X144145000Y-56515000D03*
G04 #@! TD*
D12*
G04 #@! TO.P,J3,0*
G04 #@! TO.N,N/C*
X164978200Y-127251600D03*
X131678200Y-127251600D03*
D13*
G04 #@! TO.P,J3,15*
G04 #@! TO.N,GPI2*
X156638200Y-128671600D03*
G04 #@! TO.P,J3,14*
G04 #@! TO.N,T5*
X153868200Y-128671600D03*
G04 #@! TO.P,J3,13*
G04 #@! TO.N,SW2*
X151098200Y-128671600D03*
G04 #@! TO.P,J3,12*
G04 #@! TO.N,AI2H*
X148328200Y-128671600D03*
G04 #@! TO.P,J3,11*
G04 #@! TO.N,AI4H*
X145558200Y-128671600D03*
G04 #@! TO.P,J3,10*
G04 #@! TO.N,+5V*
X142788200Y-128671600D03*
G04 #@! TO.P,J3,9*
G04 #@! TO.N,GND*
X140018200Y-128671600D03*
G04 #@! TO.P,J3,8*
G04 #@! TO.N,GPI1*
X158023200Y-125831600D03*
G04 #@! TO.P,J3,7*
G04 #@! TO.N,T2*
X155253200Y-125831600D03*
G04 #@! TO.P,J3,6*
G04 #@! TO.N,SW1*
X152483200Y-125831600D03*
G04 #@! TO.P,J3,5*
G04 #@! TO.N,AI1H*
X149713200Y-125831600D03*
G04 #@! TO.P,J3,4*
G04 #@! TO.N,AI3H*
X146943200Y-125831600D03*
G04 #@! TO.P,J3,3*
G04 #@! TO.N,+3V3*
X144173200Y-125831600D03*
G04 #@! TO.P,J3,2*
G04 #@! TO.N,+12V*
X141403200Y-125831600D03*
D14*
G04 #@! TO.P,J3,1*
G04 #@! TO.N,GND*
X138633200Y-125831600D03*
G04 #@! TD*
D15*
G04 #@! TO.P,JTAG,10*
G04 #@! TO.N,GND*
X173355000Y-109855000D03*
G04 #@! TO.P,JTAG,9*
X170815000Y-109855000D03*
G04 #@! TO.P,JTAG,8*
G04 #@! TO.N,TXD*
X173355000Y-107315000D03*
G04 #@! TO.P,JTAG,7*
G04 #@! TO.N,+3V3*
X170815000Y-107315000D03*
G04 #@! TO.P,JTAG,6*
G04 #@! TO.N,RXD*
X173355000Y-104775000D03*
G04 #@! TO.P,JTAG,5*
G04 #@! TO.N,RST*
X170815000Y-104775000D03*
G04 #@! TO.P,JTAG,4*
G04 #@! TO.N,TDI*
X173355000Y-102235000D03*
G04 #@! TO.P,JTAG,3*
G04 #@! TO.N,TDO*
X170815000Y-102235000D03*
G04 #@! TO.P,JTAG,2*
G04 #@! TO.N,TMS*
X173355000Y-99695000D03*
D16*
G04 #@! TO.P,JTAG,1*
G04 #@! TO.N,TCK*
X170815000Y-99695000D03*
G04 #@! TD*
D17*
G04 #@! TO.P,AI4B,1*
G04 #@! TO.N,AI4B*
X141478000Y-78486000D03*
G04 #@! TD*
D18*
G04 #@! TO.P,R16,2*
G04 #@! TO.N,CAN0L*
X168275000Y-54610000D03*
D13*
G04 #@! TO.P,R16,1*
G04 #@! TO.N,Net-(JP2-Pad2)*
X168275000Y-62230000D03*
G04 #@! TD*
D17*
G04 #@! TO.P,CAN0L,1*
G04 #@! TO.N,CAN0L*
X164465000Y-54610000D03*
G04 #@! TD*
G04 #@! TO.P,CAN0H,1*
G04 #@! TO.N,CAN0H*
X164465000Y-62230000D03*
G04 #@! TD*
D15*
G04 #@! TO.P,JP1,2*
G04 #@! TO.N,Net-(JP1-Pad2)*
X177165000Y-66675000D03*
D16*
G04 #@! TO.P,JP1,1*
G04 #@! TO.N,CAN1H*
X174625000Y-66675000D03*
G04 #@! TD*
D15*
G04 #@! TO.P,JP2,2*
G04 #@! TO.N,Net-(JP2-Pad2)*
X167640000Y-66675000D03*
D16*
G04 #@! TO.P,JP2,1*
G04 #@! TO.N,CAN0H*
X165100000Y-66675000D03*
G04 #@! TD*
D18*
G04 #@! TO.P,R15,2*
G04 #@! TO.N,CAN1L*
X177800000Y-54610000D03*
D13*
G04 #@! TO.P,R15,1*
G04 #@! TO.N,Net-(JP1-Pad2)*
X177800000Y-62230000D03*
G04 #@! TD*
D17*
G04 #@! TO.P,RST,1*
G04 #@! TO.N,GND*
X170665000Y-92075000D03*
G04 #@! TO.P,RST,2*
G04 #@! TO.N,RST*
X170665000Y-87575000D03*
G04 #@! TO.P,RST,1*
G04 #@! TO.N,GND*
X177165000Y-92075000D03*
G04 #@! TO.P,RST,2*
G04 #@! TO.N,RST*
X177165000Y-87575000D03*
G04 #@! TD*
D18*
G04 #@! TO.P,SW1,8*
G04 #@! TO.N,Net-(R14-Pad1)*
X121920000Y-113030000D03*
G04 #@! TO.P,SW1,4*
G04 #@! TO.N,Net-(R7-Pad2)*
X129540000Y-120650000D03*
G04 #@! TO.P,SW1,7*
G04 #@! TO.N,Net-(R12-Pad1)*
X124460000Y-113030000D03*
G04 #@! TO.P,SW1,3*
G04 #@! TO.N,Net-(R9-Pad2)*
X127000000Y-120650000D03*
G04 #@! TO.P,SW1,6*
G04 #@! TO.N,Net-(R10-Pad1)*
X127000000Y-113030000D03*
G04 #@! TO.P,SW1,2*
G04 #@! TO.N,Net-(R11-Pad2)*
X124460000Y-120650000D03*
G04 #@! TO.P,SW1,5*
G04 #@! TO.N,Net-(R8-Pad1)*
X129540000Y-113030000D03*
D14*
G04 #@! TO.P,SW1,1*
G04 #@! TO.N,Net-(R13-Pad2)*
X121920000Y-120650000D03*
G04 #@! TD*
D17*
G04 #@! TO.P,+12V,1*
G04 #@! TO.N,+12V*
X139065000Y-56515000D03*
G04 #@! TD*
G04 #@! TO.P,+5V,1*
G04 #@! TO.N,+5V*
X121920000Y-70485000D03*
G04 #@! TD*
G04 #@! TO.P,+3V3,1*
G04 #@! TO.N,+3V3*
X135255000Y-82550000D03*
G04 #@! TD*
G04 #@! TO.P,T2,1*
G04 #@! TO.N,T2*
X168275000Y-116840000D03*
G04 #@! TD*
G04 #@! TO.P,T5,1*
G04 #@! TO.N,T5*
X174385000Y-116840000D03*
G04 #@! TD*
G04 #@! TO.P,GND,1*
G04 #@! TO.N,GND*
X121920000Y-77470000D03*
G04 #@! TD*
G04 #@! TO.P,GPI1,1*
G04 #@! TO.N,GPI1P*
X160655000Y-92075000D03*
G04 #@! TD*
G04 #@! TO.P,GPI2,1*
G04 #@! TO.N,GPI2P*
X154940000Y-92075000D03*
G04 #@! TD*
G04 #@! TO.P,CAN1H,1*
G04 #@! TO.N,CAN1H*
X173990000Y-62230000D03*
G04 #@! TD*
G04 #@! TO.P,CAN1L,1*
G04 #@! TO.N,CAN1L*
X173990000Y-54610000D03*
G04 #@! TD*
G04 #@! TO.P,AI3B,1*
G04 #@! TO.N,AI3B*
X146812000Y-78486000D03*
G04 #@! TD*
G04 #@! TO.P,AI1B,1*
G04 #@! TO.N,AI1B*
X125730000Y-99060000D03*
G04 #@! TD*
G04 #@! TO.P,AI2B,1*
G04 #@! TO.N,AI2B*
X125730000Y-94615000D03*
G04 #@! TD*
D19*
G04 #@! TO.P,U2,3*
G04 #@! TO.N,+5V*
X127635000Y-60325000D03*
G04 #@! TO.P,U2,2*
G04 #@! TO.N,GND*
X127635000Y-57785000D03*
D20*
G04 #@! TO.P,U2,1*
G04 #@! TO.N,+12V*
X127635000Y-55245000D03*
G04 #@! TD*
D21*
G04 #@! TO.P,D3,1*
G04 #@! TO.N,Net-(D3-Pad1)*
X144780000Y-65024000D03*
D22*
G04 #@! TO.P,D3,2*
G04 #@! TO.N,+5V*
X144780000Y-66294000D03*
G04 #@! TO.P,D3,3*
G04 #@! TO.N,Net-(D3-Pad3)*
X144780000Y-67564000D03*
G04 #@! TO.P,D3,4*
G04 #@! TO.N,Net-(D3-Pad4)*
X144780000Y-68834000D03*
G04 #@! TD*
D23*
G04 #@! TO.P,MH1,1*
G04 #@! TO.N,Net-(MH1-Pad1)*
X119942620Y-38809940D03*
G04 #@! TD*
G04 #@! TO.P,MH2,1*
G04 #@! TO.N,Net-(MH2-Pad1)*
X176599840Y-38812480D03*
G04 #@! TD*
G04 #@! TO.P,MH3,1*
G04 #@! TO.N,Net-(MH3-Pad1)*
X119935000Y-131728200D03*
G04 #@! TD*
G04 #@! TO.P,MH4,1*
G04 #@! TO.N,Net-(MH4-Pad1)*
X176610000Y-131728200D03*
G04 #@! TD*
D14*
G04 #@! TO.P,J2,1*
G04 #@! TO.N,CAN1L*
X153801200Y-46913800D03*
D13*
G04 #@! TO.P,J2,2*
G04 #@! TO.N,CAN0L*
X151031200Y-46913800D03*
G04 #@! TO.P,J2,3*
G04 #@! TO.N,GND*
X148261200Y-46913800D03*
G04 #@! TO.P,J2,4*
G04 #@! TO.N,Net-(J2-Pad4)*
X145491200Y-46913800D03*
G04 #@! TO.P,J2,5*
G04 #@! TO.N,Net-(J2-Pad5)*
X142721200Y-46913800D03*
G04 #@! TO.P,J2,6*
G04 #@! TO.N,Net-(J2-Pad6)*
X152416200Y-44073800D03*
G04 #@! TO.P,J2,7*
G04 #@! TO.N,CAN0H*
X149646200Y-44073800D03*
G04 #@! TO.P,J2,8*
G04 #@! TO.N,CAN1H*
X146876200Y-44073800D03*
G04 #@! TO.P,J2,9*
G04 #@! TO.N,+12V*
X144106200Y-44073800D03*
D12*
G04 #@! TO.P,J2,0*
G04 #@! TO.N,N/C*
X160761200Y-45493800D03*
X135761200Y-45493800D03*
G04 #@! TD*
D17*
G04 #@! TO.P,CAN0RX,1*
G04 #@! TO.N,CAN0RX*
X161290000Y-76200000D03*
G04 #@! TD*
G04 #@! TO.P,CAN0TX,1*
G04 #@! TO.N,CAN0TX*
X161290000Y-71755000D03*
G04 #@! TD*
G04 #@! TO.P,CAN1RX,1*
G04 #@! TO.N,CAN1RX*
X170815000Y-76200000D03*
G04 #@! TD*
G04 #@! TO.P,CAN1TX,1*
G04 #@! TO.N,CAN1TX*
X170815000Y-71755000D03*
G04 #@! TD*
D24*
G04 #@! TO.N,RST*
X165100000Y-107315000D03*
X153670000Y-108141203D03*
G04 #@! TO.N,GND*
X128884534Y-69415466D03*
X135234534Y-69415466D03*
X137795000Y-79375000D03*
X128905000Y-88646000D03*
X137273000Y-90805000D03*
X158051375Y-59753625D03*
X158086632Y-66068368D03*
X158115412Y-72390412D03*
X165735000Y-78105000D03*
X175260000Y-78105000D03*
X168910000Y-83185000D03*
X149860000Y-80645000D03*
X134520600Y-104419400D03*
X136070000Y-109220000D03*
X144760000Y-114935000D03*
X141210000Y-116840000D03*
X143510000Y-99060000D03*
X155128367Y-112064800D03*
X153670000Y-107430000D03*
X154000200Y-98820000D03*
X119380000Y-106045000D03*
X121920000Y-106045000D03*
X124460000Y-106045000D03*
X127000000Y-106045000D03*
X154305000Y-83820000D03*
X160020000Y-83820000D03*
X147260000Y-114240000D03*
X134084000Y-94742000D03*
X146163000Y-84836000D03*
G04 #@! TO.N,+3V3*
X167005000Y-78105000D03*
X176530000Y-78105000D03*
X178435000Y-83185000D03*
X160020000Y-80645000D03*
X134442200Y-103430000D03*
X135890000Y-107930000D03*
X143651000Y-115076000D03*
X145900000Y-99060000D03*
X147475000Y-108430000D03*
X152400000Y-105410000D03*
X135189000Y-87696000D03*
X133299201Y-94742000D03*
X143913928Y-84686072D03*
G04 #@! TO.N,+5V*
X128030000Y-69215000D03*
X134380000Y-69215000D03*
X132080000Y-77927362D03*
X127000000Y-77927362D03*
X128905000Y-89648000D03*
G04 #@! TO.N,GPI1*
X161290000Y-83820000D03*
G04 #@! TO.N,GPI2P*
X153035000Y-90170000D03*
X141605000Y-104140000D03*
G04 #@! TO.N,GPI2*
X156922632Y-93422632D03*
G04 #@! TO.N,TCK*
X156210000Y-95250000D03*
X152400000Y-93980000D03*
X148590000Y-95885000D03*
G04 #@! TO.N,TMS*
X156845000Y-94615000D03*
X152400000Y-90805000D03*
X145415000Y-102235000D03*
G04 #@! TO.N,TDO*
X147320000Y-99695000D03*
G04 #@! TO.N,TDI*
X163830000Y-98425000D03*
X149860000Y-95885000D03*
G04 #@! TO.N,TXD*
X151765000Y-104140000D03*
G04 #@! TO.N,RXD*
X167005000Y-106045000D03*
X151130000Y-104775000D03*
G04 #@! TO.N,AI4H*
X120015000Y-105410000D03*
G04 #@! TO.N,AI2H*
X125095000Y-105410000D03*
G04 #@! TO.N,T2*
X137795000Y-69215000D03*
X179070000Y-69850000D03*
G04 #@! TO.N,AI3H*
X122555000Y-105410000D03*
G04 #@! TO.N,AI1H*
X127635000Y-105410000D03*
G04 #@! TO.N,SW1*
X147955000Y-104140000D03*
G04 #@! TO.N,T5*
X131445000Y-69215000D03*
G04 #@! TO.N,LED_R*
X158115000Y-109220000D03*
X154305000Y-116840000D03*
G04 #@! TO.N,LED_G*
X156845000Y-79375000D03*
X154305000Y-95250000D03*
X152400000Y-97155000D03*
X147320000Y-105410000D03*
G04 #@! TO.N,LED_B*
X155575000Y-79375000D03*
X153670000Y-94615000D03*
X152400000Y-95885000D03*
X146685000Y-111125000D03*
G04 #@! TO.N,SCL*
X130810000Y-76200000D03*
X135079534Y-76200000D03*
G04 #@! TO.N,Net-(R9-Pad2)*
X124460000Y-100965000D03*
X132715000Y-95885000D03*
G04 #@! TO.N,Net-(R11-Pad2)*
X141605000Y-85725000D03*
X144145000Y-88265000D03*
G04 #@! TO.N,Net-(R13-Pad2)*
X120015000Y-100965000D03*
X137160000Y-86995000D03*
G04 #@! TO.N,AI4B*
X137795000Y-99060000D03*
X135890000Y-104775000D03*
X139065000Y-88265000D03*
G04 #@! TO.N,AI3B*
X140335000Y-99695000D03*
X140335000Y-106045000D03*
X143971355Y-89361355D03*
G04 #@! TO.N,AI1B*
X134620000Y-99060000D03*
X136525000Y-102235000D03*
X139700000Y-103505000D03*
G04 #@! TO.N,AI2B*
X132715000Y-98425000D03*
X139065000Y-99060000D03*
G04 #@! TO.N,CAN1TX*
X173990000Y-74295000D03*
G04 #@! TO.N,CAN0RX*
X168910000Y-78740000D03*
X147320000Y-84455000D03*
X143510000Y-95885000D03*
X142240000Y-102870000D03*
G04 #@! TO.N,CAN0TX*
X160020000Y-79375000D03*
X141605000Y-99695000D03*
X164465000Y-74295000D03*
G04 #@! TD*
D25*
G04 #@! TO.N,RST*
X164273797Y-108141203D02*
X165100000Y-107315000D01*
X153670000Y-108141203D02*
X164273797Y-108141203D01*
D26*
G04 #@! TO.N,+12V*
X139612500Y-124015500D02*
X120205500Y-124015500D01*
X141377800Y-125780800D02*
X139612500Y-124015500D01*
X120205500Y-124015500D02*
X117475000Y-121285000D01*
X127135000Y-55245000D02*
X127635000Y-55245000D01*
X117475000Y-64905000D02*
X127135000Y-55245000D01*
X117475000Y-121285000D02*
X117475000Y-64905000D01*
D25*
G04 #@! TO.N,GPI1*
X161290000Y-83820000D02*
X164341106Y-83820000D01*
X164341106Y-83820000D02*
X177165000Y-96643894D01*
X177165000Y-96643894D02*
X177165000Y-115991106D01*
X177165000Y-115991106D02*
X168260107Y-124895999D01*
X168260107Y-124895999D02*
X158882601Y-124895999D01*
X158882601Y-124895999D02*
X157997800Y-125780800D01*
G04 #@! TO.N,GPI2P*
X142163801Y-101041199D02*
X141605000Y-101600000D01*
X142163801Y-92533923D02*
X142163801Y-101041199D01*
X153035000Y-90170000D02*
X144527724Y-90170000D01*
X144527724Y-90170000D02*
X142163801Y-92533923D01*
X141605000Y-101600000D02*
X141605000Y-104140000D01*
G04 #@! TO.N,GPI2*
X156612800Y-125530694D02*
X156612800Y-128620800D01*
X156922632Y-93422632D02*
X170061738Y-93422632D01*
X170061738Y-93422632D02*
X175895000Y-99255894D01*
X175895000Y-111125000D02*
X162530411Y-124489589D01*
X175895000Y-99255894D02*
X175895000Y-111125000D01*
X162530411Y-124489589D02*
X157653905Y-124489589D01*
X157653905Y-124489589D02*
X156612800Y-125530694D01*
G04 #@! TO.N,TCK*
X158115000Y-97155000D02*
X156210000Y-95250000D01*
X152400000Y-93980000D02*
X150495000Y-93980000D01*
X150495000Y-93980000D02*
X148590000Y-95885000D01*
X169761800Y-99695000D02*
X170815000Y-99695000D01*
X167221800Y-97155000D02*
X169761800Y-99695000D01*
X158115000Y-97155000D02*
X167221800Y-97155000D01*
G04 #@! TO.N,TMS*
X169545000Y-94615000D02*
X156845000Y-94615000D01*
X152400000Y-90805000D02*
X145341199Y-97863801D01*
X145341199Y-102161199D02*
X145415000Y-102235000D01*
X145341199Y-97863801D02*
X145341199Y-102161199D01*
X173355000Y-99695000D02*
X173355000Y-98425000D01*
X173355000Y-98425000D02*
X169545000Y-94615000D01*
G04 #@! TO.N,TDO*
X151765000Y-95250000D02*
X147320000Y-99695000D01*
X152592026Y-95250000D02*
X151765000Y-95250000D01*
X170815000Y-102235000D02*
X159577026Y-102235000D01*
X159577026Y-102235000D02*
X152592026Y-95250000D01*
G04 #@! TO.N,TDI*
X150901410Y-94843590D02*
X149860000Y-95885000D01*
X152760366Y-94843590D02*
X150901410Y-94843590D01*
X163830000Y-98425000D02*
X156341776Y-98425000D01*
X156341776Y-98425000D02*
X152760366Y-94843590D01*
G04 #@! TO.N,TXD*
X152476199Y-104851199D02*
X151765000Y-104140000D01*
X166638225Y-104851199D02*
X152476199Y-104851199D01*
X167947225Y-106160199D02*
X166638225Y-104851199D01*
X172200199Y-106160199D02*
X167947225Y-106160199D01*
X173355000Y-107315000D02*
X172200199Y-106160199D01*
G04 #@! TO.N,RXD*
X151130000Y-104967026D02*
X151130000Y-104775000D01*
X167005000Y-106045000D02*
X152207974Y-106045000D01*
X152207974Y-106045000D02*
X151130000Y-104967026D01*
G04 #@! TO.N,CAN1L*
X170708789Y-51328789D02*
X156738789Y-51328789D01*
X173990000Y-54610000D02*
X170708789Y-51328789D01*
X153670000Y-48260000D02*
X153670000Y-46990000D01*
X156738789Y-51328789D02*
X153670000Y-48260000D01*
G04 #@! TO.N,CAN1H*
X173990000Y-62230000D02*
X163495199Y-51735199D01*
X149389741Y-46886247D02*
X149389741Y-46386035D01*
X154238693Y-51735199D02*
X149389741Y-46886247D01*
X163495199Y-51735199D02*
X154238693Y-51735199D01*
X147699939Y-44876339D02*
X146899940Y-44076340D01*
X147880045Y-44876339D02*
X147699939Y-44876339D01*
X149389741Y-46386035D02*
X147880045Y-44876339D01*
G04 #@! TO.N,AI4H*
X125730000Y-119380000D02*
X130175000Y-119380000D01*
X130175000Y-119380000D02*
X133350000Y-122555000D01*
X145530000Y-127489430D02*
X145530000Y-128620800D01*
X145530000Y-125530694D02*
X145530000Y-127489430D01*
X142554306Y-122555000D02*
X145530000Y-125530694D01*
X133350000Y-122555000D02*
X142554306Y-122555000D01*
X120015000Y-105410000D02*
X120650000Y-106045000D01*
X120650000Y-106045000D02*
X120650000Y-109220000D01*
X123355199Y-112830093D02*
X123355199Y-117005199D01*
X120650000Y-109220000D02*
X120650000Y-110124894D01*
X120650000Y-110124894D02*
X123355199Y-112830093D01*
X123355199Y-117005199D02*
X125730000Y-119380000D01*
G04 #@! TO.N,AI2H*
X125095000Y-105410000D02*
X125730000Y-106045000D01*
X128435199Y-116430449D02*
X132654750Y-120650000D01*
X128435199Y-112830093D02*
X128435199Y-116430449D01*
X125730000Y-106045000D02*
X125730000Y-110124894D01*
X125730000Y-110124894D02*
X128435199Y-112830093D01*
X132654750Y-120650000D02*
X132715000Y-120650000D01*
X148300000Y-127489430D02*
X148300000Y-128620800D01*
X148300000Y-125530694D02*
X148300000Y-127489430D01*
X144282896Y-121513590D02*
X148300000Y-125530694D01*
X133578590Y-121513590D02*
X144282896Y-121513590D01*
X132715000Y-120650000D02*
X133578590Y-121513590D01*
G04 #@! TO.N,T2*
X163940000Y-116840000D02*
X155050000Y-125730000D01*
X168275000Y-116840000D02*
X163940000Y-116840000D01*
X137795000Y-69215000D02*
X138253810Y-69673810D01*
X138253810Y-69673810D02*
X178893810Y-69673810D01*
X178893810Y-69673810D02*
X179070000Y-69850000D01*
G04 #@! TO.N,AI3H*
X122555000Y-105410000D02*
X123190000Y-106045000D01*
X125895199Y-112830093D02*
X125895199Y-117640199D01*
X123190000Y-106045000D02*
X123190000Y-110124894D01*
X123190000Y-110124894D02*
X125895199Y-112830093D01*
X125895199Y-117640199D02*
X127000000Y-118745000D01*
X127000000Y-118745000D02*
X130175000Y-118745000D01*
X130175000Y-118745000D02*
X133350000Y-121920000D01*
X143054200Y-121920000D02*
X146915000Y-125780800D01*
X133350000Y-121920000D02*
X143054200Y-121920000D01*
G04 #@! TO.N,AI1H*
X148885001Y-124980801D02*
X149685000Y-125780800D01*
X144554200Y-120650000D02*
X148885001Y-124980801D01*
X133350000Y-120650000D02*
X144554200Y-120650000D01*
X130810000Y-118110000D02*
X133350000Y-120650000D01*
X130810000Y-108585000D02*
X130810000Y-118110000D01*
X127635000Y-105410000D02*
X130810000Y-108585000D01*
G04 #@! TO.N,SW1*
X152280000Y-125730000D02*
X152280000Y-108465000D01*
X152280000Y-108465000D02*
X147955000Y-104140000D01*
G04 #@! TO.N,T5*
X138353801Y-96886775D02*
X138353801Y-76123801D01*
X140893801Y-99426775D02*
X138353801Y-96886775D01*
X143510000Y-118110000D02*
X140893801Y-115493801D01*
X140893801Y-115493801D02*
X140893801Y-99426775D01*
X138353801Y-76123801D02*
X131445000Y-69215000D01*
X144145000Y-118110000D02*
X143510000Y-118110000D01*
X152859895Y-127820801D02*
X151130000Y-126090906D01*
X153840000Y-128620800D02*
X153040001Y-127820801D01*
X153040001Y-127820801D02*
X152859895Y-127820801D01*
X151130000Y-126090906D02*
X151130000Y-125095000D01*
X151130000Y-125095000D02*
X144145000Y-118110000D01*
G04 #@! TO.N,LED_R*
X158115000Y-109220000D02*
X158115000Y-113030000D01*
X158115000Y-113030000D02*
X154305000Y-116840000D01*
G04 #@! TO.N,LED_G*
X156845000Y-79375000D02*
X156845000Y-92710000D01*
X156845000Y-92710000D02*
X154305000Y-95250000D01*
X152400000Y-97155000D02*
X147320000Y-102235000D01*
X147320000Y-102235000D02*
X147320000Y-105410000D01*
G04 #@! TO.N,LED_B*
X155575000Y-79375000D02*
X153635199Y-81314801D01*
X153635199Y-81314801D02*
X153635199Y-94580199D01*
X153635199Y-94580199D02*
X153670000Y-94615000D01*
X152400000Y-95885000D02*
X146685000Y-101600000D01*
X146685000Y-101600000D02*
X146685000Y-111125000D01*
G04 #@! TO.N,SCL*
X130810000Y-76200000D02*
X135079534Y-76200000D01*
G04 #@! TO.N,Net-(R9-Pad2)*
X132273789Y-96326211D02*
X132715000Y-95885000D01*
X126532683Y-96326211D02*
X132273789Y-96326211D01*
X124206001Y-98652893D02*
X126532683Y-96326211D01*
X124460000Y-100965000D02*
X124206001Y-100711001D01*
X124206001Y-100711001D02*
X124206001Y-98652893D01*
G04 #@! TO.N,Net-(R11-Pad2)*
X141605000Y-85725000D02*
X144145000Y-88265000D01*
G04 #@! TO.N,Net-(R13-Pad2)*
X128235199Y-95919801D02*
X137160000Y-86995000D01*
X120015000Y-100965000D02*
X125060199Y-95919801D01*
X125060199Y-95919801D02*
X128235199Y-95919801D01*
G04 #@! TO.N,AI4B*
X137795000Y-99060000D02*
X135890000Y-100965000D01*
X135890000Y-100965000D02*
X135890000Y-104775000D01*
X139065000Y-80899000D02*
X141478000Y-78486000D01*
X139065000Y-88265000D02*
X139065000Y-80899000D01*
G04 #@! TO.N,AI3B*
X140335000Y-99695000D02*
X140335000Y-106045000D01*
X145604199Y-79693801D02*
X146812000Y-78486000D01*
X145604199Y-87728511D02*
X145604199Y-79693801D01*
X143971355Y-89361355D02*
X145604199Y-87728511D01*
G04 #@! TO.N,AI1B*
X134620000Y-99060000D02*
X125730000Y-99060000D01*
X136525000Y-102235000D02*
X138430000Y-102235000D01*
X138430000Y-102235000D02*
X139700000Y-103505000D01*
G04 #@! TO.N,AI2B*
X132715000Y-98425000D02*
X138430000Y-98425000D01*
X138430000Y-98425000D02*
X139065000Y-99060000D01*
G04 #@! TO.N,CAN1TX*
X170815000Y-71755000D02*
X173355000Y-74295000D01*
X173355000Y-74295000D02*
X173990000Y-74295000D01*
G04 #@! TO.N,CAN0RX*
X153365211Y-78409789D02*
X147320000Y-84455000D01*
X159629539Y-78409789D02*
X153365211Y-78409789D01*
X168910000Y-78740000D02*
X159959750Y-78740000D01*
X159959750Y-78740000D02*
X159629539Y-78409789D01*
X142701200Y-102408800D02*
X142240000Y-102870000D01*
X143510000Y-95885000D02*
X142701200Y-96693800D01*
X142701200Y-96693800D02*
X142701200Y-102408800D01*
G04 #@! TO.N,CAN0TX*
X141605000Y-92517974D02*
X141605000Y-99695000D01*
X155306775Y-78816199D02*
X141605000Y-92517974D01*
X160020000Y-79375000D02*
X159461199Y-78816199D01*
X159461199Y-78816199D02*
X155306775Y-78816199D01*
X161290000Y-71755000D02*
X163830000Y-74295000D01*
X163830000Y-74295000D02*
X164465000Y-74295000D01*
G04 #@! TD*
M02*
