G04 #@! TF.GenerationSoftware,KiCad,Pcbnew,(5.0.0)*
G04 #@! TF.CreationDate,2018-09-24T14:48:38-04:00*
G04 #@! TF.ProjectId,MDAS_Controller_V2,4D4441535F436F6E74726F6C6C65725F,rev?*
G04 #@! TF.SameCoordinates,Original*
G04 #@! TF.FileFunction,Copper,L4,Bot,Signal*
G04 #@! TF.FilePolarity,Positive*
%FSLAX46Y46*%
G04 Gerber Fmt 4.6, Leading zero omitted, Abs format (unit mm)*
G04 Created by KiCad (PCBNEW (5.0.0)) date 09/24/18 14:48:38*
%MOMM*%
%LPD*%
G01*
G04 APERTURE LIST*
G04 #@! TA.AperFunction,ComponentPad*
%ADD10C,2.000000*%
G04 #@! TD*
G04 #@! TA.AperFunction,ComponentPad*
%ADD11O,2.400000X2.400000*%
G04 #@! TD*
G04 #@! TA.AperFunction,ComponentPad*
%ADD12R,2.400000X2.400000*%
G04 #@! TD*
G04 #@! TA.AperFunction,ComponentPad*
%ADD13C,4.000000*%
G04 #@! TD*
G04 #@! TA.AperFunction,ComponentPad*
%ADD14C,1.600000*%
G04 #@! TD*
G04 #@! TA.AperFunction,ComponentPad*
%ADD15R,1.600000X1.600000*%
G04 #@! TD*
G04 #@! TA.AperFunction,ComponentPad*
%ADD16O,1.700000X1.700000*%
G04 #@! TD*
G04 #@! TA.AperFunction,ComponentPad*
%ADD17R,1.700000X1.700000*%
G04 #@! TD*
G04 #@! TA.AperFunction,ComponentPad*
%ADD18O,1.600000X1.600000*%
G04 #@! TD*
G04 #@! TA.AperFunction,ComponentPad*
%ADD19O,2.500000X1.500000*%
G04 #@! TD*
G04 #@! TA.AperFunction,ComponentPad*
%ADD20R,2.500000X1.500000*%
G04 #@! TD*
G04 #@! TA.AperFunction,ComponentPad*
%ADD21O,1.800000X1.070000*%
G04 #@! TD*
G04 #@! TA.AperFunction,ComponentPad*
%ADD22R,1.800000X1.070000*%
G04 #@! TD*
G04 #@! TA.AperFunction,ComponentPad*
%ADD23C,6.400000*%
G04 #@! TD*
G04 #@! TA.AperFunction,ViaPad*
%ADD24C,0.508000*%
G04 #@! TD*
G04 #@! TA.AperFunction,Conductor*
%ADD25C,0.203200*%
G04 #@! TD*
G04 #@! TA.AperFunction,Conductor*
%ADD26C,0.254000*%
G04 #@! TD*
G04 #@! TA.AperFunction,Conductor*
%ADD27C,0.635000*%
G04 #@! TD*
G04 APERTURE END LIST*
D10*
G04 #@! TO.P,SW2,1*
G04 #@! TO.N,SW2P*
X154178000Y-93345000D03*
G04 #@! TD*
D11*
G04 #@! TO.P,D2,2*
G04 #@! TO.N,GND*
X154305000Y-56515000D03*
D12*
G04 #@! TO.P,D2,1*
G04 #@! TO.N,+12V*
X144145000Y-56515000D03*
G04 #@! TD*
D13*
G04 #@! TO.P,J3,0*
G04 #@! TO.N,N/C*
X164978200Y-127251600D03*
X131678200Y-127251600D03*
D14*
G04 #@! TO.P,J3,15*
G04 #@! TO.N,SW2*
X156638200Y-128671600D03*
G04 #@! TO.P,J3,14*
G04 #@! TO.N,T5*
X153868200Y-128671600D03*
G04 #@! TO.P,J3,13*
G04 #@! TO.N,GPI2*
X151098200Y-128671600D03*
G04 #@! TO.P,J3,12*
G04 #@! TO.N,AI2H*
X148328200Y-128671600D03*
G04 #@! TO.P,J3,11*
G04 #@! TO.N,AI4H*
X145558200Y-128671600D03*
G04 #@! TO.P,J3,10*
G04 #@! TO.N,+5V*
X142788200Y-128671600D03*
G04 #@! TO.P,J3,9*
G04 #@! TO.N,GND*
X140018200Y-128671600D03*
G04 #@! TO.P,J3,8*
G04 #@! TO.N,SW1*
X158023200Y-125831600D03*
G04 #@! TO.P,J3,7*
G04 #@! TO.N,T2*
X155253200Y-125831600D03*
G04 #@! TO.P,J3,6*
G04 #@! TO.N,GPI1*
X152483200Y-125831600D03*
G04 #@! TO.P,J3,5*
G04 #@! TO.N,AI1H*
X149713200Y-125831600D03*
G04 #@! TO.P,J3,4*
G04 #@! TO.N,AI3H*
X146943200Y-125831600D03*
G04 #@! TO.P,J3,3*
G04 #@! TO.N,+3V3*
X144173200Y-125831600D03*
G04 #@! TO.P,J3,2*
G04 #@! TO.N,+12V*
X141403200Y-125831600D03*
D15*
G04 #@! TO.P,J3,1*
G04 #@! TO.N,GND*
X138633200Y-125831600D03*
G04 #@! TD*
D16*
G04 #@! TO.P,JTAG,10*
G04 #@! TO.N,GND*
X173355000Y-109855000D03*
G04 #@! TO.P,JTAG,9*
X170815000Y-109855000D03*
G04 #@! TO.P,JTAG,8*
G04 #@! TO.N,+3V3*
X173355000Y-107315000D03*
G04 #@! TO.P,JTAG,7*
G04 #@! TO.N,RXD*
X170815000Y-107315000D03*
G04 #@! TO.P,JTAG,6*
G04 #@! TO.N,RST*
X173355000Y-104775000D03*
G04 #@! TO.P,JTAG,5*
G04 #@! TO.N,TXD*
X170815000Y-104775000D03*
G04 #@! TO.P,JTAG,4*
G04 #@! TO.N,TDI*
X173355000Y-102235000D03*
G04 #@! TO.P,JTAG,3*
G04 #@! TO.N,TDO*
X170815000Y-102235000D03*
G04 #@! TO.P,JTAG,2*
G04 #@! TO.N,TMS*
X173355000Y-99695000D03*
D17*
G04 #@! TO.P,JTAG,1*
G04 #@! TO.N,TCK*
X170815000Y-99695000D03*
G04 #@! TD*
D10*
G04 #@! TO.P,AI4B,1*
G04 #@! TO.N,AI4B*
X141478000Y-78486000D03*
G04 #@! TD*
D18*
G04 #@! TO.P,R16,2*
G04 #@! TO.N,CAN0L*
X168275000Y-54610000D03*
D14*
G04 #@! TO.P,R16,1*
G04 #@! TO.N,Net-(JP2-Pad2)*
X168275000Y-62230000D03*
G04 #@! TD*
D10*
G04 #@! TO.P,CAN0L,1*
G04 #@! TO.N,CAN0L*
X164465000Y-54610000D03*
G04 #@! TD*
G04 #@! TO.P,CAN0H,1*
G04 #@! TO.N,CAN0H*
X164465000Y-62230000D03*
G04 #@! TD*
D16*
G04 #@! TO.P,JP1,2*
G04 #@! TO.N,Net-(JP1-Pad2)*
X177165000Y-66675000D03*
D17*
G04 #@! TO.P,JP1,1*
G04 #@! TO.N,CAN1H*
X174625000Y-66675000D03*
G04 #@! TD*
D16*
G04 #@! TO.P,JP2,2*
G04 #@! TO.N,Net-(JP2-Pad2)*
X167640000Y-66675000D03*
D17*
G04 #@! TO.P,JP2,1*
G04 #@! TO.N,CAN0H*
X165100000Y-66675000D03*
G04 #@! TD*
D18*
G04 #@! TO.P,R15,2*
G04 #@! TO.N,CAN1L*
X177800000Y-54610000D03*
D14*
G04 #@! TO.P,R15,1*
G04 #@! TO.N,Net-(JP1-Pad2)*
X177800000Y-62230000D03*
G04 #@! TD*
D10*
G04 #@! TO.P,RST,1*
G04 #@! TO.N,GND*
X174456817Y-84105545D03*
G04 #@! TO.P,RST,2*
G04 #@! TO.N,RST*
X174456817Y-88605545D03*
G04 #@! TO.P,RST,1*
G04 #@! TO.N,GND*
X167956817Y-84105545D03*
G04 #@! TO.P,RST,2*
G04 #@! TO.N,RST*
X167956817Y-88605545D03*
G04 #@! TD*
D18*
G04 #@! TO.P,SW1,8*
G04 #@! TO.N,Net-(R14-Pad1)*
X121920000Y-113030000D03*
G04 #@! TO.P,SW1,4*
G04 #@! TO.N,Net-(R7-Pad2)*
X129540000Y-120650000D03*
G04 #@! TO.P,SW1,7*
G04 #@! TO.N,Net-(R12-Pad1)*
X124460000Y-113030000D03*
G04 #@! TO.P,SW1,3*
G04 #@! TO.N,Net-(R9-Pad2)*
X127000000Y-120650000D03*
G04 #@! TO.P,SW1,6*
G04 #@! TO.N,Net-(R10-Pad1)*
X127000000Y-113030000D03*
G04 #@! TO.P,SW1,2*
G04 #@! TO.N,Net-(R11-Pad2)*
X124460000Y-120650000D03*
G04 #@! TO.P,SW1,5*
G04 #@! TO.N,Net-(R8-Pad1)*
X129540000Y-113030000D03*
D15*
G04 #@! TO.P,SW1,1*
G04 #@! TO.N,Net-(R13-Pad2)*
X121920000Y-120650000D03*
G04 #@! TD*
D10*
G04 #@! TO.P,+12V,1*
G04 #@! TO.N,+12V*
X139065000Y-56515000D03*
G04 #@! TD*
G04 #@! TO.P,+5V,1*
G04 #@! TO.N,+5V*
X121285000Y-70485000D03*
G04 #@! TD*
G04 #@! TO.P,+3V3,1*
G04 #@! TO.N,+3V3*
X135255000Y-82550000D03*
G04 #@! TD*
G04 #@! TO.P,T2,1*
G04 #@! TO.N,T2*
X172720000Y-120650000D03*
G04 #@! TD*
G04 #@! TO.P,T5,1*
G04 #@! TO.N,T5*
X172720000Y-115570000D03*
G04 #@! TD*
G04 #@! TO.P,GND,1*
G04 #@! TO.N,GND*
X121285000Y-77470000D03*
G04 #@! TD*
G04 #@! TO.P,SW1,1*
G04 #@! TO.N,SW1P*
X160528000Y-93472000D03*
G04 #@! TD*
G04 #@! TO.P,CAN1H,1*
G04 #@! TO.N,CAN1H*
X173990000Y-62230000D03*
G04 #@! TD*
G04 #@! TO.P,CAN1L,1*
G04 #@! TO.N,CAN1L*
X173990000Y-54610000D03*
G04 #@! TD*
G04 #@! TO.P,AI3B,1*
G04 #@! TO.N,AI3B*
X146812000Y-78486000D03*
G04 #@! TD*
G04 #@! TO.P,AI1B,1*
G04 #@! TO.N,AI1B*
X125730000Y-99060000D03*
G04 #@! TD*
G04 #@! TO.P,AI2B,1*
G04 #@! TO.N,AI2B*
X125730000Y-94615000D03*
G04 #@! TD*
D19*
G04 #@! TO.P,U2,3*
G04 #@! TO.N,+5V*
X127635000Y-60325000D03*
G04 #@! TO.P,U2,2*
G04 #@! TO.N,GND*
X127635000Y-57785000D03*
D20*
G04 #@! TO.P,U2,1*
G04 #@! TO.N,+12V*
X127635000Y-55245000D03*
G04 #@! TD*
D21*
G04 #@! TO.P,D3,4*
G04 #@! TO.N,Net-(D3-Pad4)*
X144780000Y-68834000D03*
G04 #@! TO.P,D3,3*
G04 #@! TO.N,Net-(D3-Pad3)*
X144780000Y-67564000D03*
G04 #@! TO.P,D3,2*
G04 #@! TO.N,+5V*
X144780000Y-66294000D03*
D22*
G04 #@! TO.P,D3,1*
G04 #@! TO.N,Net-(D3-Pad1)*
X144780000Y-65024000D03*
G04 #@! TD*
D23*
G04 #@! TO.P,MH1,1*
G04 #@! TO.N,Net-(MH1-Pad1)*
X119942620Y-38809940D03*
G04 #@! TD*
G04 #@! TO.P,MH2,1*
G04 #@! TO.N,Net-(MH2-Pad1)*
X176599840Y-38812480D03*
G04 #@! TD*
G04 #@! TO.P,MH3,1*
G04 #@! TO.N,Net-(MH3-Pad1)*
X119935000Y-131728200D03*
G04 #@! TD*
G04 #@! TO.P,MH4,1*
G04 #@! TO.N,Net-(MH4-Pad1)*
X176610000Y-131728200D03*
G04 #@! TD*
D15*
G04 #@! TO.P,J2,1*
G04 #@! TO.N,CAN1L*
X153801200Y-46913800D03*
D14*
G04 #@! TO.P,J2,2*
G04 #@! TO.N,CAN0L*
X151031200Y-46913800D03*
G04 #@! TO.P,J2,3*
G04 #@! TO.N,GND*
X148261200Y-46913800D03*
G04 #@! TO.P,J2,4*
G04 #@! TO.N,Net-(J2-Pad4)*
X145491200Y-46913800D03*
G04 #@! TO.P,J2,5*
G04 #@! TO.N,Net-(J2-Pad5)*
X142721200Y-46913800D03*
G04 #@! TO.P,J2,6*
G04 #@! TO.N,GND*
X152416200Y-44073800D03*
G04 #@! TO.P,J2,7*
G04 #@! TO.N,CAN0H*
X149646200Y-44073800D03*
G04 #@! TO.P,J2,8*
G04 #@! TO.N,CAN1H*
X146876200Y-44073800D03*
G04 #@! TO.P,J2,9*
G04 #@! TO.N,+12V*
X144106200Y-44073800D03*
D13*
G04 #@! TO.P,J2,0*
G04 #@! TO.N,N/C*
X160761200Y-45493800D03*
X135761200Y-45493800D03*
G04 #@! TD*
D10*
G04 #@! TO.P,CAN0RX,1*
G04 #@! TO.N,CAN0RX*
X161290000Y-76200000D03*
G04 #@! TD*
G04 #@! TO.P,CAN0TX,1*
G04 #@! TO.N,CAN0TX*
X161290000Y-71755000D03*
G04 #@! TD*
G04 #@! TO.P,CAN1RX,1*
G04 #@! TO.N,CAN1RX*
X171196000Y-76200000D03*
G04 #@! TD*
G04 #@! TO.P,CAN1TX,1*
G04 #@! TO.N,CAN1TX*
X171196000Y-71628000D03*
G04 #@! TD*
D24*
G04 #@! TO.N,RST*
X171450000Y-92710000D03*
G04 #@! TO.N,GND*
X124861000Y-59055000D03*
X124460000Y-57367500D03*
X128884534Y-69415466D03*
X135234534Y-69415466D03*
X128905000Y-88646000D03*
X137160000Y-88265000D03*
X158115000Y-66040000D03*
X158115000Y-59690000D03*
X158115000Y-71755000D03*
X165495000Y-78105000D03*
X175020000Y-78105000D03*
X150495000Y-80645000D03*
X144780000Y-86995000D03*
X134620000Y-96012000D03*
X136070000Y-109220000D03*
X155128367Y-112014000D03*
X154305000Y-98820000D03*
X153670000Y-107430000D03*
X171450000Y-84105545D03*
X176530000Y-92710000D03*
X144260000Y-99810000D03*
X135255000Y-104140000D03*
X145415000Y-114935000D03*
X155067000Y-83185000D03*
X161290000Y-83185000D03*
X120015000Y-101600000D03*
X122555000Y-101600000D03*
X125095000Y-101600000D03*
X127635000Y-101600000D03*
X161925000Y-118745000D03*
X139065000Y-77470000D03*
X147320000Y-113665000D03*
X168224200Y-118795800D03*
X141210000Y-116586000D03*
G04 #@! TO.N,+3V3*
X135255000Y-87630000D03*
X167005000Y-78105000D03*
X176530000Y-78105000D03*
X160020000Y-80645000D03*
X142635000Y-89455000D03*
X132475000Y-98345000D03*
X135890000Y-107930000D03*
X152400000Y-103494000D03*
X147955000Y-108585000D03*
X166370000Y-92710000D03*
X145265000Y-99695000D03*
X134620000Y-103430000D03*
X144145000Y-114300000D03*
G04 #@! TO.N,Net-(C10-Pad1)*
X142875000Y-111125000D03*
X143510000Y-103505000D03*
G04 #@! TO.N,+12V*
X124460000Y-55245000D03*
G04 #@! TO.N,+5V*
X124677500Y-60960000D03*
X128030000Y-69215000D03*
X134380000Y-69215000D03*
X128905000Y-89648000D03*
X128905000Y-79375000D03*
G04 #@! TO.N,Net-(D3-Pad1)*
X148590000Y-64770000D03*
X148590000Y-62230000D03*
G04 #@! TO.N,Net-(D3-Pad4)*
X144780000Y-74295000D03*
G04 #@! TO.N,GPI1*
X152400000Y-118745000D03*
G04 #@! TO.N,GPI2*
X163195000Y-118745000D03*
X163195000Y-122555000D03*
X151130000Y-122555000D03*
G04 #@! TO.N,TDI*
X157480000Y-102870000D03*
X157480000Y-96520000D03*
G04 #@! TO.N,TXD*
X162560000Y-104775000D03*
X151130000Y-104140000D03*
G04 #@! TO.N,RXD*
X161925000Y-106045000D03*
X150495000Y-104775000D03*
G04 #@! TO.N,CAN1L*
X170180000Y-54610000D03*
X170180000Y-50800000D03*
X153670000Y-50800000D03*
X176530000Y-69215000D03*
G04 #@! TO.N,CAN0L*
X151130000Y-53975000D03*
X167005000Y-69215000D03*
G04 #@! TO.N,CAN0H*
X164465000Y-59055000D03*
X165735000Y-69215000D03*
X149860000Y-59182000D03*
G04 #@! TO.N,CAN1H*
X173355000Y-58420000D03*
X175260000Y-69215000D03*
X146812000Y-58420000D03*
G04 #@! TO.N,AI4H*
X142240000Y-122682000D03*
G04 #@! TO.N,AI2H*
X148082000Y-121412000D03*
G04 #@! TO.N,SW2*
X164465000Y-86360000D03*
G04 #@! TO.N,T2*
X154940000Y-120650000D03*
X137795000Y-71120000D03*
X137160000Y-119448610D03*
G04 #@! TO.N,AI3H*
X146812000Y-122174000D03*
G04 #@! TO.N,AI1H*
X149606000Y-120650000D03*
G04 #@! TO.N,SW1*
X165100000Y-85090000D03*
G04 #@! TO.N,T5*
X153670000Y-116205000D03*
X131445000Y-71120000D03*
X134162800Y-120015000D03*
X153670000Y-120015000D03*
G04 #@! TO.N,LED_R*
X143510000Y-63500000D03*
X143510000Y-110490000D03*
G04 #@! TO.N,LED_G*
X144780000Y-75565000D03*
X146050000Y-111125000D03*
G04 #@! TO.N,LED_B*
X148590000Y-69215000D03*
X146812000Y-110490000D03*
G04 #@! TO.N,SCL*
X152400000Y-76835000D03*
X151688905Y-103506318D03*
G04 #@! TO.N,SDA*
X127635000Y-76835000D03*
X127635000Y-75401200D03*
X132080000Y-78105000D03*
X132080000Y-73660000D03*
X132080000Y-102235000D03*
G04 #@! TO.N,Net-(R7-Pad2)*
X126111000Y-107569000D03*
X133350000Y-106680000D03*
X133350000Y-97155000D03*
G04 #@! TO.N,Net-(R8-Pad1)*
X128651000Y-104775000D03*
G04 #@! TO.N,Net-(R9-Pad2)*
X123571000Y-107569000D03*
X123190000Y-96520000D03*
G04 #@! TO.N,Net-(R10-Pad1)*
X125984000Y-104902000D03*
G04 #@! TO.N,Net-(R11-Pad2)*
X121031000Y-107569000D03*
X120650000Y-93345000D03*
X144145000Y-92710000D03*
X144145000Y-88265000D03*
G04 #@! TO.N,Net-(R12-Pad1)*
X123444000Y-104902000D03*
G04 #@! TO.N,Net-(R13-Pad2)*
X118364000Y-107696000D03*
X120015000Y-86360000D03*
G04 #@! TO.N,Net-(R14-Pad1)*
X120904000Y-104902000D03*
G04 #@! TO.N,AI4B*
X139700000Y-106045000D03*
X139065000Y-89535000D03*
X139065000Y-88265000D03*
G04 #@! TO.N,AI3B*
X142240000Y-90805000D03*
X146685000Y-85725000D03*
X149225000Y-85725000D03*
X149225000Y-89535000D03*
X140335000Y-106680000D03*
G04 #@! TO.N,AI1B*
X140970000Y-99695000D03*
X140970000Y-103835200D03*
G04 #@! TO.N,AI2B*
X128905000Y-98425000D03*
X125730000Y-97155000D03*
X128905000Y-101600000D03*
G04 #@! TO.N,CAN1RX*
X171450000Y-74295000D03*
X168275000Y-113030000D03*
X157480000Y-113030000D03*
X150495000Y-112395000D03*
G04 #@! TO.N,CAN1TX*
X172974000Y-76200000D03*
X172974000Y-71882000D03*
X150495000Y-113665000D03*
X156845000Y-113665000D03*
X168910000Y-113665000D03*
G04 #@! TO.N,CAN0RX*
X161290000Y-74295000D03*
X140335000Y-76200000D03*
X142240000Y-102870000D03*
G04 #@! TO.N,CAN0TX*
X163195000Y-76200000D03*
X163195000Y-71755000D03*
X163195000Y-82550000D03*
X140970000Y-82550000D03*
X138430000Y-101600000D03*
G04 #@! TO.N,SW1P*
X149225000Y-114300000D03*
X149225000Y-95250000D03*
G04 #@! TO.N,SW2P*
X147955000Y-104775000D03*
X147955000Y-93472000D03*
G04 #@! TO.N,Net-(C26-Pad1)*
X147320000Y-116840000D03*
X144780000Y-102870000D03*
G04 #@! TO.N,Net-(C27-Pad1)*
X135890000Y-118110000D03*
X135255000Y-106680000D03*
G04 #@! TD*
D25*
G04 #@! TO.N,RST*
X172505001Y-103925001D02*
X173355000Y-104775000D01*
X172085000Y-103505000D02*
X172505001Y-103925001D01*
X172085000Y-93345000D02*
X172085000Y-103505000D01*
X171450000Y-92710000D02*
X172085000Y-93345000D01*
D26*
G04 #@! TO.N,Net-(C10-Pad1)*
X142875000Y-111125000D02*
X142875000Y-104140000D01*
X142875000Y-104140000D02*
X143510000Y-103505000D01*
D27*
G04 #@! TO.N,+5V*
X141988201Y-127871601D02*
X141206601Y-127871601D01*
X142788200Y-128671600D02*
X141988201Y-127871601D01*
X141206601Y-127871601D02*
X141206601Y-127846201D01*
X117475000Y-74295000D02*
X121285000Y-70485000D01*
X117475000Y-122555000D02*
X117475000Y-74295000D01*
X141130401Y-127871601D02*
X139979400Y-126720600D01*
X141206601Y-127871601D02*
X141130401Y-127871601D01*
X139979400Y-126720600D02*
X139979400Y-124686258D01*
X139979400Y-124686258D02*
X139118142Y-123825000D01*
X139118142Y-123825000D02*
X118745000Y-123825000D01*
X118745000Y-123825000D02*
X117475000Y-122555000D01*
D26*
G04 #@! TO.N,Net-(D3-Pad1)*
X148590000Y-64770000D02*
X148590000Y-62230000D01*
G04 #@! TO.N,Net-(D3-Pad4)*
X144780000Y-68834000D02*
X144780000Y-74295000D01*
D25*
G04 #@! TO.N,GPI1*
X152400000Y-125748400D02*
X152483200Y-125831600D01*
X152400000Y-118745000D02*
X152400000Y-125748400D01*
G04 #@! TO.N,GPI2*
X163195000Y-118745000D02*
X163195000Y-122555000D01*
X151130000Y-128639800D02*
X151098200Y-128671600D01*
X151130000Y-122555000D02*
X151130000Y-128639800D01*
G04 #@! TO.N,TDI*
X157480000Y-102870000D02*
X157480000Y-96520000D01*
G04 #@! TO.N,TXD*
X162560000Y-104775000D02*
X151765000Y-104775000D01*
X151765000Y-104775000D02*
X151130000Y-104140000D01*
G04 #@! TO.N,RXD*
X161925000Y-106045000D02*
X151765000Y-106045000D01*
X151765000Y-106045000D02*
X150495000Y-104775000D01*
D26*
G04 #@! TO.N,CAN1L*
X170180000Y-54610000D02*
X170180000Y-50800000D01*
X153670000Y-47045000D02*
X153801200Y-46913800D01*
X153670000Y-50800000D02*
X153670000Y-47045000D01*
X177000001Y-55409999D02*
X177800000Y-54610000D01*
X175805201Y-56604799D02*
X177000001Y-55409999D01*
X175805201Y-68490201D02*
X175805201Y-56604799D01*
X176530000Y-69215000D02*
X175805201Y-68490201D01*
G04 #@! TO.N,CAN0L*
X151130000Y-47012600D02*
X151031200Y-46913800D01*
X151130000Y-53975000D02*
X151130000Y-47012600D01*
X167475001Y-55409999D02*
X168275000Y-54610000D01*
X166280201Y-56604799D02*
X167475001Y-55409999D01*
X166280201Y-68490201D02*
X166280201Y-56604799D01*
X167005000Y-69215000D02*
X166280201Y-68490201D01*
G04 #@! TO.N,CAN0H*
X165100000Y-62865000D02*
X164465000Y-62230000D01*
X165100000Y-66675000D02*
X165100000Y-62865000D01*
X164465000Y-62230000D02*
X164465000Y-59055000D01*
X149860000Y-44287600D02*
X149646200Y-44073800D01*
X165100000Y-66675000D02*
X165100000Y-68580000D01*
X165100000Y-68580000D02*
X165735000Y-69215000D01*
D25*
X149606000Y-44114000D02*
X149646200Y-44073800D01*
X149860000Y-59182000D02*
X149606000Y-58928000D01*
X149606000Y-58928000D02*
X149606000Y-44114000D01*
D26*
G04 #@! TO.N,CAN1H*
X173990000Y-66040000D02*
X174625000Y-66675000D01*
X173990000Y-62230000D02*
X173990000Y-66040000D01*
X173990000Y-62230000D02*
X173990000Y-59055000D01*
X173990000Y-59055000D02*
X173355000Y-58420000D01*
X146685000Y-44265000D02*
X146876200Y-44073800D01*
X175260000Y-67310000D02*
X174625000Y-66675000D01*
X175260000Y-69215000D02*
X175260000Y-67310000D01*
D25*
X146812000Y-44138000D02*
X146876200Y-44073800D01*
X146812000Y-58420000D02*
X146812000Y-44138000D01*
G04 #@! TO.N,AI4H*
X144423306Y-128671600D02*
X145558200Y-128671600D01*
X142508001Y-126756295D02*
X144423306Y-128671600D01*
X142508001Y-122950001D02*
X142508001Y-126756295D01*
X142240000Y-122682000D02*
X142508001Y-122950001D01*
G04 #@! TO.N,AI2H*
X148082000Y-128425400D02*
X148328200Y-128671600D01*
X148082000Y-121412000D02*
X148082000Y-128425400D01*
G04 #@! TO.N,SW2*
X164465000Y-84897974D02*
X164831775Y-84531199D01*
X164465000Y-86360000D02*
X164465000Y-84897974D01*
X164831775Y-84531199D02*
X165368225Y-84531199D01*
X165368225Y-84531199D02*
X165658801Y-84821775D01*
X157769570Y-128671600D02*
X156638200Y-128671600D01*
X157905426Y-128671600D02*
X157769570Y-128671600D01*
X165658801Y-120918225D02*
X157905426Y-128671600D01*
X165658801Y-84821775D02*
X165658801Y-120918225D01*
G04 #@! TO.N,T2*
X154940000Y-125518400D02*
X155253200Y-125831600D01*
X154940000Y-120650000D02*
X154940000Y-125518400D01*
X137795000Y-71120000D02*
X137795000Y-118813610D01*
X137795000Y-118813610D02*
X137160000Y-119448610D01*
G04 #@! TO.N,AI3H*
X146812000Y-125700400D02*
X146943200Y-125831600D01*
X146812000Y-122174000D02*
X146812000Y-125700400D01*
G04 #@! TO.N,AI1H*
X149606000Y-125724400D02*
X149713200Y-125831600D01*
X149606000Y-120650000D02*
X149606000Y-125724400D01*
G04 #@! TO.N,SW1*
X165100000Y-85090000D02*
X165100000Y-103697026D01*
X165100000Y-103697026D02*
X161290000Y-107507026D01*
X161290000Y-122564800D02*
X158023200Y-125831600D01*
X161290000Y-107507026D02*
X161290000Y-122564800D01*
G04 #@! TO.N,T5*
X153670000Y-128473400D02*
X153868200Y-128671600D01*
X153670000Y-116205000D02*
X153670000Y-128473400D01*
X134162801Y-119837199D02*
X134010410Y-119989590D01*
X134162801Y-118349775D02*
X134162801Y-119837199D01*
X131445000Y-71120000D02*
X131445000Y-115631974D01*
X131445000Y-115631974D02*
X134162801Y-118349775D01*
X134010410Y-119989590D02*
X134137390Y-119989590D01*
X134137390Y-119989590D02*
X134162800Y-120015000D01*
D26*
G04 #@! TO.N,Net-(JP1-Pad2)*
X177165000Y-62865000D02*
X177800000Y-62230000D01*
X177165000Y-66675000D02*
X177165000Y-62865000D01*
G04 #@! TO.N,Net-(JP2-Pad2)*
X168275000Y-66040000D02*
X167640000Y-66675000D01*
X168275000Y-62230000D02*
X168275000Y-66040000D01*
D25*
G04 #@! TO.N,LED_R*
X143510000Y-92902026D02*
X143510000Y-63500000D01*
X143726599Y-93118625D02*
X143510000Y-92902026D01*
X143510000Y-110490000D02*
X143510000Y-110130790D01*
X143726599Y-100989573D02*
X143726599Y-93118625D01*
X144043401Y-101306375D02*
X143726599Y-100989573D01*
X144043401Y-109597389D02*
X144043401Y-101306375D01*
X143510000Y-110130790D02*
X144043401Y-109597389D01*
G04 #@! TO.N,LED_G*
X145798401Y-84203401D02*
X145798401Y-110741599D01*
X144780000Y-75565000D02*
X144780000Y-83185000D01*
X144780000Y-83185000D02*
X145798401Y-84203401D01*
X145798401Y-110741599D02*
X146050000Y-110993198D01*
X146050000Y-110993198D02*
X146050000Y-111125000D01*
G04 #@! TO.N,LED_B*
X146812000Y-88646000D02*
X148590000Y-86868000D01*
X146812000Y-110490000D02*
X146812000Y-88646000D01*
X148590000Y-69215000D02*
X148590000Y-86868000D01*
G04 #@! TO.N,SCL*
X152400000Y-76835000D02*
X151688905Y-77546095D01*
X151688905Y-77546095D02*
X151688905Y-103506318D01*
G04 #@! TO.N,SDA*
X127635000Y-76835000D02*
X127635000Y-75401200D01*
X132080000Y-78105000D02*
X132080000Y-73660000D01*
X131916199Y-102071199D02*
X132080000Y-102235000D01*
X131916199Y-78628011D02*
X131916199Y-102071199D01*
X132080000Y-78105000D02*
X132080000Y-78464210D01*
X132080000Y-78464210D02*
X131916199Y-78628011D01*
G04 #@! TO.N,Net-(R7-Pad2)*
X128740001Y-119850001D02*
X129540000Y-120650000D01*
X125857001Y-116967001D02*
X128740001Y-119850001D01*
X125857001Y-107822999D02*
X125857001Y-116967001D01*
X126111000Y-107569000D02*
X125857001Y-107822999D01*
X133350000Y-106680000D02*
X133350000Y-97155000D01*
G04 #@! TO.N,Net-(R8-Pad1)*
X128651000Y-112141000D02*
X129540000Y-113030000D01*
X128651000Y-104775000D02*
X128651000Y-112141000D01*
G04 #@! TO.N,Net-(R9-Pad2)*
X126200001Y-119850001D02*
X127000000Y-120650000D01*
X123317001Y-116967001D02*
X126200001Y-119850001D01*
X123317001Y-107822999D02*
X123317001Y-116967001D01*
X123571000Y-107569000D02*
X123317001Y-107822999D01*
X123190000Y-104328974D02*
X123190000Y-96520000D01*
X122885199Y-104633775D02*
X123190000Y-104328974D01*
X123571000Y-107569000D02*
X122885199Y-106883199D01*
X122885199Y-106883199D02*
X122885199Y-104633775D01*
G04 #@! TO.N,Net-(R10-Pad1)*
X127000000Y-107630974D02*
X127000000Y-113030000D01*
X125984000Y-106614974D02*
X127000000Y-107630974D01*
X125984000Y-104902000D02*
X125984000Y-106614974D01*
G04 #@! TO.N,Net-(R11-Pad2)*
X123660001Y-119850001D02*
X124460000Y-120650000D01*
X120777001Y-116967001D02*
X123660001Y-119850001D01*
X120777001Y-107822999D02*
X120777001Y-116967001D01*
X121031000Y-107569000D02*
X120777001Y-107822999D01*
X120650000Y-104328974D02*
X120650000Y-93345000D01*
X120345199Y-104633775D02*
X120650000Y-104328974D01*
X121031000Y-107569000D02*
X120345199Y-106883199D01*
X120345199Y-106883199D02*
X120345199Y-104633775D01*
X144145000Y-92710000D02*
X144145000Y-88265000D01*
G04 #@! TO.N,Net-(R12-Pad1)*
X124460000Y-106277210D02*
X124460000Y-113030000D01*
X123444000Y-105261210D02*
X124460000Y-106277210D01*
X123444000Y-104902000D02*
X123444000Y-105261210D01*
G04 #@! TO.N,Net-(R13-Pad2)*
X120916800Y-120650000D02*
X121920000Y-120650000D01*
X118364000Y-118097200D02*
X120916800Y-120650000D01*
X118364000Y-107696000D02*
X118364000Y-118097200D01*
X118364000Y-107696000D02*
X118364000Y-88011000D01*
X118364000Y-88011000D02*
X120015000Y-86360000D01*
G04 #@! TO.N,Net-(R14-Pad1)*
X121920000Y-105918000D02*
X121920000Y-113030000D01*
X120904000Y-104902000D02*
X121920000Y-105918000D01*
G04 #@! TO.N,AI4B*
X139700000Y-106045000D02*
X139065000Y-105410000D01*
X139065000Y-105410000D02*
X139065000Y-89535000D01*
X139065000Y-80899000D02*
X141478000Y-78486000D01*
X139065000Y-88265000D02*
X139065000Y-80899000D01*
G04 #@! TO.N,AI3B*
X139700000Y-93345000D02*
X142240000Y-90805000D01*
X146812000Y-78486000D02*
X146812000Y-85598000D01*
X146812000Y-85598000D02*
X146685000Y-85725000D01*
X149225000Y-85725000D02*
X149225000Y-89535000D01*
X140335000Y-106680000D02*
X140335000Y-104775000D01*
X140335000Y-104775000D02*
X139700000Y-104140000D01*
X139700000Y-104140000D02*
X139700000Y-93345000D01*
G04 #@! TO.N,AI1B*
X140970000Y-99695000D02*
X140970000Y-103835200D01*
G04 #@! TO.N,AI2B*
X128905000Y-98425000D02*
X128905000Y-100985601D01*
X125730000Y-97155000D02*
X125730000Y-94615000D01*
X128905000Y-101600000D02*
X128905000Y-101727000D01*
X128905000Y-100985601D02*
X128905000Y-101600000D01*
G04 #@! TO.N,CAN1RX*
X171196000Y-76200000D02*
X171196000Y-74549000D01*
X171196000Y-74549000D02*
X171450000Y-74295000D01*
X170196001Y-77199999D02*
X170196001Y-96503999D01*
X171196000Y-76200000D02*
X170196001Y-77199999D01*
X170196001Y-96503999D02*
X168275000Y-98425000D01*
X168275000Y-98425000D02*
X168275000Y-113030000D01*
X157480000Y-113030000D02*
X151130000Y-113030000D01*
X151130000Y-113030000D02*
X150495000Y-112395000D01*
G04 #@! TO.N,CAN1TX*
X172974000Y-76200000D02*
X172974000Y-71882000D01*
X172974000Y-81754519D02*
X170602411Y-84126108D01*
X172974000Y-76200000D02*
X172974000Y-81754519D01*
X170602411Y-84126108D02*
X170602411Y-97658947D01*
X156845000Y-113665000D02*
X150495000Y-113665000D01*
X170602411Y-97658947D02*
X168910000Y-99351358D01*
X168910000Y-99351358D02*
X168910000Y-113665000D01*
G04 #@! TO.N,CAN0RX*
X161290000Y-76200000D02*
X161290000Y-74295000D01*
X142798801Y-102311199D02*
X142240000Y-102870000D01*
X142798801Y-90536775D02*
X142798801Y-102311199D01*
X140335000Y-76200000D02*
X141123106Y-76200000D01*
X142782801Y-77859695D02*
X142782801Y-79112305D01*
X141123106Y-76200000D02*
X142782801Y-77859695D01*
X142782801Y-79112305D02*
X141971775Y-79923331D01*
X141971775Y-79923331D02*
X141971775Y-89709749D01*
X141971775Y-89709749D02*
X142798801Y-90536775D01*
G04 #@! TO.N,CAN0TX*
X163195000Y-76200000D02*
X163195000Y-71755000D01*
X163195000Y-76200000D02*
X163195000Y-82550000D01*
X138430000Y-89342974D02*
X138430000Y-101600000D01*
X138796775Y-88976199D02*
X138430000Y-89342974D01*
X139333225Y-88976199D02*
X138796775Y-88976199D01*
X140970000Y-82550000D02*
X140970000Y-87339424D01*
X140970000Y-87339424D02*
X139333225Y-88976199D01*
G04 #@! TO.N,SW1P*
X149225000Y-114300000D02*
X149225000Y-95250000D01*
G04 #@! TO.N,SW2P*
X147955000Y-104775000D02*
X147955000Y-93472000D01*
G04 #@! TO.N,Net-(C26-Pad1)*
X144780000Y-113472974D02*
X144780000Y-102870000D01*
X147320000Y-116840000D02*
X147320000Y-116012974D01*
X147320000Y-116012974D02*
X144780000Y-113472974D01*
G04 #@! TO.N,Net-(C27-Pad1)*
X135890000Y-118110000D02*
X135255000Y-117475000D01*
X135255000Y-117475000D02*
X135255000Y-106680000D01*
G04 #@! TD*
M02*
