G04 #@! TF.GenerationSoftware,KiCad,Pcbnew,(5.0.0)*
G04 #@! TF.CreationDate,2018-09-05T15:10:51-04:00*
G04 #@! TF.ProjectId,MDAS_Controller_V2,4D4441535F436F6E74726F6C6C65725F,rev?*
G04 #@! TF.SameCoordinates,Original*
G04 #@! TF.FileFunction,Copper,L3,Inr,Plane*
G04 #@! TF.FilePolarity,Positive*
%FSLAX46Y46*%
G04 Gerber Fmt 4.6, Leading zero omitted, Abs format (unit mm)*
G04 Created by KiCad (PCBNEW (5.0.0)) date 09/05/18 15:10:51*
%MOMM*%
%LPD*%
G01*
G04 APERTURE LIST*
G04 #@! TA.AperFunction,ViaPad*
%ADD10O,2.400000X2.400000*%
G04 #@! TD*
G04 #@! TA.AperFunction,ViaPad*
%ADD11R,2.400000X2.400000*%
G04 #@! TD*
G04 #@! TA.AperFunction,ViaPad*
%ADD12C,4.000000*%
G04 #@! TD*
G04 #@! TA.AperFunction,ViaPad*
%ADD13C,1.600000*%
G04 #@! TD*
G04 #@! TA.AperFunction,ViaPad*
%ADD14R,1.600000X1.600000*%
G04 #@! TD*
G04 #@! TA.AperFunction,ViaPad*
%ADD15O,1.700000X1.700000*%
G04 #@! TD*
G04 #@! TA.AperFunction,ViaPad*
%ADD16R,1.700000X1.700000*%
G04 #@! TD*
G04 #@! TA.AperFunction,ViaPad*
%ADD17C,2.000000*%
G04 #@! TD*
G04 #@! TA.AperFunction,ViaPad*
%ADD18O,1.600000X1.600000*%
G04 #@! TD*
G04 #@! TA.AperFunction,ViaPad*
%ADD19O,2.500000X1.500000*%
G04 #@! TD*
G04 #@! TA.AperFunction,ViaPad*
%ADD20R,2.500000X1.500000*%
G04 #@! TD*
G04 #@! TA.AperFunction,ViaPad*
%ADD21R,1.800000X1.070000*%
G04 #@! TD*
G04 #@! TA.AperFunction,ViaPad*
%ADD22O,1.800000X1.070000*%
G04 #@! TD*
G04 #@! TA.AperFunction,ViaPad*
%ADD23C,6.400000*%
G04 #@! TD*
G04 #@! TA.AperFunction,ViaPad*
%ADD24C,0.508000*%
G04 #@! TD*
G04 #@! TA.AperFunction,Conductor*
%ADD25C,0.254000*%
G04 #@! TD*
G04 APERTURE END LIST*
D10*
G04 #@! TO.N,GND*
G04 #@! TO.C,D2*
X154305000Y-56515000D03*
D11*
G04 #@! TO.N,+12V*
X144145000Y-56515000D03*
G04 #@! TD*
D12*
G04 #@! TO.N,N/C*
G04 #@! TO.C,J3*
X164978200Y-127251600D03*
X131678200Y-127251600D03*
D13*
G04 #@! TO.N,GPI2*
X156638200Y-128671600D03*
G04 #@! TO.N,T5*
X153868200Y-128671600D03*
G04 #@! TO.N,SW2*
X151098200Y-128671600D03*
G04 #@! TO.N,AI2H*
X148328200Y-128671600D03*
G04 #@! TO.N,AI4H*
X145558200Y-128671600D03*
G04 #@! TO.N,+5V*
X142788200Y-128671600D03*
G04 #@! TO.N,GND*
X140018200Y-128671600D03*
G04 #@! TO.N,GPI1*
X158023200Y-125831600D03*
G04 #@! TO.N,T2*
X155253200Y-125831600D03*
G04 #@! TO.N,SW1*
X152483200Y-125831600D03*
G04 #@! TO.N,AI1H*
X149713200Y-125831600D03*
G04 #@! TO.N,AI3H*
X146943200Y-125831600D03*
G04 #@! TO.N,+3V3*
X144173200Y-125831600D03*
G04 #@! TO.N,+12V*
X141403200Y-125831600D03*
D14*
G04 #@! TO.N,GND*
X138633200Y-125831600D03*
G04 #@! TD*
D15*
G04 #@! TO.N,GND*
G04 #@! TO.C,JTAG*
X173355000Y-109855000D03*
X170815000Y-109855000D03*
G04 #@! TO.N,TXD*
X173355000Y-107315000D03*
G04 #@! TO.N,+3V3*
X170815000Y-107315000D03*
G04 #@! TO.N,RXD*
X173355000Y-104775000D03*
G04 #@! TO.N,RST*
X170815000Y-104775000D03*
G04 #@! TO.N,TDI*
X173355000Y-102235000D03*
G04 #@! TO.N,TDO*
X170815000Y-102235000D03*
G04 #@! TO.N,TMS*
X173355000Y-99695000D03*
D16*
G04 #@! TO.N,TCK*
X170815000Y-99695000D03*
G04 #@! TD*
D17*
G04 #@! TO.N,AI4B*
G04 #@! TO.C,AI4B*
X141478000Y-78486000D03*
G04 #@! TD*
D18*
G04 #@! TO.N,CAN0L*
G04 #@! TO.C,R16*
X168275000Y-54610000D03*
D13*
G04 #@! TO.N,Net-(JP2-Pad2)*
X168275000Y-62230000D03*
G04 #@! TD*
D17*
G04 #@! TO.N,CAN0L*
G04 #@! TO.C,CAN0L*
X164465000Y-54610000D03*
G04 #@! TD*
G04 #@! TO.N,CAN0H*
G04 #@! TO.C,CAN0H*
X164465000Y-62230000D03*
G04 #@! TD*
D15*
G04 #@! TO.N,Net-(JP1-Pad2)*
G04 #@! TO.C,JP1*
X177165000Y-66675000D03*
D16*
G04 #@! TO.N,CAN1H*
X174625000Y-66675000D03*
G04 #@! TD*
D15*
G04 #@! TO.N,Net-(JP2-Pad2)*
G04 #@! TO.C,JP2*
X167640000Y-66675000D03*
D16*
G04 #@! TO.N,CAN0H*
X165100000Y-66675000D03*
G04 #@! TD*
D18*
G04 #@! TO.N,CAN1L*
G04 #@! TO.C,R15*
X177800000Y-54610000D03*
D13*
G04 #@! TO.N,Net-(JP1-Pad2)*
X177800000Y-62230000D03*
G04 #@! TD*
D17*
G04 #@! TO.N,GND*
G04 #@! TO.C,RST*
X170665000Y-92075000D03*
G04 #@! TO.N,RST*
X170665000Y-87575000D03*
G04 #@! TO.N,GND*
X177165000Y-92075000D03*
G04 #@! TO.N,RST*
X177165000Y-87575000D03*
G04 #@! TD*
D18*
G04 #@! TO.N,Net-(R14-Pad1)*
G04 #@! TO.C,SW1*
X121920000Y-113030000D03*
G04 #@! TO.N,Net-(R7-Pad2)*
X129540000Y-120650000D03*
G04 #@! TO.N,Net-(R12-Pad1)*
X124460000Y-113030000D03*
G04 #@! TO.N,Net-(R9-Pad2)*
X127000000Y-120650000D03*
G04 #@! TO.N,Net-(R10-Pad1)*
X127000000Y-113030000D03*
G04 #@! TO.N,Net-(R11-Pad2)*
X124460000Y-120650000D03*
G04 #@! TO.N,Net-(R8-Pad1)*
X129540000Y-113030000D03*
D14*
G04 #@! TO.N,Net-(R13-Pad2)*
X121920000Y-120650000D03*
G04 #@! TD*
D17*
G04 #@! TO.N,+12V*
G04 #@! TO.C,+12V*
X139065000Y-56515000D03*
G04 #@! TD*
G04 #@! TO.N,+5V*
G04 #@! TO.C,+5V*
X121920000Y-70485000D03*
G04 #@! TD*
G04 #@! TO.N,+3V3*
G04 #@! TO.C,+3V3*
X135255000Y-82550000D03*
G04 #@! TD*
G04 #@! TO.N,T2*
G04 #@! TO.C,T2*
X168275000Y-116840000D03*
G04 #@! TD*
G04 #@! TO.N,T5*
G04 #@! TO.C,T5*
X174385000Y-116840000D03*
G04 #@! TD*
G04 #@! TO.N,GND*
G04 #@! TO.C,GND*
X121920000Y-77470000D03*
G04 #@! TD*
G04 #@! TO.N,GPI1P*
G04 #@! TO.C,GPI1*
X160655000Y-92075000D03*
G04 #@! TD*
G04 #@! TO.N,GPI2P*
G04 #@! TO.C,GPI2*
X154940000Y-92075000D03*
G04 #@! TD*
G04 #@! TO.N,CAN1H*
G04 #@! TO.C,CAN1H*
X173990000Y-62230000D03*
G04 #@! TD*
G04 #@! TO.N,CAN1L*
G04 #@! TO.C,CAN1L*
X173990000Y-54610000D03*
G04 #@! TD*
G04 #@! TO.N,AI3B*
G04 #@! TO.C,AI3B*
X146812000Y-78486000D03*
G04 #@! TD*
G04 #@! TO.N,AI1B*
G04 #@! TO.C,AI1B*
X125730000Y-99060000D03*
G04 #@! TD*
G04 #@! TO.N,AI2B*
G04 #@! TO.C,AI2B*
X125730000Y-94615000D03*
G04 #@! TD*
D19*
G04 #@! TO.N,+5V*
G04 #@! TO.C,U2*
X127635000Y-60325000D03*
G04 #@! TO.N,GND*
X127635000Y-57785000D03*
D20*
G04 #@! TO.N,+12V*
X127635000Y-55245000D03*
G04 #@! TD*
D21*
G04 #@! TO.N,Net-(D3-Pad1)*
G04 #@! TO.C,D3*
X144780000Y-65024000D03*
D22*
G04 #@! TO.N,+5V*
X144780000Y-66294000D03*
G04 #@! TO.N,Net-(D3-Pad3)*
X144780000Y-67564000D03*
G04 #@! TO.N,Net-(D3-Pad4)*
X144780000Y-68834000D03*
G04 #@! TD*
D23*
G04 #@! TO.N,Net-(MH1-Pad1)*
G04 #@! TO.C,MH1*
X119942620Y-38809940D03*
G04 #@! TD*
G04 #@! TO.N,Net-(MH2-Pad1)*
G04 #@! TO.C,MH2*
X176599840Y-38812480D03*
G04 #@! TD*
G04 #@! TO.N,Net-(MH3-Pad1)*
G04 #@! TO.C,MH3*
X119935000Y-131728200D03*
G04 #@! TD*
G04 #@! TO.N,Net-(MH4-Pad1)*
G04 #@! TO.C,MH4*
X176610000Y-131728200D03*
G04 #@! TD*
D14*
G04 #@! TO.N,CAN1L*
G04 #@! TO.C,J2*
X153801200Y-46913800D03*
D13*
G04 #@! TO.N,CAN0L*
X151031200Y-46913800D03*
G04 #@! TO.N,GND*
X148261200Y-46913800D03*
G04 #@! TO.N,Net-(J2-Pad4)*
X145491200Y-46913800D03*
G04 #@! TO.N,Net-(J2-Pad5)*
X142721200Y-46913800D03*
G04 #@! TO.N,Net-(J2-Pad6)*
X152416200Y-44073800D03*
G04 #@! TO.N,CAN0H*
X149646200Y-44073800D03*
G04 #@! TO.N,CAN1H*
X146876200Y-44073800D03*
G04 #@! TO.N,+12V*
X144106200Y-44073800D03*
D12*
G04 #@! TO.N,N/C*
X160761200Y-45493800D03*
X135761200Y-45493800D03*
G04 #@! TD*
D17*
G04 #@! TO.N,CAN0RX*
G04 #@! TO.C,CAN0RX*
X161290000Y-76200000D03*
G04 #@! TD*
G04 #@! TO.N,CAN0TX*
G04 #@! TO.C,CAN0TX*
X161290000Y-71755000D03*
G04 #@! TD*
G04 #@! TO.N,CAN1RX*
G04 #@! TO.C,CAN1RX*
X170815000Y-76200000D03*
G04 #@! TD*
G04 #@! TO.N,CAN1TX*
G04 #@! TO.C,CAN1TX*
X170815000Y-71755000D03*
G04 #@! TD*
D24*
G04 #@! TO.N,RST*
X165100000Y-107315000D03*
X153670000Y-108141203D03*
G04 #@! TO.N,GND*
X128884534Y-69415466D03*
X135234534Y-69415466D03*
X137795000Y-79375000D03*
X128905000Y-88646000D03*
X137273000Y-90805000D03*
X158051375Y-59753625D03*
X158086632Y-66068368D03*
X158115412Y-72390412D03*
X165735000Y-78105000D03*
X175260000Y-78105000D03*
X168910000Y-83185000D03*
X149860000Y-80645000D03*
X134520600Y-104419400D03*
X136070000Y-109220000D03*
X144760000Y-114935000D03*
X141210000Y-116840000D03*
X143510000Y-99060000D03*
X155128367Y-112064800D03*
X153670000Y-107430000D03*
X154000200Y-98820000D03*
X119380000Y-106045000D03*
X121920000Y-106045000D03*
X124460000Y-106045000D03*
X127000000Y-106045000D03*
X154305000Y-83820000D03*
X160020000Y-83820000D03*
X147260000Y-114240000D03*
X134084000Y-94742000D03*
X146163000Y-84836000D03*
G04 #@! TO.N,+3V3*
X167005000Y-78105000D03*
X176530000Y-78105000D03*
X178435000Y-83185000D03*
X160020000Y-80645000D03*
X134442200Y-103430000D03*
X135890000Y-107930000D03*
X143651000Y-115076000D03*
X145900000Y-99060000D03*
X147475000Y-108430000D03*
X152400000Y-105410000D03*
X135189000Y-87696000D03*
X133299201Y-94742000D03*
X143913928Y-84686072D03*
G04 #@! TO.N,+5V*
X128030000Y-69215000D03*
X134380000Y-69215000D03*
X132080000Y-77927362D03*
X127000000Y-77927362D03*
X128905000Y-89648000D03*
G04 #@! TO.N,GPI1*
X161290000Y-83820000D03*
G04 #@! TO.N,GPI2P*
X153035000Y-90170000D03*
X141605000Y-104140000D03*
G04 #@! TO.N,GPI2*
X156922632Y-93422632D03*
G04 #@! TO.N,TCK*
X156210000Y-95250000D03*
X152400000Y-93980000D03*
X148590000Y-95885000D03*
G04 #@! TO.N,TMS*
X156845000Y-94615000D03*
X152400000Y-90805000D03*
X145415000Y-102235000D03*
G04 #@! TO.N,TDO*
X147320000Y-99695000D03*
G04 #@! TO.N,TDI*
X163830000Y-98425000D03*
X149860000Y-95885000D03*
G04 #@! TO.N,TXD*
X151765000Y-104140000D03*
G04 #@! TO.N,RXD*
X167005000Y-106045000D03*
X151130000Y-104775000D03*
G04 #@! TO.N,AI4H*
X120015000Y-105410000D03*
G04 #@! TO.N,AI2H*
X125095000Y-105410000D03*
G04 #@! TO.N,T2*
X137795000Y-69215000D03*
X179070000Y-69850000D03*
G04 #@! TO.N,AI3H*
X122555000Y-105410000D03*
G04 #@! TO.N,AI1H*
X127635000Y-105410000D03*
G04 #@! TO.N,SW1*
X147955000Y-104140000D03*
G04 #@! TO.N,T5*
X131445000Y-69215000D03*
G04 #@! TO.N,LED_R*
X158115000Y-109220000D03*
X154305000Y-116840000D03*
G04 #@! TO.N,LED_G*
X156845000Y-79375000D03*
X154305000Y-95250000D03*
X152400000Y-97155000D03*
X147320000Y-105410000D03*
G04 #@! TO.N,LED_B*
X155575000Y-79375000D03*
X153670000Y-94615000D03*
X152400000Y-95885000D03*
X146685000Y-111125000D03*
G04 #@! TO.N,SCL*
X130810000Y-76200000D03*
X135079534Y-76200000D03*
G04 #@! TO.N,Net-(R9-Pad2)*
X124460000Y-100965000D03*
X132715000Y-95885000D03*
G04 #@! TO.N,Net-(R11-Pad2)*
X141605000Y-85725000D03*
X144145000Y-88265000D03*
G04 #@! TO.N,Net-(R13-Pad2)*
X120015000Y-100965000D03*
X137160000Y-86995000D03*
G04 #@! TO.N,AI4B*
X137795000Y-99060000D03*
X135890000Y-104775000D03*
X139065000Y-88265000D03*
G04 #@! TO.N,AI3B*
X140335000Y-99695000D03*
X140335000Y-106045000D03*
X143971355Y-89361355D03*
G04 #@! TO.N,AI1B*
X134620000Y-99060000D03*
X136525000Y-102235000D03*
X139700000Y-103505000D03*
G04 #@! TO.N,AI2B*
X132715000Y-98425000D03*
X139065000Y-99060000D03*
G04 #@! TO.N,CAN1TX*
X173990000Y-74295000D03*
G04 #@! TO.N,CAN0RX*
X168910000Y-78740000D03*
X147320000Y-84455000D03*
X143510000Y-95885000D03*
X142240000Y-102870000D03*
G04 #@! TO.N,CAN0TX*
X160020000Y-79375000D03*
X141605000Y-99695000D03*
X164465000Y-74295000D03*
G04 #@! TD*
D25*
G04 #@! TO.N,+12V*
G36*
X146558000Y-42652370D02*
X146063338Y-42857266D01*
X145659666Y-43260938D01*
X145497675Y-43652018D01*
X145360064Y-43319795D01*
X145113945Y-43245661D01*
X144285805Y-44073800D01*
X145113945Y-44901939D01*
X145360064Y-44827805D01*
X145487932Y-44472061D01*
X145659666Y-44886662D01*
X146063338Y-45290334D01*
X146558000Y-45495230D01*
X146558000Y-45951204D01*
X146304062Y-45697266D01*
X145776639Y-45478800D01*
X145205761Y-45478800D01*
X144678338Y-45697266D01*
X144274666Y-46100938D01*
X144106200Y-46507650D01*
X143937734Y-46100938D01*
X143534062Y-45697266D01*
X143006639Y-45478800D01*
X142435761Y-45478800D01*
X141908338Y-45697266D01*
X141504666Y-46100938D01*
X141286200Y-46628361D01*
X141286200Y-47199239D01*
X141504666Y-47726662D01*
X141908338Y-48130334D01*
X142435761Y-48348800D01*
X143006639Y-48348800D01*
X143534062Y-48130334D01*
X143937734Y-47726662D01*
X144106200Y-47319950D01*
X144274666Y-47726662D01*
X144678338Y-48130334D01*
X145205761Y-48348800D01*
X145776639Y-48348800D01*
X146304062Y-48130334D01*
X146558000Y-47876396D01*
X146558000Y-57658000D01*
X145980000Y-57658000D01*
X145980000Y-56800750D01*
X145821250Y-56642000D01*
X144272000Y-56642000D01*
X144272000Y-56662000D01*
X144018000Y-56662000D01*
X144018000Y-56642000D01*
X142468750Y-56642000D01*
X142310000Y-56800750D01*
X142310000Y-57658000D01*
X140276020Y-57658000D01*
X140331814Y-57602206D01*
X140217534Y-57487926D01*
X140484387Y-57389264D01*
X140710908Y-56779539D01*
X140686856Y-56129540D01*
X140484387Y-55640736D01*
X140217532Y-55542073D01*
X139244605Y-56515000D01*
X139258748Y-56529143D01*
X139079143Y-56708748D01*
X139065000Y-56694605D01*
X139050858Y-56708748D01*
X138871253Y-56529143D01*
X138885395Y-56515000D01*
X137912468Y-55542073D01*
X137645613Y-55640736D01*
X137419092Y-56250461D01*
X137443144Y-56900460D01*
X137645613Y-57389264D01*
X137912466Y-57487926D01*
X137798186Y-57602206D01*
X137853980Y-57658000D01*
X129521871Y-57658000D01*
X129439641Y-57244600D01*
X129133529Y-56786471D01*
X128899354Y-56630000D01*
X129011310Y-56630000D01*
X129244699Y-56533327D01*
X129423327Y-56354698D01*
X129520000Y-56121309D01*
X129520000Y-55530750D01*
X129361250Y-55372000D01*
X127762000Y-55372000D01*
X127762000Y-55392000D01*
X127508000Y-55392000D01*
X127508000Y-55372000D01*
X125908750Y-55372000D01*
X125750000Y-55530750D01*
X125750000Y-56121309D01*
X125846673Y-56354698D01*
X126025301Y-56533327D01*
X126258690Y-56630000D01*
X126370646Y-56630000D01*
X126136471Y-56786471D01*
X125830359Y-57244600D01*
X125748129Y-57658000D01*
X115697000Y-57658000D01*
X115697000Y-55362468D01*
X138092073Y-55362468D01*
X139065000Y-56335395D01*
X140037927Y-55362468D01*
X139973677Y-55188690D01*
X142310000Y-55188690D01*
X142310000Y-56229250D01*
X142468750Y-56388000D01*
X144018000Y-56388000D01*
X144018000Y-54838750D01*
X144272000Y-54838750D01*
X144272000Y-56388000D01*
X145821250Y-56388000D01*
X145980000Y-56229250D01*
X145980000Y-55188690D01*
X145883327Y-54955301D01*
X145704698Y-54776673D01*
X145471309Y-54680000D01*
X144430750Y-54680000D01*
X144272000Y-54838750D01*
X144018000Y-54838750D01*
X143859250Y-54680000D01*
X142818691Y-54680000D01*
X142585302Y-54776673D01*
X142406673Y-54955301D01*
X142310000Y-55188690D01*
X139973677Y-55188690D01*
X139939264Y-55095613D01*
X139329539Y-54869092D01*
X138679540Y-54893144D01*
X138190736Y-55095613D01*
X138092073Y-55362468D01*
X115697000Y-55362468D01*
X115697000Y-54368691D01*
X125750000Y-54368691D01*
X125750000Y-54959250D01*
X125908750Y-55118000D01*
X127508000Y-55118000D01*
X127508000Y-54018750D01*
X127762000Y-54018750D01*
X127762000Y-55118000D01*
X129361250Y-55118000D01*
X129520000Y-54959250D01*
X129520000Y-54368691D01*
X129423327Y-54135302D01*
X129244699Y-53956673D01*
X129011310Y-53860000D01*
X127920750Y-53860000D01*
X127762000Y-54018750D01*
X127508000Y-54018750D01*
X127349250Y-53860000D01*
X126258690Y-53860000D01*
X126025301Y-53956673D01*
X125846673Y-54135302D01*
X125750000Y-54368691D01*
X115697000Y-54368691D01*
X115697000Y-44969666D01*
X133126200Y-44969666D01*
X133126200Y-46017934D01*
X133527355Y-46986408D01*
X134268592Y-47727645D01*
X135237066Y-48128800D01*
X136285334Y-48128800D01*
X137253808Y-47727645D01*
X137995045Y-46986408D01*
X138396200Y-46017934D01*
X138396200Y-45081545D01*
X143278061Y-45081545D01*
X143352195Y-45327664D01*
X143889423Y-45520765D01*
X144459654Y-45493578D01*
X144860205Y-45327664D01*
X144934339Y-45081545D01*
X144106200Y-44253405D01*
X143278061Y-45081545D01*
X138396200Y-45081545D01*
X138396200Y-44969666D01*
X137995045Y-44001192D01*
X137850876Y-43857023D01*
X142659235Y-43857023D01*
X142686422Y-44427254D01*
X142852336Y-44827805D01*
X143098455Y-44901939D01*
X143926595Y-44073800D01*
X143098455Y-43245661D01*
X142852336Y-43319795D01*
X142659235Y-43857023D01*
X137850876Y-43857023D01*
X137253808Y-43259955D01*
X136785692Y-43066055D01*
X143278061Y-43066055D01*
X144106200Y-43894195D01*
X144934339Y-43066055D01*
X144860205Y-42819936D01*
X144322977Y-42626835D01*
X143752746Y-42654022D01*
X143352195Y-42819936D01*
X143278061Y-43066055D01*
X136785692Y-43066055D01*
X136285334Y-42858800D01*
X135237066Y-42858800D01*
X134268592Y-43259955D01*
X133527355Y-44001192D01*
X133126200Y-44969666D01*
X115697000Y-44969666D01*
X115697000Y-38047111D01*
X116107620Y-38047111D01*
X116107620Y-39572769D01*
X116691464Y-40982293D01*
X117770267Y-42061096D01*
X119179791Y-42644940D01*
X120705449Y-42644940D01*
X122114973Y-42061096D01*
X123193776Y-40982293D01*
X123777620Y-39572769D01*
X123777620Y-38047111D01*
X123193776Y-36637587D01*
X122114973Y-35558784D01*
X120705449Y-34974940D01*
X119179791Y-34974940D01*
X117770267Y-35558784D01*
X116691464Y-36637587D01*
X116107620Y-38047111D01*
X115697000Y-38047111D01*
X115697000Y-34509780D01*
X146558000Y-34509780D01*
X146558000Y-42652370D01*
X146558000Y-42652370D01*
G37*
X146558000Y-42652370D02*
X146063338Y-42857266D01*
X145659666Y-43260938D01*
X145497675Y-43652018D01*
X145360064Y-43319795D01*
X145113945Y-43245661D01*
X144285805Y-44073800D01*
X145113945Y-44901939D01*
X145360064Y-44827805D01*
X145487932Y-44472061D01*
X145659666Y-44886662D01*
X146063338Y-45290334D01*
X146558000Y-45495230D01*
X146558000Y-45951204D01*
X146304062Y-45697266D01*
X145776639Y-45478800D01*
X145205761Y-45478800D01*
X144678338Y-45697266D01*
X144274666Y-46100938D01*
X144106200Y-46507650D01*
X143937734Y-46100938D01*
X143534062Y-45697266D01*
X143006639Y-45478800D01*
X142435761Y-45478800D01*
X141908338Y-45697266D01*
X141504666Y-46100938D01*
X141286200Y-46628361D01*
X141286200Y-47199239D01*
X141504666Y-47726662D01*
X141908338Y-48130334D01*
X142435761Y-48348800D01*
X143006639Y-48348800D01*
X143534062Y-48130334D01*
X143937734Y-47726662D01*
X144106200Y-47319950D01*
X144274666Y-47726662D01*
X144678338Y-48130334D01*
X145205761Y-48348800D01*
X145776639Y-48348800D01*
X146304062Y-48130334D01*
X146558000Y-47876396D01*
X146558000Y-57658000D01*
X145980000Y-57658000D01*
X145980000Y-56800750D01*
X145821250Y-56642000D01*
X144272000Y-56642000D01*
X144272000Y-56662000D01*
X144018000Y-56662000D01*
X144018000Y-56642000D01*
X142468750Y-56642000D01*
X142310000Y-56800750D01*
X142310000Y-57658000D01*
X140276020Y-57658000D01*
X140331814Y-57602206D01*
X140217534Y-57487926D01*
X140484387Y-57389264D01*
X140710908Y-56779539D01*
X140686856Y-56129540D01*
X140484387Y-55640736D01*
X140217532Y-55542073D01*
X139244605Y-56515000D01*
X139258748Y-56529143D01*
X139079143Y-56708748D01*
X139065000Y-56694605D01*
X139050858Y-56708748D01*
X138871253Y-56529143D01*
X138885395Y-56515000D01*
X137912468Y-55542073D01*
X137645613Y-55640736D01*
X137419092Y-56250461D01*
X137443144Y-56900460D01*
X137645613Y-57389264D01*
X137912466Y-57487926D01*
X137798186Y-57602206D01*
X137853980Y-57658000D01*
X129521871Y-57658000D01*
X129439641Y-57244600D01*
X129133529Y-56786471D01*
X128899354Y-56630000D01*
X129011310Y-56630000D01*
X129244699Y-56533327D01*
X129423327Y-56354698D01*
X129520000Y-56121309D01*
X129520000Y-55530750D01*
X129361250Y-55372000D01*
X127762000Y-55372000D01*
X127762000Y-55392000D01*
X127508000Y-55392000D01*
X127508000Y-55372000D01*
X125908750Y-55372000D01*
X125750000Y-55530750D01*
X125750000Y-56121309D01*
X125846673Y-56354698D01*
X126025301Y-56533327D01*
X126258690Y-56630000D01*
X126370646Y-56630000D01*
X126136471Y-56786471D01*
X125830359Y-57244600D01*
X125748129Y-57658000D01*
X115697000Y-57658000D01*
X115697000Y-55362468D01*
X138092073Y-55362468D01*
X139065000Y-56335395D01*
X140037927Y-55362468D01*
X139973677Y-55188690D01*
X142310000Y-55188690D01*
X142310000Y-56229250D01*
X142468750Y-56388000D01*
X144018000Y-56388000D01*
X144018000Y-54838750D01*
X144272000Y-54838750D01*
X144272000Y-56388000D01*
X145821250Y-56388000D01*
X145980000Y-56229250D01*
X145980000Y-55188690D01*
X145883327Y-54955301D01*
X145704698Y-54776673D01*
X145471309Y-54680000D01*
X144430750Y-54680000D01*
X144272000Y-54838750D01*
X144018000Y-54838750D01*
X143859250Y-54680000D01*
X142818691Y-54680000D01*
X142585302Y-54776673D01*
X142406673Y-54955301D01*
X142310000Y-55188690D01*
X139973677Y-55188690D01*
X139939264Y-55095613D01*
X139329539Y-54869092D01*
X138679540Y-54893144D01*
X138190736Y-55095613D01*
X138092073Y-55362468D01*
X115697000Y-55362468D01*
X115697000Y-54368691D01*
X125750000Y-54368691D01*
X125750000Y-54959250D01*
X125908750Y-55118000D01*
X127508000Y-55118000D01*
X127508000Y-54018750D01*
X127762000Y-54018750D01*
X127762000Y-55118000D01*
X129361250Y-55118000D01*
X129520000Y-54959250D01*
X129520000Y-54368691D01*
X129423327Y-54135302D01*
X129244699Y-53956673D01*
X129011310Y-53860000D01*
X127920750Y-53860000D01*
X127762000Y-54018750D01*
X127508000Y-54018750D01*
X127349250Y-53860000D01*
X126258690Y-53860000D01*
X126025301Y-53956673D01*
X125846673Y-54135302D01*
X125750000Y-54368691D01*
X115697000Y-54368691D01*
X115697000Y-44969666D01*
X133126200Y-44969666D01*
X133126200Y-46017934D01*
X133527355Y-46986408D01*
X134268592Y-47727645D01*
X135237066Y-48128800D01*
X136285334Y-48128800D01*
X137253808Y-47727645D01*
X137995045Y-46986408D01*
X138396200Y-46017934D01*
X138396200Y-45081545D01*
X143278061Y-45081545D01*
X143352195Y-45327664D01*
X143889423Y-45520765D01*
X144459654Y-45493578D01*
X144860205Y-45327664D01*
X144934339Y-45081545D01*
X144106200Y-44253405D01*
X143278061Y-45081545D01*
X138396200Y-45081545D01*
X138396200Y-44969666D01*
X137995045Y-44001192D01*
X137850876Y-43857023D01*
X142659235Y-43857023D01*
X142686422Y-44427254D01*
X142852336Y-44827805D01*
X143098455Y-44901939D01*
X143926595Y-44073800D01*
X143098455Y-43245661D01*
X142852336Y-43319795D01*
X142659235Y-43857023D01*
X137850876Y-43857023D01*
X137253808Y-43259955D01*
X136785692Y-43066055D01*
X143278061Y-43066055D01*
X144106200Y-43894195D01*
X144934339Y-43066055D01*
X144860205Y-42819936D01*
X144322977Y-42626835D01*
X143752746Y-42654022D01*
X143352195Y-42819936D01*
X143278061Y-43066055D01*
X136785692Y-43066055D01*
X136285334Y-42858800D01*
X135237066Y-42858800D01*
X134268592Y-43259955D01*
X133527355Y-44001192D01*
X133126200Y-44969666D01*
X115697000Y-44969666D01*
X115697000Y-38047111D01*
X116107620Y-38047111D01*
X116107620Y-39572769D01*
X116691464Y-40982293D01*
X117770267Y-42061096D01*
X119179791Y-42644940D01*
X120705449Y-42644940D01*
X122114973Y-42061096D01*
X123193776Y-40982293D01*
X123777620Y-39572769D01*
X123777620Y-38047111D01*
X123193776Y-36637587D01*
X122114973Y-35558784D01*
X120705449Y-34974940D01*
X119179791Y-34974940D01*
X117770267Y-35558784D01*
X116691464Y-36637587D01*
X116107620Y-38047111D01*
X115697000Y-38047111D01*
X115697000Y-34509780D01*
X146558000Y-34509780D01*
X146558000Y-42652370D01*
G04 #@! TO.N,+5V*
G36*
X126136471Y-58783529D02*
X126566316Y-59070742D01*
X126487651Y-59094028D01*
X126065855Y-59435460D01*
X125806827Y-59912316D01*
X125792682Y-59983815D01*
X125915344Y-60198000D01*
X127508000Y-60198000D01*
X127508000Y-60178000D01*
X127762000Y-60178000D01*
X127762000Y-60198000D01*
X129354656Y-60198000D01*
X129477318Y-59983815D01*
X129463173Y-59912316D01*
X129204145Y-59435460D01*
X128782349Y-59094028D01*
X128703684Y-59070742D01*
X129133529Y-58783529D01*
X129291573Y-58547000D01*
X146558000Y-58547000D01*
X146558000Y-76851000D01*
X146486778Y-76851000D01*
X145885847Y-77099914D01*
X145425914Y-77559847D01*
X145177000Y-78160778D01*
X145177000Y-78811222D01*
X145425914Y-79412153D01*
X145885847Y-79872086D01*
X145912196Y-79883000D01*
X142377804Y-79883000D01*
X142404153Y-79872086D01*
X142864086Y-79412153D01*
X143113000Y-78811222D01*
X143113000Y-78160778D01*
X142864086Y-77559847D01*
X142404153Y-77099914D01*
X141803222Y-76851000D01*
X141152778Y-76851000D01*
X140551847Y-77099914D01*
X140091914Y-77559847D01*
X139843000Y-78160778D01*
X139843000Y-78811222D01*
X140091914Y-79412153D01*
X140551847Y-79872086D01*
X140578196Y-79883000D01*
X138544236Y-79883000D01*
X138548658Y-79878578D01*
X138684000Y-79551833D01*
X138684000Y-79198167D01*
X138548658Y-78871422D01*
X138298578Y-78621342D01*
X137971833Y-78486000D01*
X137618167Y-78486000D01*
X137291422Y-78621342D01*
X137041342Y-78871422D01*
X136906000Y-79198167D01*
X136906000Y-79551833D01*
X137041342Y-79878578D01*
X137045764Y-79883000D01*
X131445000Y-79883000D01*
X131396399Y-79892667D01*
X131355197Y-79920197D01*
X131327667Y-79961399D01*
X131318000Y-80010000D01*
X131318000Y-90678000D01*
X115697000Y-90678000D01*
X115697000Y-88469167D01*
X128016000Y-88469167D01*
X128016000Y-88822833D01*
X128151342Y-89149578D01*
X128401422Y-89399658D01*
X128728167Y-89535000D01*
X129081833Y-89535000D01*
X129408578Y-89399658D01*
X129658658Y-89149578D01*
X129794000Y-88822833D01*
X129794000Y-88469167D01*
X129658658Y-88142422D01*
X129408578Y-87892342D01*
X129081833Y-87757000D01*
X128728167Y-87757000D01*
X128401422Y-87892342D01*
X128151342Y-88142422D01*
X128016000Y-88469167D01*
X115697000Y-88469167D01*
X115697000Y-77144778D01*
X120285000Y-77144778D01*
X120285000Y-77795222D01*
X120533914Y-78396153D01*
X120993847Y-78856086D01*
X121594778Y-79105000D01*
X122245222Y-79105000D01*
X122846153Y-78856086D01*
X123306086Y-78396153D01*
X123555000Y-77795222D01*
X123555000Y-77144778D01*
X123306086Y-76543847D01*
X122846153Y-76083914D01*
X122699497Y-76023167D01*
X129921000Y-76023167D01*
X129921000Y-76376833D01*
X130056342Y-76703578D01*
X130306422Y-76953658D01*
X130633167Y-77089000D01*
X130986833Y-77089000D01*
X131313578Y-76953658D01*
X131563658Y-76703578D01*
X131699000Y-76376833D01*
X131699000Y-76023167D01*
X134190534Y-76023167D01*
X134190534Y-76376833D01*
X134325876Y-76703578D01*
X134575956Y-76953658D01*
X134902701Y-77089000D01*
X135256367Y-77089000D01*
X135583112Y-76953658D01*
X135833192Y-76703578D01*
X135968534Y-76376833D01*
X135968534Y-76023167D01*
X135833192Y-75696422D01*
X135583112Y-75446342D01*
X135256367Y-75311000D01*
X134902701Y-75311000D01*
X134575956Y-75446342D01*
X134325876Y-75696422D01*
X134190534Y-76023167D01*
X131699000Y-76023167D01*
X131563658Y-75696422D01*
X131313578Y-75446342D01*
X130986833Y-75311000D01*
X130633167Y-75311000D01*
X130306422Y-75446342D01*
X130056342Y-75696422D01*
X129921000Y-76023167D01*
X122699497Y-76023167D01*
X122245222Y-75835000D01*
X121594778Y-75835000D01*
X120993847Y-76083914D01*
X120533914Y-76543847D01*
X120285000Y-77144778D01*
X115697000Y-77144778D01*
X115697000Y-71637532D01*
X120947073Y-71637532D01*
X121045736Y-71904387D01*
X121655461Y-72130908D01*
X122305460Y-72106856D01*
X122794264Y-71904387D01*
X122892927Y-71637532D01*
X121920000Y-70664605D01*
X120947073Y-71637532D01*
X115697000Y-71637532D01*
X115697000Y-70220461D01*
X120274092Y-70220461D01*
X120298144Y-70870460D01*
X120500613Y-71359264D01*
X120767468Y-71457927D01*
X121740395Y-70485000D01*
X122099605Y-70485000D01*
X123072532Y-71457927D01*
X123339387Y-71359264D01*
X123565908Y-70749539D01*
X123541856Y-70099540D01*
X123339387Y-69610736D01*
X123072532Y-69512073D01*
X122099605Y-70485000D01*
X121740395Y-70485000D01*
X120767468Y-69512073D01*
X120500613Y-69610736D01*
X120274092Y-70220461D01*
X115697000Y-70220461D01*
X115697000Y-69332468D01*
X120947073Y-69332468D01*
X121920000Y-70305395D01*
X122892927Y-69332468D01*
X122858234Y-69238633D01*
X127995534Y-69238633D01*
X127995534Y-69592299D01*
X128130876Y-69919044D01*
X128380956Y-70169124D01*
X128707701Y-70304466D01*
X129061367Y-70304466D01*
X129388112Y-70169124D01*
X129638192Y-69919044D01*
X129773534Y-69592299D01*
X129773534Y-69238633D01*
X129690499Y-69038167D01*
X130556000Y-69038167D01*
X130556000Y-69391833D01*
X130691342Y-69718578D01*
X130941422Y-69968658D01*
X131268167Y-70104000D01*
X131621833Y-70104000D01*
X131948578Y-69968658D01*
X132198658Y-69718578D01*
X132334000Y-69391833D01*
X132334000Y-69238633D01*
X134345534Y-69238633D01*
X134345534Y-69592299D01*
X134480876Y-69919044D01*
X134730956Y-70169124D01*
X135057701Y-70304466D01*
X135411367Y-70304466D01*
X135738112Y-70169124D01*
X135988192Y-69919044D01*
X136123534Y-69592299D01*
X136123534Y-69238633D01*
X136040499Y-69038167D01*
X136906000Y-69038167D01*
X136906000Y-69391833D01*
X137041342Y-69718578D01*
X137291422Y-69968658D01*
X137618167Y-70104000D01*
X137971833Y-70104000D01*
X138298578Y-69968658D01*
X138548658Y-69718578D01*
X138684000Y-69391833D01*
X138684000Y-69038167D01*
X138548658Y-68711422D01*
X138298578Y-68461342D01*
X137971833Y-68326000D01*
X137618167Y-68326000D01*
X137291422Y-68461342D01*
X137041342Y-68711422D01*
X136906000Y-69038167D01*
X136040499Y-69038167D01*
X135988192Y-68911888D01*
X135738112Y-68661808D01*
X135411367Y-68526466D01*
X135057701Y-68526466D01*
X134730956Y-68661808D01*
X134480876Y-68911888D01*
X134345534Y-69238633D01*
X132334000Y-69238633D01*
X132334000Y-69038167D01*
X132198658Y-68711422D01*
X131948578Y-68461342D01*
X131621833Y-68326000D01*
X131268167Y-68326000D01*
X130941422Y-68461342D01*
X130691342Y-68711422D01*
X130556000Y-69038167D01*
X129690499Y-69038167D01*
X129638192Y-68911888D01*
X129388112Y-68661808D01*
X129061367Y-68526466D01*
X128707701Y-68526466D01*
X128380956Y-68661808D01*
X128130876Y-68911888D01*
X127995534Y-69238633D01*
X122858234Y-69238633D01*
X122794264Y-69065613D01*
X122184539Y-68839092D01*
X121534540Y-68863144D01*
X121045736Y-69065613D01*
X120947073Y-69332468D01*
X115697000Y-69332468D01*
X115697000Y-67564000D01*
X143222079Y-67564000D01*
X143312885Y-68020511D01*
X143432147Y-68199000D01*
X143312885Y-68377489D01*
X143222079Y-68834000D01*
X143312885Y-69290511D01*
X143571477Y-69677523D01*
X143958489Y-69936115D01*
X144299769Y-70004000D01*
X145260231Y-70004000D01*
X145601511Y-69936115D01*
X145988523Y-69677523D01*
X146247115Y-69290511D01*
X146337921Y-68834000D01*
X146247115Y-68377489D01*
X146127853Y-68199000D01*
X146247115Y-68020511D01*
X146337921Y-67564000D01*
X146247115Y-67107489D01*
X146119066Y-66915849D01*
X146273900Y-66601383D01*
X146148244Y-66421000D01*
X145395969Y-66421000D01*
X145260231Y-66394000D01*
X144299769Y-66394000D01*
X144164031Y-66421000D01*
X143411756Y-66421000D01*
X143286100Y-66601383D01*
X143440934Y-66915849D01*
X143312885Y-67107489D01*
X143222079Y-67564000D01*
X115697000Y-67564000D01*
X115697000Y-64489000D01*
X143232560Y-64489000D01*
X143232560Y-65559000D01*
X143281843Y-65806765D01*
X143335278Y-65886736D01*
X143286100Y-65986617D01*
X143411756Y-66167000D01*
X143681720Y-66167000D01*
X143880000Y-66206440D01*
X145680000Y-66206440D01*
X145878280Y-66167000D01*
X146148244Y-66167000D01*
X146273900Y-65986617D01*
X146224722Y-65886736D01*
X146278157Y-65806765D01*
X146327440Y-65559000D01*
X146327440Y-64489000D01*
X146278157Y-64241235D01*
X146137809Y-64031191D01*
X145927765Y-63890843D01*
X145680000Y-63841560D01*
X143880000Y-63841560D01*
X143632235Y-63890843D01*
X143422191Y-64031191D01*
X143281843Y-64241235D01*
X143232560Y-64489000D01*
X115697000Y-64489000D01*
X115697000Y-60666185D01*
X125792682Y-60666185D01*
X125806827Y-60737684D01*
X126065855Y-61214540D01*
X126487651Y-61555972D01*
X127008000Y-61710000D01*
X127508000Y-61710000D01*
X127508000Y-60452000D01*
X127762000Y-60452000D01*
X127762000Y-61710000D01*
X128262000Y-61710000D01*
X128782349Y-61555972D01*
X129204145Y-61214540D01*
X129463173Y-60737684D01*
X129477318Y-60666185D01*
X129354656Y-60452000D01*
X127762000Y-60452000D01*
X127508000Y-60452000D01*
X125915344Y-60452000D01*
X125792682Y-60666185D01*
X115697000Y-60666185D01*
X115697000Y-58547000D01*
X125978427Y-58547000D01*
X126136471Y-58783529D01*
X126136471Y-58783529D01*
G37*
X126136471Y-58783529D02*
X126566316Y-59070742D01*
X126487651Y-59094028D01*
X126065855Y-59435460D01*
X125806827Y-59912316D01*
X125792682Y-59983815D01*
X125915344Y-60198000D01*
X127508000Y-60198000D01*
X127508000Y-60178000D01*
X127762000Y-60178000D01*
X127762000Y-60198000D01*
X129354656Y-60198000D01*
X129477318Y-59983815D01*
X129463173Y-59912316D01*
X129204145Y-59435460D01*
X128782349Y-59094028D01*
X128703684Y-59070742D01*
X129133529Y-58783529D01*
X129291573Y-58547000D01*
X146558000Y-58547000D01*
X146558000Y-76851000D01*
X146486778Y-76851000D01*
X145885847Y-77099914D01*
X145425914Y-77559847D01*
X145177000Y-78160778D01*
X145177000Y-78811222D01*
X145425914Y-79412153D01*
X145885847Y-79872086D01*
X145912196Y-79883000D01*
X142377804Y-79883000D01*
X142404153Y-79872086D01*
X142864086Y-79412153D01*
X143113000Y-78811222D01*
X143113000Y-78160778D01*
X142864086Y-77559847D01*
X142404153Y-77099914D01*
X141803222Y-76851000D01*
X141152778Y-76851000D01*
X140551847Y-77099914D01*
X140091914Y-77559847D01*
X139843000Y-78160778D01*
X139843000Y-78811222D01*
X140091914Y-79412153D01*
X140551847Y-79872086D01*
X140578196Y-79883000D01*
X138544236Y-79883000D01*
X138548658Y-79878578D01*
X138684000Y-79551833D01*
X138684000Y-79198167D01*
X138548658Y-78871422D01*
X138298578Y-78621342D01*
X137971833Y-78486000D01*
X137618167Y-78486000D01*
X137291422Y-78621342D01*
X137041342Y-78871422D01*
X136906000Y-79198167D01*
X136906000Y-79551833D01*
X137041342Y-79878578D01*
X137045764Y-79883000D01*
X131445000Y-79883000D01*
X131396399Y-79892667D01*
X131355197Y-79920197D01*
X131327667Y-79961399D01*
X131318000Y-80010000D01*
X131318000Y-90678000D01*
X115697000Y-90678000D01*
X115697000Y-88469167D01*
X128016000Y-88469167D01*
X128016000Y-88822833D01*
X128151342Y-89149578D01*
X128401422Y-89399658D01*
X128728167Y-89535000D01*
X129081833Y-89535000D01*
X129408578Y-89399658D01*
X129658658Y-89149578D01*
X129794000Y-88822833D01*
X129794000Y-88469167D01*
X129658658Y-88142422D01*
X129408578Y-87892342D01*
X129081833Y-87757000D01*
X128728167Y-87757000D01*
X128401422Y-87892342D01*
X128151342Y-88142422D01*
X128016000Y-88469167D01*
X115697000Y-88469167D01*
X115697000Y-77144778D01*
X120285000Y-77144778D01*
X120285000Y-77795222D01*
X120533914Y-78396153D01*
X120993847Y-78856086D01*
X121594778Y-79105000D01*
X122245222Y-79105000D01*
X122846153Y-78856086D01*
X123306086Y-78396153D01*
X123555000Y-77795222D01*
X123555000Y-77144778D01*
X123306086Y-76543847D01*
X122846153Y-76083914D01*
X122699497Y-76023167D01*
X129921000Y-76023167D01*
X129921000Y-76376833D01*
X130056342Y-76703578D01*
X130306422Y-76953658D01*
X130633167Y-77089000D01*
X130986833Y-77089000D01*
X131313578Y-76953658D01*
X131563658Y-76703578D01*
X131699000Y-76376833D01*
X131699000Y-76023167D01*
X134190534Y-76023167D01*
X134190534Y-76376833D01*
X134325876Y-76703578D01*
X134575956Y-76953658D01*
X134902701Y-77089000D01*
X135256367Y-77089000D01*
X135583112Y-76953658D01*
X135833192Y-76703578D01*
X135968534Y-76376833D01*
X135968534Y-76023167D01*
X135833192Y-75696422D01*
X135583112Y-75446342D01*
X135256367Y-75311000D01*
X134902701Y-75311000D01*
X134575956Y-75446342D01*
X134325876Y-75696422D01*
X134190534Y-76023167D01*
X131699000Y-76023167D01*
X131563658Y-75696422D01*
X131313578Y-75446342D01*
X130986833Y-75311000D01*
X130633167Y-75311000D01*
X130306422Y-75446342D01*
X130056342Y-75696422D01*
X129921000Y-76023167D01*
X122699497Y-76023167D01*
X122245222Y-75835000D01*
X121594778Y-75835000D01*
X120993847Y-76083914D01*
X120533914Y-76543847D01*
X120285000Y-77144778D01*
X115697000Y-77144778D01*
X115697000Y-71637532D01*
X120947073Y-71637532D01*
X121045736Y-71904387D01*
X121655461Y-72130908D01*
X122305460Y-72106856D01*
X122794264Y-71904387D01*
X122892927Y-71637532D01*
X121920000Y-70664605D01*
X120947073Y-71637532D01*
X115697000Y-71637532D01*
X115697000Y-70220461D01*
X120274092Y-70220461D01*
X120298144Y-70870460D01*
X120500613Y-71359264D01*
X120767468Y-71457927D01*
X121740395Y-70485000D01*
X122099605Y-70485000D01*
X123072532Y-71457927D01*
X123339387Y-71359264D01*
X123565908Y-70749539D01*
X123541856Y-70099540D01*
X123339387Y-69610736D01*
X123072532Y-69512073D01*
X122099605Y-70485000D01*
X121740395Y-70485000D01*
X120767468Y-69512073D01*
X120500613Y-69610736D01*
X120274092Y-70220461D01*
X115697000Y-70220461D01*
X115697000Y-69332468D01*
X120947073Y-69332468D01*
X121920000Y-70305395D01*
X122892927Y-69332468D01*
X122858234Y-69238633D01*
X127995534Y-69238633D01*
X127995534Y-69592299D01*
X128130876Y-69919044D01*
X128380956Y-70169124D01*
X128707701Y-70304466D01*
X129061367Y-70304466D01*
X129388112Y-70169124D01*
X129638192Y-69919044D01*
X129773534Y-69592299D01*
X129773534Y-69238633D01*
X129690499Y-69038167D01*
X130556000Y-69038167D01*
X130556000Y-69391833D01*
X130691342Y-69718578D01*
X130941422Y-69968658D01*
X131268167Y-70104000D01*
X131621833Y-70104000D01*
X131948578Y-69968658D01*
X132198658Y-69718578D01*
X132334000Y-69391833D01*
X132334000Y-69238633D01*
X134345534Y-69238633D01*
X134345534Y-69592299D01*
X134480876Y-69919044D01*
X134730956Y-70169124D01*
X135057701Y-70304466D01*
X135411367Y-70304466D01*
X135738112Y-70169124D01*
X135988192Y-69919044D01*
X136123534Y-69592299D01*
X136123534Y-69238633D01*
X136040499Y-69038167D01*
X136906000Y-69038167D01*
X136906000Y-69391833D01*
X137041342Y-69718578D01*
X137291422Y-69968658D01*
X137618167Y-70104000D01*
X137971833Y-70104000D01*
X138298578Y-69968658D01*
X138548658Y-69718578D01*
X138684000Y-69391833D01*
X138684000Y-69038167D01*
X138548658Y-68711422D01*
X138298578Y-68461342D01*
X137971833Y-68326000D01*
X137618167Y-68326000D01*
X137291422Y-68461342D01*
X137041342Y-68711422D01*
X136906000Y-69038167D01*
X136040499Y-69038167D01*
X135988192Y-68911888D01*
X135738112Y-68661808D01*
X135411367Y-68526466D01*
X135057701Y-68526466D01*
X134730956Y-68661808D01*
X134480876Y-68911888D01*
X134345534Y-69238633D01*
X132334000Y-69238633D01*
X132334000Y-69038167D01*
X132198658Y-68711422D01*
X131948578Y-68461342D01*
X131621833Y-68326000D01*
X131268167Y-68326000D01*
X130941422Y-68461342D01*
X130691342Y-68711422D01*
X130556000Y-69038167D01*
X129690499Y-69038167D01*
X129638192Y-68911888D01*
X129388112Y-68661808D01*
X129061367Y-68526466D01*
X128707701Y-68526466D01*
X128380956Y-68661808D01*
X128130876Y-68911888D01*
X127995534Y-69238633D01*
X122858234Y-69238633D01*
X122794264Y-69065613D01*
X122184539Y-68839092D01*
X121534540Y-68863144D01*
X121045736Y-69065613D01*
X120947073Y-69332468D01*
X115697000Y-69332468D01*
X115697000Y-67564000D01*
X143222079Y-67564000D01*
X143312885Y-68020511D01*
X143432147Y-68199000D01*
X143312885Y-68377489D01*
X143222079Y-68834000D01*
X143312885Y-69290511D01*
X143571477Y-69677523D01*
X143958489Y-69936115D01*
X144299769Y-70004000D01*
X145260231Y-70004000D01*
X145601511Y-69936115D01*
X145988523Y-69677523D01*
X146247115Y-69290511D01*
X146337921Y-68834000D01*
X146247115Y-68377489D01*
X146127853Y-68199000D01*
X146247115Y-68020511D01*
X146337921Y-67564000D01*
X146247115Y-67107489D01*
X146119066Y-66915849D01*
X146273900Y-66601383D01*
X146148244Y-66421000D01*
X145395969Y-66421000D01*
X145260231Y-66394000D01*
X144299769Y-66394000D01*
X144164031Y-66421000D01*
X143411756Y-66421000D01*
X143286100Y-66601383D01*
X143440934Y-66915849D01*
X143312885Y-67107489D01*
X143222079Y-67564000D01*
X115697000Y-67564000D01*
X115697000Y-64489000D01*
X143232560Y-64489000D01*
X143232560Y-65559000D01*
X143281843Y-65806765D01*
X143335278Y-65886736D01*
X143286100Y-65986617D01*
X143411756Y-66167000D01*
X143681720Y-66167000D01*
X143880000Y-66206440D01*
X145680000Y-66206440D01*
X145878280Y-66167000D01*
X146148244Y-66167000D01*
X146273900Y-65986617D01*
X146224722Y-65886736D01*
X146278157Y-65806765D01*
X146327440Y-65559000D01*
X146327440Y-64489000D01*
X146278157Y-64241235D01*
X146137809Y-64031191D01*
X145927765Y-63890843D01*
X145680000Y-63841560D01*
X143880000Y-63841560D01*
X143632235Y-63890843D01*
X143422191Y-64031191D01*
X143281843Y-64241235D01*
X143232560Y-64489000D01*
X115697000Y-64489000D01*
X115697000Y-60666185D01*
X125792682Y-60666185D01*
X125806827Y-60737684D01*
X126065855Y-61214540D01*
X126487651Y-61555972D01*
X127008000Y-61710000D01*
X127508000Y-61710000D01*
X127508000Y-60452000D01*
X127762000Y-60452000D01*
X127762000Y-61710000D01*
X128262000Y-61710000D01*
X128782349Y-61555972D01*
X129204145Y-61214540D01*
X129463173Y-60737684D01*
X129477318Y-60666185D01*
X129354656Y-60452000D01*
X127762000Y-60452000D01*
X127508000Y-60452000D01*
X125915344Y-60452000D01*
X125792682Y-60666185D01*
X115697000Y-60666185D01*
X115697000Y-58547000D01*
X125978427Y-58547000D01*
X126136471Y-58783529D01*
G04 #@! TO.N,+3V3*
G36*
X180848000Y-135763000D02*
X115697000Y-135763000D01*
X115697000Y-130965371D01*
X116100000Y-130965371D01*
X116100000Y-132491029D01*
X116683844Y-133900553D01*
X117762647Y-134979356D01*
X119172171Y-135563200D01*
X120697829Y-135563200D01*
X122107353Y-134979356D01*
X123186156Y-133900553D01*
X123770000Y-132491029D01*
X123770000Y-130965371D01*
X172775000Y-130965371D01*
X172775000Y-132491029D01*
X173358844Y-133900553D01*
X174437647Y-134979356D01*
X175847171Y-135563200D01*
X177372829Y-135563200D01*
X178782353Y-134979356D01*
X179861156Y-133900553D01*
X180445000Y-132491029D01*
X180445000Y-130965371D01*
X179861156Y-129555847D01*
X178782353Y-128477044D01*
X177372829Y-127893200D01*
X175847171Y-127893200D01*
X174437647Y-128477044D01*
X173358844Y-129555847D01*
X172775000Y-130965371D01*
X123770000Y-130965371D01*
X123186156Y-129555847D01*
X122107353Y-128477044D01*
X120697829Y-127893200D01*
X119172171Y-127893200D01*
X117762647Y-128477044D01*
X116683844Y-129555847D01*
X116100000Y-130965371D01*
X115697000Y-130965371D01*
X115697000Y-126727466D01*
X129043200Y-126727466D01*
X129043200Y-127775734D01*
X129444355Y-128744208D01*
X130185592Y-129485445D01*
X131154066Y-129886600D01*
X132202334Y-129886600D01*
X133170808Y-129485445D01*
X133912045Y-128744208D01*
X134060352Y-128386161D01*
X138583200Y-128386161D01*
X138583200Y-128957039D01*
X138801666Y-129484462D01*
X139205338Y-129888134D01*
X139732761Y-130106600D01*
X140303639Y-130106600D01*
X140831062Y-129888134D01*
X141234734Y-129484462D01*
X141403200Y-129077750D01*
X141571666Y-129484462D01*
X141975338Y-129888134D01*
X142502761Y-130106600D01*
X143073639Y-130106600D01*
X143601062Y-129888134D01*
X144004734Y-129484462D01*
X144173200Y-129077750D01*
X144341666Y-129484462D01*
X144745338Y-129888134D01*
X145272761Y-130106600D01*
X145843639Y-130106600D01*
X146371062Y-129888134D01*
X146774734Y-129484462D01*
X146943200Y-129077750D01*
X147111666Y-129484462D01*
X147515338Y-129888134D01*
X148042761Y-130106600D01*
X148613639Y-130106600D01*
X149141062Y-129888134D01*
X149544734Y-129484462D01*
X149713200Y-129077750D01*
X149881666Y-129484462D01*
X150285338Y-129888134D01*
X150812761Y-130106600D01*
X151383639Y-130106600D01*
X151911062Y-129888134D01*
X152314734Y-129484462D01*
X152483200Y-129077750D01*
X152651666Y-129484462D01*
X153055338Y-129888134D01*
X153582761Y-130106600D01*
X154153639Y-130106600D01*
X154681062Y-129888134D01*
X155084734Y-129484462D01*
X155253200Y-129077750D01*
X155421666Y-129484462D01*
X155825338Y-129888134D01*
X156352761Y-130106600D01*
X156923639Y-130106600D01*
X157451062Y-129888134D01*
X157854734Y-129484462D01*
X158073200Y-128957039D01*
X158073200Y-128386161D01*
X157854734Y-127858738D01*
X157451062Y-127455066D01*
X156923639Y-127236600D01*
X156352761Y-127236600D01*
X155825338Y-127455066D01*
X155421666Y-127858738D01*
X155253200Y-128265450D01*
X155084734Y-127858738D01*
X154681062Y-127455066D01*
X154153639Y-127236600D01*
X153582761Y-127236600D01*
X153055338Y-127455066D01*
X152651666Y-127858738D01*
X152483200Y-128265450D01*
X152314734Y-127858738D01*
X151911062Y-127455066D01*
X151383639Y-127236600D01*
X150812761Y-127236600D01*
X150285338Y-127455066D01*
X149881666Y-127858738D01*
X149713200Y-128265450D01*
X149544734Y-127858738D01*
X149141062Y-127455066D01*
X148613639Y-127236600D01*
X148042761Y-127236600D01*
X147515338Y-127455066D01*
X147111666Y-127858738D01*
X146943200Y-128265450D01*
X146774734Y-127858738D01*
X146371062Y-127455066D01*
X145843639Y-127236600D01*
X145272761Y-127236600D01*
X144745338Y-127455066D01*
X144341666Y-127858738D01*
X144173200Y-128265450D01*
X144004734Y-127858738D01*
X143601062Y-127455066D01*
X143073639Y-127236600D01*
X142502761Y-127236600D01*
X141975338Y-127455066D01*
X141571666Y-127858738D01*
X141403200Y-128265450D01*
X141234734Y-127858738D01*
X140831062Y-127455066D01*
X140303639Y-127236600D01*
X139732761Y-127236600D01*
X139205338Y-127455066D01*
X138801666Y-127858738D01*
X138583200Y-128386161D01*
X134060352Y-128386161D01*
X134313200Y-127775734D01*
X134313200Y-126727466D01*
X133912045Y-125758992D01*
X133184653Y-125031600D01*
X137185760Y-125031600D01*
X137185760Y-126631600D01*
X137235043Y-126879365D01*
X137375391Y-127089409D01*
X137585435Y-127229757D01*
X137833200Y-127279040D01*
X139433200Y-127279040D01*
X139680965Y-127229757D01*
X139891009Y-127089409D01*
X140031357Y-126879365D01*
X140080640Y-126631600D01*
X140080640Y-126388493D01*
X140186666Y-126644462D01*
X140590338Y-127048134D01*
X141117761Y-127266600D01*
X141688639Y-127266600D01*
X142216062Y-127048134D01*
X142424851Y-126839345D01*
X143345061Y-126839345D01*
X143419195Y-127085464D01*
X143956423Y-127278565D01*
X144526654Y-127251378D01*
X144927205Y-127085464D01*
X145001339Y-126839345D01*
X144173200Y-126011205D01*
X143345061Y-126839345D01*
X142424851Y-126839345D01*
X142619734Y-126644462D01*
X142781725Y-126253382D01*
X142919336Y-126585605D01*
X143165455Y-126659739D01*
X143993595Y-125831600D01*
X144352805Y-125831600D01*
X145180945Y-126659739D01*
X145427064Y-126585605D01*
X145554932Y-126229861D01*
X145726666Y-126644462D01*
X146130338Y-127048134D01*
X146657761Y-127266600D01*
X147228639Y-127266600D01*
X147756062Y-127048134D01*
X148159734Y-126644462D01*
X148328200Y-126237750D01*
X148496666Y-126644462D01*
X148900338Y-127048134D01*
X149427761Y-127266600D01*
X149998639Y-127266600D01*
X150526062Y-127048134D01*
X150929734Y-126644462D01*
X151098200Y-126237750D01*
X151266666Y-126644462D01*
X151670338Y-127048134D01*
X152197761Y-127266600D01*
X152768639Y-127266600D01*
X153296062Y-127048134D01*
X153699734Y-126644462D01*
X153868200Y-126237750D01*
X154036666Y-126644462D01*
X154440338Y-127048134D01*
X154967761Y-127266600D01*
X155538639Y-127266600D01*
X156066062Y-127048134D01*
X156469734Y-126644462D01*
X156638200Y-126237750D01*
X156806666Y-126644462D01*
X157210338Y-127048134D01*
X157737761Y-127266600D01*
X158308639Y-127266600D01*
X158836062Y-127048134D01*
X159156730Y-126727466D01*
X162343200Y-126727466D01*
X162343200Y-127775734D01*
X162744355Y-128744208D01*
X163485592Y-129485445D01*
X164454066Y-129886600D01*
X165502334Y-129886600D01*
X166470808Y-129485445D01*
X167212045Y-128744208D01*
X167613200Y-127775734D01*
X167613200Y-126727466D01*
X167212045Y-125758992D01*
X166470808Y-125017755D01*
X165502334Y-124616600D01*
X164454066Y-124616600D01*
X163485592Y-125017755D01*
X162744355Y-125758992D01*
X162343200Y-126727466D01*
X159156730Y-126727466D01*
X159239734Y-126644462D01*
X159458200Y-126117039D01*
X159458200Y-125546161D01*
X159239734Y-125018738D01*
X158836062Y-124615066D01*
X158308639Y-124396600D01*
X157737761Y-124396600D01*
X157210338Y-124615066D01*
X156806666Y-125018738D01*
X156638200Y-125425450D01*
X156469734Y-125018738D01*
X156066062Y-124615066D01*
X155538639Y-124396600D01*
X154967761Y-124396600D01*
X154440338Y-124615066D01*
X154036666Y-125018738D01*
X153868200Y-125425450D01*
X153699734Y-125018738D01*
X153296062Y-124615066D01*
X152768639Y-124396600D01*
X152197761Y-124396600D01*
X151670338Y-124615066D01*
X151266666Y-125018738D01*
X151098200Y-125425450D01*
X150929734Y-125018738D01*
X150526062Y-124615066D01*
X149998639Y-124396600D01*
X149427761Y-124396600D01*
X148900338Y-124615066D01*
X148496666Y-125018738D01*
X148328200Y-125425450D01*
X148159734Y-125018738D01*
X147756062Y-124615066D01*
X147228639Y-124396600D01*
X146657761Y-124396600D01*
X146130338Y-124615066D01*
X145726666Y-125018738D01*
X145564675Y-125409818D01*
X145427064Y-125077595D01*
X145180945Y-125003461D01*
X144352805Y-125831600D01*
X143993595Y-125831600D01*
X143165455Y-125003461D01*
X142919336Y-125077595D01*
X142791468Y-125433339D01*
X142619734Y-125018738D01*
X142424851Y-124823855D01*
X143345061Y-124823855D01*
X144173200Y-125651995D01*
X145001339Y-124823855D01*
X144927205Y-124577736D01*
X144389977Y-124384635D01*
X143819746Y-124411822D01*
X143419195Y-124577736D01*
X143345061Y-124823855D01*
X142424851Y-124823855D01*
X142216062Y-124615066D01*
X141688639Y-124396600D01*
X141117761Y-124396600D01*
X140590338Y-124615066D01*
X140186666Y-125018738D01*
X140080640Y-125274707D01*
X140080640Y-125031600D01*
X140031357Y-124783835D01*
X139891009Y-124573791D01*
X139680965Y-124433443D01*
X139433200Y-124384160D01*
X137833200Y-124384160D01*
X137585435Y-124433443D01*
X137375391Y-124573791D01*
X137235043Y-124783835D01*
X137185760Y-125031600D01*
X133184653Y-125031600D01*
X133170808Y-125017755D01*
X132202334Y-124616600D01*
X131154066Y-124616600D01*
X130185592Y-125017755D01*
X129444355Y-125758992D01*
X129043200Y-126727466D01*
X115697000Y-126727466D01*
X115697000Y-119850000D01*
X120472560Y-119850000D01*
X120472560Y-121450000D01*
X120521843Y-121697765D01*
X120662191Y-121907809D01*
X120872235Y-122048157D01*
X121120000Y-122097440D01*
X122720000Y-122097440D01*
X122967765Y-122048157D01*
X123177809Y-121907809D01*
X123318157Y-121697765D01*
X123344785Y-121563894D01*
X123425423Y-121684577D01*
X123900091Y-122001740D01*
X124318667Y-122085000D01*
X124601333Y-122085000D01*
X125019909Y-122001740D01*
X125494577Y-121684577D01*
X125730000Y-121332242D01*
X125965423Y-121684577D01*
X126440091Y-122001740D01*
X126858667Y-122085000D01*
X127141333Y-122085000D01*
X127559909Y-122001740D01*
X128034577Y-121684577D01*
X128270000Y-121332242D01*
X128505423Y-121684577D01*
X128980091Y-122001740D01*
X129398667Y-122085000D01*
X129681333Y-122085000D01*
X130099909Y-122001740D01*
X130574577Y-121684577D01*
X130891740Y-121209909D01*
X131003113Y-120650000D01*
X130891740Y-120090091D01*
X130574577Y-119615423D01*
X130099909Y-119298260D01*
X129681333Y-119215000D01*
X129398667Y-119215000D01*
X128980091Y-119298260D01*
X128505423Y-119615423D01*
X128270000Y-119967758D01*
X128034577Y-119615423D01*
X127559909Y-119298260D01*
X127141333Y-119215000D01*
X126858667Y-119215000D01*
X126440091Y-119298260D01*
X125965423Y-119615423D01*
X125730000Y-119967758D01*
X125494577Y-119615423D01*
X125019909Y-119298260D01*
X124601333Y-119215000D01*
X124318667Y-119215000D01*
X123900091Y-119298260D01*
X123425423Y-119615423D01*
X123344785Y-119736106D01*
X123318157Y-119602235D01*
X123177809Y-119392191D01*
X122967765Y-119251843D01*
X122720000Y-119202560D01*
X121120000Y-119202560D01*
X120872235Y-119251843D01*
X120662191Y-119392191D01*
X120521843Y-119602235D01*
X120472560Y-119850000D01*
X115697000Y-119850000D01*
X115697000Y-116663167D01*
X140321000Y-116663167D01*
X140321000Y-117016833D01*
X140456342Y-117343578D01*
X140706422Y-117593658D01*
X141033167Y-117729000D01*
X141386833Y-117729000D01*
X141713578Y-117593658D01*
X141963658Y-117343578D01*
X142099000Y-117016833D01*
X142099000Y-116663167D01*
X153416000Y-116663167D01*
X153416000Y-117016833D01*
X153551342Y-117343578D01*
X153801422Y-117593658D01*
X154128167Y-117729000D01*
X154481833Y-117729000D01*
X154808578Y-117593658D01*
X155058658Y-117343578D01*
X155194000Y-117016833D01*
X155194000Y-116663167D01*
X155132536Y-116514778D01*
X166640000Y-116514778D01*
X166640000Y-117165222D01*
X166888914Y-117766153D01*
X167348847Y-118226086D01*
X167949778Y-118475000D01*
X168600222Y-118475000D01*
X169201153Y-118226086D01*
X169661086Y-117766153D01*
X169910000Y-117165222D01*
X169910000Y-116514778D01*
X172750000Y-116514778D01*
X172750000Y-117165222D01*
X172998914Y-117766153D01*
X173458847Y-118226086D01*
X174059778Y-118475000D01*
X174710222Y-118475000D01*
X175311153Y-118226086D01*
X175771086Y-117766153D01*
X176020000Y-117165222D01*
X176020000Y-116514778D01*
X175771086Y-115913847D01*
X175311153Y-115453914D01*
X174710222Y-115205000D01*
X174059778Y-115205000D01*
X173458847Y-115453914D01*
X172998914Y-115913847D01*
X172750000Y-116514778D01*
X169910000Y-116514778D01*
X169661086Y-115913847D01*
X169201153Y-115453914D01*
X168600222Y-115205000D01*
X167949778Y-115205000D01*
X167348847Y-115453914D01*
X166888914Y-115913847D01*
X166640000Y-116514778D01*
X155132536Y-116514778D01*
X155058658Y-116336422D01*
X154808578Y-116086342D01*
X154481833Y-115951000D01*
X154128167Y-115951000D01*
X153801422Y-116086342D01*
X153551342Y-116336422D01*
X153416000Y-116663167D01*
X142099000Y-116663167D01*
X141963658Y-116336422D01*
X141713578Y-116086342D01*
X141386833Y-115951000D01*
X141033167Y-115951000D01*
X140706422Y-116086342D01*
X140456342Y-116336422D01*
X140321000Y-116663167D01*
X115697000Y-116663167D01*
X115697000Y-114758167D01*
X143871000Y-114758167D01*
X143871000Y-115111833D01*
X144006342Y-115438578D01*
X144256422Y-115688658D01*
X144583167Y-115824000D01*
X144936833Y-115824000D01*
X145263578Y-115688658D01*
X145513658Y-115438578D01*
X145649000Y-115111833D01*
X145649000Y-114758167D01*
X145513658Y-114431422D01*
X145263578Y-114181342D01*
X144978278Y-114063167D01*
X146371000Y-114063167D01*
X146371000Y-114416833D01*
X146506342Y-114743578D01*
X146756422Y-114993658D01*
X147083167Y-115129000D01*
X147436833Y-115129000D01*
X147763578Y-114993658D01*
X148013658Y-114743578D01*
X148149000Y-114416833D01*
X148149000Y-114063167D01*
X148013658Y-113736422D01*
X147763578Y-113486342D01*
X147436833Y-113351000D01*
X147083167Y-113351000D01*
X146756422Y-113486342D01*
X146506342Y-113736422D01*
X146371000Y-114063167D01*
X144978278Y-114063167D01*
X144936833Y-114046000D01*
X144583167Y-114046000D01*
X144256422Y-114181342D01*
X144006342Y-114431422D01*
X143871000Y-114758167D01*
X115697000Y-114758167D01*
X115697000Y-113030000D01*
X120456887Y-113030000D01*
X120568260Y-113589909D01*
X120885423Y-114064577D01*
X121360091Y-114381740D01*
X121778667Y-114465000D01*
X122061333Y-114465000D01*
X122479909Y-114381740D01*
X122954577Y-114064577D01*
X123190000Y-113712242D01*
X123425423Y-114064577D01*
X123900091Y-114381740D01*
X124318667Y-114465000D01*
X124601333Y-114465000D01*
X125019909Y-114381740D01*
X125494577Y-114064577D01*
X125730000Y-113712242D01*
X125965423Y-114064577D01*
X126440091Y-114381740D01*
X126858667Y-114465000D01*
X127141333Y-114465000D01*
X127559909Y-114381740D01*
X128034577Y-114064577D01*
X128270000Y-113712242D01*
X128505423Y-114064577D01*
X128980091Y-114381740D01*
X129398667Y-114465000D01*
X129681333Y-114465000D01*
X130099909Y-114381740D01*
X130574577Y-114064577D01*
X130891740Y-113589909D01*
X131003113Y-113030000D01*
X130891740Y-112470091D01*
X130574577Y-111995423D01*
X130099909Y-111678260D01*
X129681333Y-111595000D01*
X129398667Y-111595000D01*
X128980091Y-111678260D01*
X128505423Y-111995423D01*
X128270000Y-112347758D01*
X128034577Y-111995423D01*
X127559909Y-111678260D01*
X127141333Y-111595000D01*
X126858667Y-111595000D01*
X126440091Y-111678260D01*
X125965423Y-111995423D01*
X125730000Y-112347758D01*
X125494577Y-111995423D01*
X125019909Y-111678260D01*
X124601333Y-111595000D01*
X124318667Y-111595000D01*
X123900091Y-111678260D01*
X123425423Y-111995423D01*
X123190000Y-112347758D01*
X122954577Y-111995423D01*
X122479909Y-111678260D01*
X122061333Y-111595000D01*
X121778667Y-111595000D01*
X121360091Y-111678260D01*
X120885423Y-111995423D01*
X120568260Y-112470091D01*
X120456887Y-113030000D01*
X115697000Y-113030000D01*
X115697000Y-110948167D01*
X145796000Y-110948167D01*
X145796000Y-111301833D01*
X145931342Y-111628578D01*
X146181422Y-111878658D01*
X146508167Y-112014000D01*
X146861833Y-112014000D01*
X147166104Y-111887967D01*
X154239367Y-111887967D01*
X154239367Y-112241633D01*
X154374709Y-112568378D01*
X154624789Y-112818458D01*
X154951534Y-112953800D01*
X155305200Y-112953800D01*
X155631945Y-112818458D01*
X155882025Y-112568378D01*
X156017367Y-112241633D01*
X156017367Y-111887967D01*
X155882025Y-111561222D01*
X155631945Y-111311142D01*
X155305200Y-111175800D01*
X154951534Y-111175800D01*
X154624789Y-111311142D01*
X154374709Y-111561222D01*
X154239367Y-111887967D01*
X147166104Y-111887967D01*
X147188578Y-111878658D01*
X147438658Y-111628578D01*
X147574000Y-111301833D01*
X147574000Y-110948167D01*
X147438658Y-110621422D01*
X147188578Y-110371342D01*
X146861833Y-110236000D01*
X146508167Y-110236000D01*
X146181422Y-110371342D01*
X145931342Y-110621422D01*
X145796000Y-110948167D01*
X115697000Y-110948167D01*
X115697000Y-109043167D01*
X135181000Y-109043167D01*
X135181000Y-109396833D01*
X135316342Y-109723578D01*
X135566422Y-109973658D01*
X135893167Y-110109000D01*
X136246833Y-110109000D01*
X136573578Y-109973658D01*
X136823658Y-109723578D01*
X136959000Y-109396833D01*
X136959000Y-109043167D01*
X157226000Y-109043167D01*
X157226000Y-109396833D01*
X157361342Y-109723578D01*
X157611422Y-109973658D01*
X157938167Y-110109000D01*
X158291833Y-110109000D01*
X158618578Y-109973658D01*
X158868658Y-109723578D01*
X159004000Y-109396833D01*
X159004000Y-109043167D01*
X158868658Y-108716422D01*
X158618578Y-108466342D01*
X158291833Y-108331000D01*
X157938167Y-108331000D01*
X157611422Y-108466342D01*
X157361342Y-108716422D01*
X157226000Y-109043167D01*
X136959000Y-109043167D01*
X136823658Y-108716422D01*
X136573578Y-108466342D01*
X136246833Y-108331000D01*
X135893167Y-108331000D01*
X135566422Y-108466342D01*
X135316342Y-108716422D01*
X135181000Y-109043167D01*
X115697000Y-109043167D01*
X115697000Y-107253167D01*
X152781000Y-107253167D01*
X152781000Y-107606833D01*
X152855048Y-107785602D01*
X152781000Y-107964370D01*
X152781000Y-108318036D01*
X152916342Y-108644781D01*
X153166422Y-108894861D01*
X153493167Y-109030203D01*
X153846833Y-109030203D01*
X154173578Y-108894861D01*
X154423658Y-108644781D01*
X154559000Y-108318036D01*
X154559000Y-107964370D01*
X154484952Y-107785602D01*
X154559000Y-107606833D01*
X154559000Y-107253167D01*
X154511366Y-107138167D01*
X164211000Y-107138167D01*
X164211000Y-107491833D01*
X164346342Y-107818578D01*
X164596422Y-108068658D01*
X164923167Y-108204000D01*
X165276833Y-108204000D01*
X165603578Y-108068658D01*
X165853658Y-107818578D01*
X165989000Y-107491833D01*
X165989000Y-107138167D01*
X165853658Y-106811422D01*
X165603578Y-106561342D01*
X165276833Y-106426000D01*
X164923167Y-106426000D01*
X164596422Y-106561342D01*
X164346342Y-106811422D01*
X164211000Y-107138167D01*
X154511366Y-107138167D01*
X154423658Y-106926422D01*
X154173578Y-106676342D01*
X153846833Y-106541000D01*
X153493167Y-106541000D01*
X153166422Y-106676342D01*
X152916342Y-106926422D01*
X152781000Y-107253167D01*
X115697000Y-107253167D01*
X115697000Y-105868167D01*
X118491000Y-105868167D01*
X118491000Y-106221833D01*
X118626342Y-106548578D01*
X118876422Y-106798658D01*
X119203167Y-106934000D01*
X119556833Y-106934000D01*
X119883578Y-106798658D01*
X120133658Y-106548578D01*
X120246398Y-106276398D01*
X120518578Y-106163658D01*
X120768658Y-105913578D01*
X120787467Y-105868167D01*
X121031000Y-105868167D01*
X121031000Y-106221833D01*
X121166342Y-106548578D01*
X121416422Y-106798658D01*
X121743167Y-106934000D01*
X122096833Y-106934000D01*
X122423578Y-106798658D01*
X122673658Y-106548578D01*
X122786398Y-106276398D01*
X123058578Y-106163658D01*
X123308658Y-105913578D01*
X123327467Y-105868167D01*
X123571000Y-105868167D01*
X123571000Y-106221833D01*
X123706342Y-106548578D01*
X123956422Y-106798658D01*
X124283167Y-106934000D01*
X124636833Y-106934000D01*
X124963578Y-106798658D01*
X125213658Y-106548578D01*
X125326398Y-106276398D01*
X125598578Y-106163658D01*
X125848658Y-105913578D01*
X125867467Y-105868167D01*
X126111000Y-105868167D01*
X126111000Y-106221833D01*
X126246342Y-106548578D01*
X126496422Y-106798658D01*
X126823167Y-106934000D01*
X127176833Y-106934000D01*
X127503578Y-106798658D01*
X127753658Y-106548578D01*
X127866398Y-106276398D01*
X128138578Y-106163658D01*
X128388658Y-105913578D01*
X128407467Y-105868167D01*
X139446000Y-105868167D01*
X139446000Y-106221833D01*
X139581342Y-106548578D01*
X139831422Y-106798658D01*
X140158167Y-106934000D01*
X140511833Y-106934000D01*
X140838578Y-106798658D01*
X141088658Y-106548578D01*
X141224000Y-106221833D01*
X141224000Y-105868167D01*
X141088658Y-105541422D01*
X140838578Y-105291342D01*
X140698131Y-105233167D01*
X146431000Y-105233167D01*
X146431000Y-105586833D01*
X146566342Y-105913578D01*
X146816422Y-106163658D01*
X147143167Y-106299000D01*
X147496833Y-106299000D01*
X147823578Y-106163658D01*
X148073658Y-105913578D01*
X148092467Y-105868167D01*
X166116000Y-105868167D01*
X166116000Y-106221833D01*
X166251342Y-106548578D01*
X166501422Y-106798658D01*
X166828167Y-106934000D01*
X167181833Y-106934000D01*
X167508578Y-106798658D01*
X167758658Y-106548578D01*
X167894000Y-106221833D01*
X167894000Y-105868167D01*
X167758658Y-105541422D01*
X167508578Y-105291342D01*
X167181833Y-105156000D01*
X166828167Y-105156000D01*
X166501422Y-105291342D01*
X166251342Y-105541422D01*
X166116000Y-105868167D01*
X148092467Y-105868167D01*
X148209000Y-105586833D01*
X148209000Y-105233167D01*
X148124431Y-105029000D01*
X148131833Y-105029000D01*
X148458578Y-104893658D01*
X148708658Y-104643578D01*
X148727467Y-104598167D01*
X150241000Y-104598167D01*
X150241000Y-104951833D01*
X150376342Y-105278578D01*
X150626422Y-105528658D01*
X150953167Y-105664000D01*
X151306833Y-105664000D01*
X151633578Y-105528658D01*
X151883658Y-105278578D01*
X151996398Y-105006398D01*
X152268578Y-104893658D01*
X152518658Y-104643578D01*
X152654000Y-104316833D01*
X152654000Y-103963167D01*
X152518658Y-103636422D01*
X152268578Y-103386342D01*
X151941833Y-103251000D01*
X151588167Y-103251000D01*
X151261422Y-103386342D01*
X151011342Y-103636422D01*
X150898602Y-103908602D01*
X150626422Y-104021342D01*
X150376342Y-104271422D01*
X150241000Y-104598167D01*
X148727467Y-104598167D01*
X148844000Y-104316833D01*
X148844000Y-103963167D01*
X148708658Y-103636422D01*
X148458578Y-103386342D01*
X148131833Y-103251000D01*
X147778167Y-103251000D01*
X147451422Y-103386342D01*
X147201342Y-103636422D01*
X147066000Y-103963167D01*
X147066000Y-104316833D01*
X147150569Y-104521000D01*
X147143167Y-104521000D01*
X146816422Y-104656342D01*
X146566342Y-104906422D01*
X146431000Y-105233167D01*
X140698131Y-105233167D01*
X140511833Y-105156000D01*
X140158167Y-105156000D01*
X139831422Y-105291342D01*
X139581342Y-105541422D01*
X139446000Y-105868167D01*
X128407467Y-105868167D01*
X128524000Y-105586833D01*
X128524000Y-105233167D01*
X128388658Y-104906422D01*
X128138578Y-104656342D01*
X127811833Y-104521000D01*
X127458167Y-104521000D01*
X127131422Y-104656342D01*
X126881342Y-104906422D01*
X126768602Y-105178602D01*
X126496422Y-105291342D01*
X126246342Y-105541422D01*
X126111000Y-105868167D01*
X125867467Y-105868167D01*
X125984000Y-105586833D01*
X125984000Y-105233167D01*
X125848658Y-104906422D01*
X125598578Y-104656342D01*
X125271833Y-104521000D01*
X124918167Y-104521000D01*
X124591422Y-104656342D01*
X124341342Y-104906422D01*
X124228602Y-105178602D01*
X123956422Y-105291342D01*
X123706342Y-105541422D01*
X123571000Y-105868167D01*
X123327467Y-105868167D01*
X123444000Y-105586833D01*
X123444000Y-105233167D01*
X123308658Y-104906422D01*
X123058578Y-104656342D01*
X122731833Y-104521000D01*
X122378167Y-104521000D01*
X122051422Y-104656342D01*
X121801342Y-104906422D01*
X121688602Y-105178602D01*
X121416422Y-105291342D01*
X121166342Y-105541422D01*
X121031000Y-105868167D01*
X120787467Y-105868167D01*
X120904000Y-105586833D01*
X120904000Y-105233167D01*
X120768658Y-104906422D01*
X120518578Y-104656342D01*
X120191833Y-104521000D01*
X119838167Y-104521000D01*
X119511422Y-104656342D01*
X119261342Y-104906422D01*
X119148602Y-105178602D01*
X118876422Y-105291342D01*
X118626342Y-105541422D01*
X118491000Y-105868167D01*
X115697000Y-105868167D01*
X115697000Y-104242567D01*
X133631600Y-104242567D01*
X133631600Y-104596233D01*
X133766942Y-104922978D01*
X134017022Y-105173058D01*
X134343767Y-105308400D01*
X134697433Y-105308400D01*
X135024178Y-105173058D01*
X135072584Y-105124652D01*
X135136342Y-105278578D01*
X135386422Y-105528658D01*
X135713167Y-105664000D01*
X136066833Y-105664000D01*
X136393578Y-105528658D01*
X136643658Y-105278578D01*
X136779000Y-104951833D01*
X136779000Y-104598167D01*
X136643658Y-104271422D01*
X136393578Y-104021342D01*
X136066833Y-103886000D01*
X135713167Y-103886000D01*
X135386422Y-104021342D01*
X135338016Y-104069748D01*
X135274258Y-103915822D01*
X135024178Y-103665742D01*
X134697433Y-103530400D01*
X134343767Y-103530400D01*
X134017022Y-103665742D01*
X133766942Y-103915822D01*
X133631600Y-104242567D01*
X115697000Y-104242567D01*
X115697000Y-103328167D01*
X138811000Y-103328167D01*
X138811000Y-103681833D01*
X138946342Y-104008578D01*
X139196422Y-104258658D01*
X139523167Y-104394000D01*
X139876833Y-104394000D01*
X140203578Y-104258658D01*
X140453658Y-104008578D01*
X140472467Y-103963167D01*
X140716000Y-103963167D01*
X140716000Y-104316833D01*
X140851342Y-104643578D01*
X141101422Y-104893658D01*
X141428167Y-105029000D01*
X141781833Y-105029000D01*
X142108578Y-104893658D01*
X142358658Y-104643578D01*
X142494000Y-104316833D01*
X142494000Y-103963167D01*
X142409431Y-103759000D01*
X142416833Y-103759000D01*
X142743578Y-103623658D01*
X142993658Y-103373578D01*
X143129000Y-103046833D01*
X143129000Y-102693167D01*
X142993658Y-102366422D01*
X142743578Y-102116342D01*
X142603131Y-102058167D01*
X144526000Y-102058167D01*
X144526000Y-102411833D01*
X144661342Y-102738578D01*
X144911422Y-102988658D01*
X145238167Y-103124000D01*
X145591833Y-103124000D01*
X145918578Y-102988658D01*
X146168658Y-102738578D01*
X146304000Y-102411833D01*
X146304000Y-102235000D01*
X169300908Y-102235000D01*
X169416161Y-102814418D01*
X169744375Y-103305625D01*
X170042761Y-103505000D01*
X169744375Y-103704375D01*
X169416161Y-104195582D01*
X169300908Y-104775000D01*
X169416161Y-105354418D01*
X169744375Y-105845625D01*
X170063478Y-106058843D01*
X169933642Y-106119817D01*
X169543355Y-106548076D01*
X169373524Y-106958110D01*
X169494845Y-107188000D01*
X170688000Y-107188000D01*
X170688000Y-107168000D01*
X170942000Y-107168000D01*
X170942000Y-107188000D01*
X170962000Y-107188000D01*
X170962000Y-107442000D01*
X170942000Y-107442000D01*
X170942000Y-107462000D01*
X170688000Y-107462000D01*
X170688000Y-107442000D01*
X169494845Y-107442000D01*
X169373524Y-107671890D01*
X169543355Y-108081924D01*
X169933642Y-108510183D01*
X170063478Y-108571157D01*
X169744375Y-108784375D01*
X169416161Y-109275582D01*
X169300908Y-109855000D01*
X169416161Y-110434418D01*
X169744375Y-110925625D01*
X170235582Y-111253839D01*
X170668744Y-111340000D01*
X170961256Y-111340000D01*
X171394418Y-111253839D01*
X171885625Y-110925625D01*
X172085000Y-110627239D01*
X172284375Y-110925625D01*
X172775582Y-111253839D01*
X173208744Y-111340000D01*
X173501256Y-111340000D01*
X173934418Y-111253839D01*
X174425625Y-110925625D01*
X174753839Y-110434418D01*
X174869092Y-109855000D01*
X174753839Y-109275582D01*
X174425625Y-108784375D01*
X174127239Y-108585000D01*
X174425625Y-108385625D01*
X174753839Y-107894418D01*
X174869092Y-107315000D01*
X174753839Y-106735582D01*
X174425625Y-106244375D01*
X174127239Y-106045000D01*
X174425625Y-105845625D01*
X174753839Y-105354418D01*
X174869092Y-104775000D01*
X174753839Y-104195582D01*
X174425625Y-103704375D01*
X174127239Y-103505000D01*
X174425625Y-103305625D01*
X174753839Y-102814418D01*
X174869092Y-102235000D01*
X174753839Y-101655582D01*
X174425625Y-101164375D01*
X174127239Y-100965000D01*
X174425625Y-100765625D01*
X174753839Y-100274418D01*
X174869092Y-99695000D01*
X174753839Y-99115582D01*
X174425625Y-98624375D01*
X173934418Y-98296161D01*
X173501256Y-98210000D01*
X173208744Y-98210000D01*
X172775582Y-98296161D01*
X172284375Y-98624375D01*
X172272184Y-98642619D01*
X172263157Y-98597235D01*
X172122809Y-98387191D01*
X171912765Y-98246843D01*
X171665000Y-98197560D01*
X169965000Y-98197560D01*
X169717235Y-98246843D01*
X169507191Y-98387191D01*
X169366843Y-98597235D01*
X169317560Y-98845000D01*
X169317560Y-100545000D01*
X169366843Y-100792765D01*
X169507191Y-101002809D01*
X169717235Y-101143157D01*
X169762619Y-101152184D01*
X169744375Y-101164375D01*
X169416161Y-101655582D01*
X169300908Y-102235000D01*
X146304000Y-102235000D01*
X146304000Y-102058167D01*
X146168658Y-101731422D01*
X145918578Y-101481342D01*
X145591833Y-101346000D01*
X145238167Y-101346000D01*
X144911422Y-101481342D01*
X144661342Y-101731422D01*
X144526000Y-102058167D01*
X142603131Y-102058167D01*
X142416833Y-101981000D01*
X142063167Y-101981000D01*
X141736422Y-102116342D01*
X141486342Y-102366422D01*
X141351000Y-102693167D01*
X141351000Y-103046833D01*
X141435569Y-103251000D01*
X141428167Y-103251000D01*
X141101422Y-103386342D01*
X140851342Y-103636422D01*
X140716000Y-103963167D01*
X140472467Y-103963167D01*
X140589000Y-103681833D01*
X140589000Y-103328167D01*
X140453658Y-103001422D01*
X140203578Y-102751342D01*
X139876833Y-102616000D01*
X139523167Y-102616000D01*
X139196422Y-102751342D01*
X138946342Y-103001422D01*
X138811000Y-103328167D01*
X115697000Y-103328167D01*
X115697000Y-102058167D01*
X135636000Y-102058167D01*
X135636000Y-102411833D01*
X135771342Y-102738578D01*
X136021422Y-102988658D01*
X136348167Y-103124000D01*
X136701833Y-103124000D01*
X137028578Y-102988658D01*
X137278658Y-102738578D01*
X137414000Y-102411833D01*
X137414000Y-102058167D01*
X137278658Y-101731422D01*
X137028578Y-101481342D01*
X136701833Y-101346000D01*
X136348167Y-101346000D01*
X136021422Y-101481342D01*
X135771342Y-101731422D01*
X135636000Y-102058167D01*
X115697000Y-102058167D01*
X115697000Y-100788167D01*
X119126000Y-100788167D01*
X119126000Y-101141833D01*
X119261342Y-101468578D01*
X119511422Y-101718658D01*
X119838167Y-101854000D01*
X120191833Y-101854000D01*
X120518578Y-101718658D01*
X120768658Y-101468578D01*
X120904000Y-101141833D01*
X120904000Y-100788167D01*
X123571000Y-100788167D01*
X123571000Y-101141833D01*
X123706342Y-101468578D01*
X123956422Y-101718658D01*
X124283167Y-101854000D01*
X124636833Y-101854000D01*
X124963578Y-101718658D01*
X125213658Y-101468578D01*
X125349000Y-101141833D01*
X125349000Y-100788167D01*
X125290865Y-100647815D01*
X125404778Y-100695000D01*
X126055222Y-100695000D01*
X126656153Y-100446086D01*
X127116086Y-99986153D01*
X127365000Y-99385222D01*
X127365000Y-98734778D01*
X127163439Y-98248167D01*
X131826000Y-98248167D01*
X131826000Y-98601833D01*
X131961342Y-98928578D01*
X132211422Y-99178658D01*
X132538167Y-99314000D01*
X132891833Y-99314000D01*
X133218578Y-99178658D01*
X133468658Y-98928578D01*
X133487467Y-98883167D01*
X133731000Y-98883167D01*
X133731000Y-99236833D01*
X133866342Y-99563578D01*
X134116422Y-99813658D01*
X134443167Y-99949000D01*
X134796833Y-99949000D01*
X135123578Y-99813658D01*
X135373658Y-99563578D01*
X135509000Y-99236833D01*
X135509000Y-98883167D01*
X136906000Y-98883167D01*
X136906000Y-99236833D01*
X137041342Y-99563578D01*
X137291422Y-99813658D01*
X137618167Y-99949000D01*
X137971833Y-99949000D01*
X138298578Y-99813658D01*
X138430000Y-99682236D01*
X138561422Y-99813658D01*
X138888167Y-99949000D01*
X139241833Y-99949000D01*
X139446000Y-99864431D01*
X139446000Y-99871833D01*
X139581342Y-100198578D01*
X139831422Y-100448658D01*
X140158167Y-100584000D01*
X140511833Y-100584000D01*
X140838578Y-100448658D01*
X140970000Y-100317236D01*
X141101422Y-100448658D01*
X141428167Y-100584000D01*
X141781833Y-100584000D01*
X142108578Y-100448658D01*
X142358658Y-100198578D01*
X142494000Y-99871833D01*
X142494000Y-99518167D01*
X142358658Y-99191422D01*
X142108578Y-98941342D01*
X141968131Y-98883167D01*
X142621000Y-98883167D01*
X142621000Y-99236833D01*
X142756342Y-99563578D01*
X143006422Y-99813658D01*
X143333167Y-99949000D01*
X143686833Y-99949000D01*
X144013578Y-99813658D01*
X144263658Y-99563578D01*
X144282467Y-99518167D01*
X146431000Y-99518167D01*
X146431000Y-99871833D01*
X146566342Y-100198578D01*
X146816422Y-100448658D01*
X147143167Y-100584000D01*
X147496833Y-100584000D01*
X147823578Y-100448658D01*
X148073658Y-100198578D01*
X148209000Y-99871833D01*
X148209000Y-99518167D01*
X148073658Y-99191422D01*
X147823578Y-98941342D01*
X147496833Y-98806000D01*
X147143167Y-98806000D01*
X146816422Y-98941342D01*
X146566342Y-99191422D01*
X146431000Y-99518167D01*
X144282467Y-99518167D01*
X144399000Y-99236833D01*
X144399000Y-98883167D01*
X144299589Y-98643167D01*
X153111200Y-98643167D01*
X153111200Y-98996833D01*
X153246542Y-99323578D01*
X153496622Y-99573658D01*
X153823367Y-99709000D01*
X154177033Y-99709000D01*
X154503778Y-99573658D01*
X154753858Y-99323578D01*
X154889200Y-98996833D01*
X154889200Y-98643167D01*
X154753858Y-98316422D01*
X154685603Y-98248167D01*
X162941000Y-98248167D01*
X162941000Y-98601833D01*
X163076342Y-98928578D01*
X163326422Y-99178658D01*
X163653167Y-99314000D01*
X164006833Y-99314000D01*
X164333578Y-99178658D01*
X164583658Y-98928578D01*
X164719000Y-98601833D01*
X164719000Y-98248167D01*
X164583658Y-97921422D01*
X164333578Y-97671342D01*
X164006833Y-97536000D01*
X163653167Y-97536000D01*
X163326422Y-97671342D01*
X163076342Y-97921422D01*
X162941000Y-98248167D01*
X154685603Y-98248167D01*
X154503778Y-98066342D01*
X154177033Y-97931000D01*
X153823367Y-97931000D01*
X153496622Y-98066342D01*
X153246542Y-98316422D01*
X153111200Y-98643167D01*
X144299589Y-98643167D01*
X144263658Y-98556422D01*
X144013578Y-98306342D01*
X143686833Y-98171000D01*
X143333167Y-98171000D01*
X143006422Y-98306342D01*
X142756342Y-98556422D01*
X142621000Y-98883167D01*
X141968131Y-98883167D01*
X141781833Y-98806000D01*
X141428167Y-98806000D01*
X141101422Y-98941342D01*
X140970000Y-99072764D01*
X140838578Y-98941342D01*
X140511833Y-98806000D01*
X140158167Y-98806000D01*
X139954000Y-98890569D01*
X139954000Y-98883167D01*
X139818658Y-98556422D01*
X139568578Y-98306342D01*
X139241833Y-98171000D01*
X138888167Y-98171000D01*
X138561422Y-98306342D01*
X138430000Y-98437764D01*
X138298578Y-98306342D01*
X137971833Y-98171000D01*
X137618167Y-98171000D01*
X137291422Y-98306342D01*
X137041342Y-98556422D01*
X136906000Y-98883167D01*
X135509000Y-98883167D01*
X135373658Y-98556422D01*
X135123578Y-98306342D01*
X134796833Y-98171000D01*
X134443167Y-98171000D01*
X134116422Y-98306342D01*
X133866342Y-98556422D01*
X133731000Y-98883167D01*
X133487467Y-98883167D01*
X133604000Y-98601833D01*
X133604000Y-98248167D01*
X133468658Y-97921422D01*
X133218578Y-97671342D01*
X132891833Y-97536000D01*
X132538167Y-97536000D01*
X132211422Y-97671342D01*
X131961342Y-97921422D01*
X131826000Y-98248167D01*
X127163439Y-98248167D01*
X127116086Y-98133847D01*
X126656153Y-97673914D01*
X126055222Y-97425000D01*
X125404778Y-97425000D01*
X124803847Y-97673914D01*
X124343914Y-98133847D01*
X124095000Y-98734778D01*
X124095000Y-99385222D01*
X124343914Y-99986153D01*
X124433761Y-100076000D01*
X124283167Y-100076000D01*
X123956422Y-100211342D01*
X123706342Y-100461422D01*
X123571000Y-100788167D01*
X120904000Y-100788167D01*
X120768658Y-100461422D01*
X120518578Y-100211342D01*
X120191833Y-100076000D01*
X119838167Y-100076000D01*
X119511422Y-100211342D01*
X119261342Y-100461422D01*
X119126000Y-100788167D01*
X115697000Y-100788167D01*
X115697000Y-94289778D01*
X124095000Y-94289778D01*
X124095000Y-94940222D01*
X124343914Y-95541153D01*
X124803847Y-96001086D01*
X125404778Y-96250000D01*
X126055222Y-96250000D01*
X126656153Y-96001086D01*
X126949072Y-95708167D01*
X131826000Y-95708167D01*
X131826000Y-96061833D01*
X131961342Y-96388578D01*
X132211422Y-96638658D01*
X132538167Y-96774000D01*
X132891833Y-96774000D01*
X133218578Y-96638658D01*
X133468658Y-96388578D01*
X133604000Y-96061833D01*
X133604000Y-95708167D01*
X142621000Y-95708167D01*
X142621000Y-96061833D01*
X142756342Y-96388578D01*
X143006422Y-96638658D01*
X143333167Y-96774000D01*
X143686833Y-96774000D01*
X144013578Y-96638658D01*
X144263658Y-96388578D01*
X144399000Y-96061833D01*
X144399000Y-95708167D01*
X147701000Y-95708167D01*
X147701000Y-96061833D01*
X147836342Y-96388578D01*
X148086422Y-96638658D01*
X148413167Y-96774000D01*
X148766833Y-96774000D01*
X149093578Y-96638658D01*
X149225000Y-96507236D01*
X149356422Y-96638658D01*
X149683167Y-96774000D01*
X150036833Y-96774000D01*
X150363578Y-96638658D01*
X150613658Y-96388578D01*
X150749000Y-96061833D01*
X150749000Y-95708167D01*
X151511000Y-95708167D01*
X151511000Y-96061833D01*
X151646342Y-96388578D01*
X151777764Y-96520000D01*
X151646342Y-96651422D01*
X151511000Y-96978167D01*
X151511000Y-97331833D01*
X151646342Y-97658578D01*
X151896422Y-97908658D01*
X152223167Y-98044000D01*
X152576833Y-98044000D01*
X152903578Y-97908658D01*
X153153658Y-97658578D01*
X153289000Y-97331833D01*
X153289000Y-96978167D01*
X153153658Y-96651422D01*
X153022236Y-96520000D01*
X153153658Y-96388578D01*
X153289000Y-96061833D01*
X153289000Y-95708167D01*
X153153658Y-95381422D01*
X152903578Y-95131342D01*
X152576833Y-94996000D01*
X152223167Y-94996000D01*
X151896422Y-95131342D01*
X151646342Y-95381422D01*
X151511000Y-95708167D01*
X150749000Y-95708167D01*
X150613658Y-95381422D01*
X150363578Y-95131342D01*
X150036833Y-94996000D01*
X149683167Y-94996000D01*
X149356422Y-95131342D01*
X149225000Y-95262764D01*
X149093578Y-95131342D01*
X148766833Y-94996000D01*
X148413167Y-94996000D01*
X148086422Y-95131342D01*
X147836342Y-95381422D01*
X147701000Y-95708167D01*
X144399000Y-95708167D01*
X144263658Y-95381422D01*
X144013578Y-95131342D01*
X143686833Y-94996000D01*
X143333167Y-94996000D01*
X143006422Y-95131342D01*
X142756342Y-95381422D01*
X142621000Y-95708167D01*
X133604000Y-95708167D01*
X133470406Y-95385642D01*
X133580422Y-95495658D01*
X133907167Y-95631000D01*
X134260833Y-95631000D01*
X134587578Y-95495658D01*
X134837658Y-95245578D01*
X134973000Y-94918833D01*
X134973000Y-94565167D01*
X134837658Y-94238422D01*
X134587578Y-93988342D01*
X134260833Y-93853000D01*
X133907167Y-93853000D01*
X133580422Y-93988342D01*
X133330342Y-94238422D01*
X133195000Y-94565167D01*
X133195000Y-94918833D01*
X133328594Y-95241358D01*
X133218578Y-95131342D01*
X132891833Y-94996000D01*
X132538167Y-94996000D01*
X132211422Y-95131342D01*
X131961342Y-95381422D01*
X131826000Y-95708167D01*
X126949072Y-95708167D01*
X127116086Y-95541153D01*
X127365000Y-94940222D01*
X127365000Y-94289778D01*
X127163439Y-93803167D01*
X151511000Y-93803167D01*
X151511000Y-94156833D01*
X151646342Y-94483578D01*
X151896422Y-94733658D01*
X152223167Y-94869000D01*
X152576833Y-94869000D01*
X152781000Y-94784431D01*
X152781000Y-94791833D01*
X152916342Y-95118578D01*
X153166422Y-95368658D01*
X153438602Y-95481398D01*
X153551342Y-95753578D01*
X153801422Y-96003658D01*
X154128167Y-96139000D01*
X154481833Y-96139000D01*
X154808578Y-96003658D01*
X155058658Y-95753578D01*
X155194000Y-95426833D01*
X155194000Y-95073167D01*
X155058658Y-94746422D01*
X154808578Y-94496342D01*
X154536398Y-94383602D01*
X154423658Y-94111422D01*
X154173578Y-93861342D01*
X153846833Y-93726000D01*
X153493167Y-93726000D01*
X153289000Y-93810569D01*
X153289000Y-93803167D01*
X153153658Y-93476422D01*
X152903578Y-93226342D01*
X152576833Y-93091000D01*
X152223167Y-93091000D01*
X151896422Y-93226342D01*
X151646342Y-93476422D01*
X151511000Y-93803167D01*
X127163439Y-93803167D01*
X127116086Y-93688847D01*
X126656153Y-93228914D01*
X126055222Y-92980000D01*
X125404778Y-92980000D01*
X124803847Y-93228914D01*
X124343914Y-93688847D01*
X124095000Y-94289778D01*
X115697000Y-94289778D01*
X115697000Y-91749778D01*
X153305000Y-91749778D01*
X153305000Y-92400222D01*
X153553914Y-93001153D01*
X154013847Y-93461086D01*
X154614778Y-93710000D01*
X155265222Y-93710000D01*
X155866153Y-93461086D01*
X156033632Y-93293607D01*
X156033632Y-93599465D01*
X156168974Y-93926210D01*
X156222764Y-93980000D01*
X156091342Y-94111422D01*
X155978602Y-94383602D01*
X155706422Y-94496342D01*
X155456342Y-94746422D01*
X155321000Y-95073167D01*
X155321000Y-95426833D01*
X155456342Y-95753578D01*
X155706422Y-96003658D01*
X156033167Y-96139000D01*
X156386833Y-96139000D01*
X156713578Y-96003658D01*
X156963658Y-95753578D01*
X157076398Y-95481398D01*
X157348578Y-95368658D01*
X157598658Y-95118578D01*
X157734000Y-94791833D01*
X157734000Y-94438167D01*
X157598658Y-94111422D01*
X157544868Y-94057632D01*
X157676290Y-93926210D01*
X157811632Y-93599465D01*
X157811632Y-93245799D01*
X157676290Y-92919054D01*
X157426210Y-92668974D01*
X157099465Y-92533632D01*
X156745799Y-92533632D01*
X156472921Y-92646661D01*
X156575000Y-92400222D01*
X156575000Y-91749778D01*
X159020000Y-91749778D01*
X159020000Y-92400222D01*
X159268914Y-93001153D01*
X159728847Y-93461086D01*
X160329778Y-93710000D01*
X160980222Y-93710000D01*
X161581153Y-93461086D01*
X162041086Y-93001153D01*
X162290000Y-92400222D01*
X162290000Y-91749778D01*
X169030000Y-91749778D01*
X169030000Y-92400222D01*
X169278914Y-93001153D01*
X169738847Y-93461086D01*
X170339778Y-93710000D01*
X170990222Y-93710000D01*
X171591153Y-93461086D01*
X172051086Y-93001153D01*
X172300000Y-92400222D01*
X172300000Y-91749778D01*
X175530000Y-91749778D01*
X175530000Y-92400222D01*
X175778914Y-93001153D01*
X176238847Y-93461086D01*
X176839778Y-93710000D01*
X177490222Y-93710000D01*
X178091153Y-93461086D01*
X178551086Y-93001153D01*
X178800000Y-92400222D01*
X178800000Y-91749778D01*
X178551086Y-91148847D01*
X178091153Y-90688914D01*
X177490222Y-90440000D01*
X176839778Y-90440000D01*
X176238847Y-90688914D01*
X175778914Y-91148847D01*
X175530000Y-91749778D01*
X172300000Y-91749778D01*
X172051086Y-91148847D01*
X171591153Y-90688914D01*
X170990222Y-90440000D01*
X170339778Y-90440000D01*
X169738847Y-90688914D01*
X169278914Y-91148847D01*
X169030000Y-91749778D01*
X162290000Y-91749778D01*
X162041086Y-91148847D01*
X161581153Y-90688914D01*
X160980222Y-90440000D01*
X160329778Y-90440000D01*
X159728847Y-90688914D01*
X159268914Y-91148847D01*
X159020000Y-91749778D01*
X156575000Y-91749778D01*
X156326086Y-91148847D01*
X155866153Y-90688914D01*
X155265222Y-90440000D01*
X154614778Y-90440000D01*
X154013847Y-90688914D01*
X153553914Y-91148847D01*
X153305000Y-91749778D01*
X115697000Y-91749778D01*
X115697000Y-91567000D01*
X132080000Y-91567000D01*
X132128601Y-91557333D01*
X132169803Y-91529803D01*
X132197333Y-91488601D01*
X132207000Y-91440000D01*
X132207000Y-90628167D01*
X136384000Y-90628167D01*
X136384000Y-90981833D01*
X136519342Y-91308578D01*
X136769422Y-91558658D01*
X137096167Y-91694000D01*
X137449833Y-91694000D01*
X137776578Y-91558658D01*
X138026658Y-91308578D01*
X138162000Y-90981833D01*
X138162000Y-90628167D01*
X151511000Y-90628167D01*
X151511000Y-90981833D01*
X151646342Y-91308578D01*
X151896422Y-91558658D01*
X152223167Y-91694000D01*
X152576833Y-91694000D01*
X152903578Y-91558658D01*
X153153658Y-91308578D01*
X153266398Y-91036398D01*
X153538578Y-90923658D01*
X153788658Y-90673578D01*
X153924000Y-90346833D01*
X153924000Y-89993167D01*
X153788658Y-89666422D01*
X153538578Y-89416342D01*
X153211833Y-89281000D01*
X152858167Y-89281000D01*
X152531422Y-89416342D01*
X152281342Y-89666422D01*
X152168602Y-89938602D01*
X151896422Y-90051342D01*
X151646342Y-90301422D01*
X151511000Y-90628167D01*
X138162000Y-90628167D01*
X138026658Y-90301422D01*
X137776578Y-90051342D01*
X137449833Y-89916000D01*
X137096167Y-89916000D01*
X136769422Y-90051342D01*
X136519342Y-90301422D01*
X136384000Y-90628167D01*
X132207000Y-90628167D01*
X132207000Y-89184522D01*
X143082355Y-89184522D01*
X143082355Y-89538188D01*
X143217697Y-89864933D01*
X143467777Y-90115013D01*
X143794522Y-90250355D01*
X144148188Y-90250355D01*
X144474933Y-90115013D01*
X144725013Y-89864933D01*
X144860355Y-89538188D01*
X144860355Y-89184522D01*
X144749747Y-88917489D01*
X144898658Y-88768578D01*
X145034000Y-88441833D01*
X145034000Y-88088167D01*
X144898658Y-87761422D01*
X144648578Y-87511342D01*
X144321833Y-87376000D01*
X143968167Y-87376000D01*
X143641422Y-87511342D01*
X143391342Y-87761422D01*
X143256000Y-88088167D01*
X143256000Y-88441833D01*
X143366608Y-88708866D01*
X143217697Y-88857777D01*
X143082355Y-89184522D01*
X132207000Y-89184522D01*
X132207000Y-88088167D01*
X138176000Y-88088167D01*
X138176000Y-88441833D01*
X138311342Y-88768578D01*
X138561422Y-89018658D01*
X138888167Y-89154000D01*
X139241833Y-89154000D01*
X139568578Y-89018658D01*
X139818658Y-88768578D01*
X139954000Y-88441833D01*
X139954000Y-88088167D01*
X139818658Y-87761422D01*
X139568578Y-87511342D01*
X139241833Y-87376000D01*
X138888167Y-87376000D01*
X138561422Y-87511342D01*
X138311342Y-87761422D01*
X138176000Y-88088167D01*
X132207000Y-88088167D01*
X132207000Y-86818167D01*
X136271000Y-86818167D01*
X136271000Y-87171833D01*
X136406342Y-87498578D01*
X136656422Y-87748658D01*
X136983167Y-87884000D01*
X137336833Y-87884000D01*
X137663578Y-87748658D01*
X137913658Y-87498578D01*
X138016714Y-87249778D01*
X169030000Y-87249778D01*
X169030000Y-87900222D01*
X169278914Y-88501153D01*
X169738847Y-88961086D01*
X170339778Y-89210000D01*
X170990222Y-89210000D01*
X171591153Y-88961086D01*
X172051086Y-88501153D01*
X172300000Y-87900222D01*
X172300000Y-87249778D01*
X175530000Y-87249778D01*
X175530000Y-87900222D01*
X175778914Y-88501153D01*
X176238847Y-88961086D01*
X176839778Y-89210000D01*
X177490222Y-89210000D01*
X178091153Y-88961086D01*
X178551086Y-88501153D01*
X178800000Y-87900222D01*
X178800000Y-87249778D01*
X178551086Y-86648847D01*
X178091153Y-86188914D01*
X177490222Y-85940000D01*
X176839778Y-85940000D01*
X176238847Y-86188914D01*
X175778914Y-86648847D01*
X175530000Y-87249778D01*
X172300000Y-87249778D01*
X172051086Y-86648847D01*
X171591153Y-86188914D01*
X170990222Y-85940000D01*
X170339778Y-85940000D01*
X169738847Y-86188914D01*
X169278914Y-86648847D01*
X169030000Y-87249778D01*
X138016714Y-87249778D01*
X138049000Y-87171833D01*
X138049000Y-86818167D01*
X137913658Y-86491422D01*
X137663578Y-86241342D01*
X137336833Y-86106000D01*
X136983167Y-86106000D01*
X136656422Y-86241342D01*
X136406342Y-86491422D01*
X136271000Y-86818167D01*
X132207000Y-86818167D01*
X132207000Y-85548167D01*
X140716000Y-85548167D01*
X140716000Y-85901833D01*
X140851342Y-86228578D01*
X141101422Y-86478658D01*
X141428167Y-86614000D01*
X141781833Y-86614000D01*
X142108578Y-86478658D01*
X142358658Y-86228578D01*
X142494000Y-85901833D01*
X142494000Y-85548167D01*
X142358658Y-85221422D01*
X142108578Y-84971342D01*
X141781833Y-84836000D01*
X141428167Y-84836000D01*
X141101422Y-84971342D01*
X140851342Y-85221422D01*
X140716000Y-85548167D01*
X132207000Y-85548167D01*
X132207000Y-84659167D01*
X145274000Y-84659167D01*
X145274000Y-85012833D01*
X145409342Y-85339578D01*
X145659422Y-85589658D01*
X145986167Y-85725000D01*
X146339833Y-85725000D01*
X146666578Y-85589658D01*
X146916658Y-85339578D01*
X146948266Y-85263269D01*
X147143167Y-85344000D01*
X147496833Y-85344000D01*
X147823578Y-85208658D01*
X148073658Y-84958578D01*
X148209000Y-84631833D01*
X148209000Y-84278167D01*
X148073658Y-83951422D01*
X147823578Y-83701342D01*
X147683131Y-83643167D01*
X153416000Y-83643167D01*
X153416000Y-83996833D01*
X153551342Y-84323578D01*
X153801422Y-84573658D01*
X154128167Y-84709000D01*
X154481833Y-84709000D01*
X154808578Y-84573658D01*
X155058658Y-84323578D01*
X155194000Y-83996833D01*
X155194000Y-83643167D01*
X159131000Y-83643167D01*
X159131000Y-83996833D01*
X159266342Y-84323578D01*
X159516422Y-84573658D01*
X159843167Y-84709000D01*
X160196833Y-84709000D01*
X160523578Y-84573658D01*
X160655000Y-84442236D01*
X160786422Y-84573658D01*
X161113167Y-84709000D01*
X161466833Y-84709000D01*
X161793578Y-84573658D01*
X162043658Y-84323578D01*
X162179000Y-83996833D01*
X162179000Y-83643167D01*
X162043658Y-83316422D01*
X161793578Y-83066342D01*
X161653131Y-83008167D01*
X168021000Y-83008167D01*
X168021000Y-83361833D01*
X168156342Y-83688578D01*
X168406422Y-83938658D01*
X168733167Y-84074000D01*
X169086833Y-84074000D01*
X169413578Y-83938658D01*
X169663658Y-83688578D01*
X169799000Y-83361833D01*
X169799000Y-83008167D01*
X169663658Y-82681422D01*
X169413578Y-82431342D01*
X169086833Y-82296000D01*
X168733167Y-82296000D01*
X168406422Y-82431342D01*
X168156342Y-82681422D01*
X168021000Y-83008167D01*
X161653131Y-83008167D01*
X161466833Y-82931000D01*
X161113167Y-82931000D01*
X160786422Y-83066342D01*
X160655000Y-83197764D01*
X160523578Y-83066342D01*
X160196833Y-82931000D01*
X159843167Y-82931000D01*
X159516422Y-83066342D01*
X159266342Y-83316422D01*
X159131000Y-83643167D01*
X155194000Y-83643167D01*
X155058658Y-83316422D01*
X154808578Y-83066342D01*
X154481833Y-82931000D01*
X154128167Y-82931000D01*
X153801422Y-83066342D01*
X153551342Y-83316422D01*
X153416000Y-83643167D01*
X147683131Y-83643167D01*
X147496833Y-83566000D01*
X147143167Y-83566000D01*
X146816422Y-83701342D01*
X146566342Y-83951422D01*
X146534734Y-84027731D01*
X146339833Y-83947000D01*
X145986167Y-83947000D01*
X145659422Y-84082342D01*
X145409342Y-84332422D01*
X145274000Y-84659167D01*
X132207000Y-84659167D01*
X132207000Y-83702532D01*
X134282073Y-83702532D01*
X134380736Y-83969387D01*
X134990461Y-84195908D01*
X135640460Y-84171856D01*
X136129264Y-83969387D01*
X136227927Y-83702532D01*
X135255000Y-82729605D01*
X134282073Y-83702532D01*
X132207000Y-83702532D01*
X132207000Y-82285461D01*
X133609092Y-82285461D01*
X133633144Y-82935460D01*
X133835613Y-83424264D01*
X134102468Y-83522927D01*
X135075395Y-82550000D01*
X135434605Y-82550000D01*
X136407532Y-83522927D01*
X136674387Y-83424264D01*
X136900908Y-82814539D01*
X136876856Y-82164540D01*
X136674387Y-81675736D01*
X136407532Y-81577073D01*
X135434605Y-82550000D01*
X135075395Y-82550000D01*
X134102468Y-81577073D01*
X133835613Y-81675736D01*
X133609092Y-82285461D01*
X132207000Y-82285461D01*
X132207000Y-81397468D01*
X134282073Y-81397468D01*
X135255000Y-82370395D01*
X136227927Y-81397468D01*
X136129264Y-81130613D01*
X135519539Y-80904092D01*
X134869540Y-80928144D01*
X134380736Y-81130613D01*
X134282073Y-81397468D01*
X132207000Y-81397468D01*
X132207000Y-80772000D01*
X147320000Y-80772000D01*
X147368601Y-80762333D01*
X147409803Y-80734803D01*
X147437333Y-80693601D01*
X147447000Y-80645000D01*
X147447000Y-80468167D01*
X148971000Y-80468167D01*
X148971000Y-80821833D01*
X149106342Y-81148578D01*
X149356422Y-81398658D01*
X149683167Y-81534000D01*
X150036833Y-81534000D01*
X150363578Y-81398658D01*
X150613658Y-81148578D01*
X150749000Y-80821833D01*
X150749000Y-80468167D01*
X150613658Y-80141422D01*
X150363578Y-79891342D01*
X150036833Y-79756000D01*
X149683167Y-79756000D01*
X149356422Y-79891342D01*
X149106342Y-80141422D01*
X148971000Y-80468167D01*
X147447000Y-80468167D01*
X147447000Y-79992686D01*
X147738153Y-79872086D01*
X148198086Y-79412153D01*
X148286721Y-79198167D01*
X154686000Y-79198167D01*
X154686000Y-79551833D01*
X154821342Y-79878578D01*
X155071422Y-80128658D01*
X155398167Y-80264000D01*
X155751833Y-80264000D01*
X156078578Y-80128658D01*
X156210000Y-79997236D01*
X156341422Y-80128658D01*
X156668167Y-80264000D01*
X157021833Y-80264000D01*
X157348578Y-80128658D01*
X157598658Y-79878578D01*
X157734000Y-79551833D01*
X157734000Y-79198167D01*
X159131000Y-79198167D01*
X159131000Y-79551833D01*
X159266342Y-79878578D01*
X159516422Y-80128658D01*
X159843167Y-80264000D01*
X160196833Y-80264000D01*
X160523578Y-80128658D01*
X160773658Y-79878578D01*
X160909000Y-79551833D01*
X160909000Y-79198167D01*
X160773658Y-78871422D01*
X160523578Y-78621342D01*
X160196833Y-78486000D01*
X159843167Y-78486000D01*
X159516422Y-78621342D01*
X159266342Y-78871422D01*
X159131000Y-79198167D01*
X157734000Y-79198167D01*
X157598658Y-78871422D01*
X157348578Y-78621342D01*
X157021833Y-78486000D01*
X156668167Y-78486000D01*
X156341422Y-78621342D01*
X156210000Y-78752764D01*
X156078578Y-78621342D01*
X155751833Y-78486000D01*
X155398167Y-78486000D01*
X155071422Y-78621342D01*
X154821342Y-78871422D01*
X154686000Y-79198167D01*
X148286721Y-79198167D01*
X148447000Y-78811222D01*
X148447000Y-78160778D01*
X148350650Y-77928167D01*
X164846000Y-77928167D01*
X164846000Y-78281833D01*
X164981342Y-78608578D01*
X165231422Y-78858658D01*
X165558167Y-78994000D01*
X165911833Y-78994000D01*
X166238578Y-78858658D01*
X166488658Y-78608578D01*
X166507467Y-78563167D01*
X168021000Y-78563167D01*
X168021000Y-78916833D01*
X168156342Y-79243578D01*
X168406422Y-79493658D01*
X168733167Y-79629000D01*
X169086833Y-79629000D01*
X169413578Y-79493658D01*
X169663658Y-79243578D01*
X169799000Y-78916833D01*
X169799000Y-78563167D01*
X169663658Y-78236422D01*
X169413578Y-77986342D01*
X169273131Y-77928167D01*
X174371000Y-77928167D01*
X174371000Y-78281833D01*
X174506342Y-78608578D01*
X174756422Y-78858658D01*
X175083167Y-78994000D01*
X175436833Y-78994000D01*
X175763578Y-78858658D01*
X176013658Y-78608578D01*
X176149000Y-78281833D01*
X176149000Y-77928167D01*
X176013658Y-77601422D01*
X175763578Y-77351342D01*
X175436833Y-77216000D01*
X175083167Y-77216000D01*
X174756422Y-77351342D01*
X174506342Y-77601422D01*
X174371000Y-77928167D01*
X169273131Y-77928167D01*
X169086833Y-77851000D01*
X168733167Y-77851000D01*
X168406422Y-77986342D01*
X168156342Y-78236422D01*
X168021000Y-78563167D01*
X166507467Y-78563167D01*
X166624000Y-78281833D01*
X166624000Y-77928167D01*
X166488658Y-77601422D01*
X166238578Y-77351342D01*
X165911833Y-77216000D01*
X165558167Y-77216000D01*
X165231422Y-77351342D01*
X164981342Y-77601422D01*
X164846000Y-77928167D01*
X148350650Y-77928167D01*
X148198086Y-77559847D01*
X147738153Y-77099914D01*
X147447000Y-76979314D01*
X147447000Y-75874778D01*
X159655000Y-75874778D01*
X159655000Y-76525222D01*
X159903914Y-77126153D01*
X160363847Y-77586086D01*
X160964778Y-77835000D01*
X161615222Y-77835000D01*
X162216153Y-77586086D01*
X162676086Y-77126153D01*
X162925000Y-76525222D01*
X162925000Y-75874778D01*
X169180000Y-75874778D01*
X169180000Y-76525222D01*
X169428914Y-77126153D01*
X169888847Y-77586086D01*
X170489778Y-77835000D01*
X171140222Y-77835000D01*
X171741153Y-77586086D01*
X172201086Y-77126153D01*
X172450000Y-76525222D01*
X172450000Y-75874778D01*
X172201086Y-75273847D01*
X171741153Y-74813914D01*
X171140222Y-74565000D01*
X170489778Y-74565000D01*
X169888847Y-74813914D01*
X169428914Y-75273847D01*
X169180000Y-75874778D01*
X162925000Y-75874778D01*
X162676086Y-75273847D01*
X162216153Y-74813914D01*
X161615222Y-74565000D01*
X160964778Y-74565000D01*
X160363847Y-74813914D01*
X159903914Y-75273847D01*
X159655000Y-75874778D01*
X147447000Y-75874778D01*
X147447000Y-74118167D01*
X163576000Y-74118167D01*
X163576000Y-74471833D01*
X163711342Y-74798578D01*
X163961422Y-75048658D01*
X164288167Y-75184000D01*
X164641833Y-75184000D01*
X164968578Y-75048658D01*
X165218658Y-74798578D01*
X165354000Y-74471833D01*
X165354000Y-74118167D01*
X173101000Y-74118167D01*
X173101000Y-74471833D01*
X173236342Y-74798578D01*
X173486422Y-75048658D01*
X173813167Y-75184000D01*
X174166833Y-75184000D01*
X174493578Y-75048658D01*
X174743658Y-74798578D01*
X174879000Y-74471833D01*
X174879000Y-74118167D01*
X174743658Y-73791422D01*
X174493578Y-73541342D01*
X174166833Y-73406000D01*
X173813167Y-73406000D01*
X173486422Y-73541342D01*
X173236342Y-73791422D01*
X173101000Y-74118167D01*
X165354000Y-74118167D01*
X165218658Y-73791422D01*
X164968578Y-73541342D01*
X164641833Y-73406000D01*
X164288167Y-73406000D01*
X163961422Y-73541342D01*
X163711342Y-73791422D01*
X163576000Y-74118167D01*
X147447000Y-74118167D01*
X147447000Y-72213579D01*
X157226412Y-72213579D01*
X157226412Y-72567245D01*
X157361754Y-72893990D01*
X157611834Y-73144070D01*
X157938579Y-73279412D01*
X158292245Y-73279412D01*
X158618990Y-73144070D01*
X158869070Y-72893990D01*
X159004412Y-72567245D01*
X159004412Y-72213579D01*
X158869070Y-71886834D01*
X158618990Y-71636754D01*
X158292245Y-71501412D01*
X157938579Y-71501412D01*
X157611834Y-71636754D01*
X157361754Y-71886834D01*
X157226412Y-72213579D01*
X147447000Y-72213579D01*
X147447000Y-71429778D01*
X159655000Y-71429778D01*
X159655000Y-72080222D01*
X159903914Y-72681153D01*
X160363847Y-73141086D01*
X160964778Y-73390000D01*
X161615222Y-73390000D01*
X162216153Y-73141086D01*
X162676086Y-72681153D01*
X162925000Y-72080222D01*
X162925000Y-71429778D01*
X169180000Y-71429778D01*
X169180000Y-72080222D01*
X169428914Y-72681153D01*
X169888847Y-73141086D01*
X170489778Y-73390000D01*
X171140222Y-73390000D01*
X171741153Y-73141086D01*
X172201086Y-72681153D01*
X172450000Y-72080222D01*
X172450000Y-71429778D01*
X172201086Y-70828847D01*
X171741153Y-70368914D01*
X171140222Y-70120000D01*
X170489778Y-70120000D01*
X169888847Y-70368914D01*
X169428914Y-70828847D01*
X169180000Y-71429778D01*
X162925000Y-71429778D01*
X162676086Y-70828847D01*
X162216153Y-70368914D01*
X161615222Y-70120000D01*
X160964778Y-70120000D01*
X160363847Y-70368914D01*
X159903914Y-70828847D01*
X159655000Y-71429778D01*
X147447000Y-71429778D01*
X147447000Y-69673167D01*
X178181000Y-69673167D01*
X178181000Y-70026833D01*
X178316342Y-70353578D01*
X178566422Y-70603658D01*
X178893167Y-70739000D01*
X179246833Y-70739000D01*
X179573578Y-70603658D01*
X179823658Y-70353578D01*
X179959000Y-70026833D01*
X179959000Y-69673167D01*
X179823658Y-69346422D01*
X179573578Y-69096342D01*
X179246833Y-68961000D01*
X178893167Y-68961000D01*
X178566422Y-69096342D01*
X178316342Y-69346422D01*
X178181000Y-69673167D01*
X147447000Y-69673167D01*
X147447000Y-65891535D01*
X157197632Y-65891535D01*
X157197632Y-66245201D01*
X157332974Y-66571946D01*
X157583054Y-66822026D01*
X157909799Y-66957368D01*
X158263465Y-66957368D01*
X158590210Y-66822026D01*
X158840290Y-66571946D01*
X158975632Y-66245201D01*
X158975632Y-65891535D01*
X158948073Y-65825000D01*
X163602560Y-65825000D01*
X163602560Y-67525000D01*
X163651843Y-67772765D01*
X163792191Y-67982809D01*
X164002235Y-68123157D01*
X164250000Y-68172440D01*
X165950000Y-68172440D01*
X166197765Y-68123157D01*
X166407809Y-67982809D01*
X166548157Y-67772765D01*
X166557184Y-67727381D01*
X166569375Y-67745625D01*
X167060582Y-68073839D01*
X167493744Y-68160000D01*
X167786256Y-68160000D01*
X168219418Y-68073839D01*
X168710625Y-67745625D01*
X169038839Y-67254418D01*
X169154092Y-66675000D01*
X169038839Y-66095582D01*
X168858042Y-65825000D01*
X173127560Y-65825000D01*
X173127560Y-67525000D01*
X173176843Y-67772765D01*
X173317191Y-67982809D01*
X173527235Y-68123157D01*
X173775000Y-68172440D01*
X175475000Y-68172440D01*
X175722765Y-68123157D01*
X175932809Y-67982809D01*
X176073157Y-67772765D01*
X176082184Y-67727381D01*
X176094375Y-67745625D01*
X176585582Y-68073839D01*
X177018744Y-68160000D01*
X177311256Y-68160000D01*
X177744418Y-68073839D01*
X178235625Y-67745625D01*
X178563839Y-67254418D01*
X178679092Y-66675000D01*
X178563839Y-66095582D01*
X178235625Y-65604375D01*
X177744418Y-65276161D01*
X177311256Y-65190000D01*
X177018744Y-65190000D01*
X176585582Y-65276161D01*
X176094375Y-65604375D01*
X176082184Y-65622619D01*
X176073157Y-65577235D01*
X175932809Y-65367191D01*
X175722765Y-65226843D01*
X175475000Y-65177560D01*
X173775000Y-65177560D01*
X173527235Y-65226843D01*
X173317191Y-65367191D01*
X173176843Y-65577235D01*
X173127560Y-65825000D01*
X168858042Y-65825000D01*
X168710625Y-65604375D01*
X168219418Y-65276161D01*
X167786256Y-65190000D01*
X167493744Y-65190000D01*
X167060582Y-65276161D01*
X166569375Y-65604375D01*
X166557184Y-65622619D01*
X166548157Y-65577235D01*
X166407809Y-65367191D01*
X166197765Y-65226843D01*
X165950000Y-65177560D01*
X164250000Y-65177560D01*
X164002235Y-65226843D01*
X163792191Y-65367191D01*
X163651843Y-65577235D01*
X163602560Y-65825000D01*
X158948073Y-65825000D01*
X158840290Y-65564790D01*
X158590210Y-65314710D01*
X158263465Y-65179368D01*
X157909799Y-65179368D01*
X157583054Y-65314710D01*
X157332974Y-65564790D01*
X157197632Y-65891535D01*
X147447000Y-65891535D01*
X147447000Y-61904778D01*
X162830000Y-61904778D01*
X162830000Y-62555222D01*
X163078914Y-63156153D01*
X163538847Y-63616086D01*
X164139778Y-63865000D01*
X164790222Y-63865000D01*
X165391153Y-63616086D01*
X165851086Y-63156153D01*
X166100000Y-62555222D01*
X166100000Y-61944561D01*
X166840000Y-61944561D01*
X166840000Y-62515439D01*
X167058466Y-63042862D01*
X167462138Y-63446534D01*
X167989561Y-63665000D01*
X168560439Y-63665000D01*
X169087862Y-63446534D01*
X169491534Y-63042862D01*
X169710000Y-62515439D01*
X169710000Y-61944561D01*
X169693522Y-61904778D01*
X172355000Y-61904778D01*
X172355000Y-62555222D01*
X172603914Y-63156153D01*
X173063847Y-63616086D01*
X173664778Y-63865000D01*
X174315222Y-63865000D01*
X174916153Y-63616086D01*
X175376086Y-63156153D01*
X175625000Y-62555222D01*
X175625000Y-61944561D01*
X176365000Y-61944561D01*
X176365000Y-62515439D01*
X176583466Y-63042862D01*
X176987138Y-63446534D01*
X177514561Y-63665000D01*
X178085439Y-63665000D01*
X178612862Y-63446534D01*
X179016534Y-63042862D01*
X179235000Y-62515439D01*
X179235000Y-61944561D01*
X179016534Y-61417138D01*
X178612862Y-61013466D01*
X178085439Y-60795000D01*
X177514561Y-60795000D01*
X176987138Y-61013466D01*
X176583466Y-61417138D01*
X176365000Y-61944561D01*
X175625000Y-61944561D01*
X175625000Y-61904778D01*
X175376086Y-61303847D01*
X174916153Y-60843914D01*
X174315222Y-60595000D01*
X173664778Y-60595000D01*
X173063847Y-60843914D01*
X172603914Y-61303847D01*
X172355000Y-61904778D01*
X169693522Y-61904778D01*
X169491534Y-61417138D01*
X169087862Y-61013466D01*
X168560439Y-60795000D01*
X167989561Y-60795000D01*
X167462138Y-61013466D01*
X167058466Y-61417138D01*
X166840000Y-61944561D01*
X166100000Y-61944561D01*
X166100000Y-61904778D01*
X165851086Y-61303847D01*
X165391153Y-60843914D01*
X164790222Y-60595000D01*
X164139778Y-60595000D01*
X163538847Y-60843914D01*
X163078914Y-61303847D01*
X162830000Y-61904778D01*
X147447000Y-61904778D01*
X147447000Y-59576792D01*
X157162375Y-59576792D01*
X157162375Y-59930458D01*
X157297717Y-60257203D01*
X157547797Y-60507283D01*
X157874542Y-60642625D01*
X158228208Y-60642625D01*
X158554953Y-60507283D01*
X158805033Y-60257203D01*
X158940375Y-59930458D01*
X158940375Y-59576792D01*
X158805033Y-59250047D01*
X158554953Y-58999967D01*
X158228208Y-58864625D01*
X157874542Y-58864625D01*
X157547797Y-58999967D01*
X157297717Y-59250047D01*
X157162375Y-59576792D01*
X147447000Y-59576792D01*
X147447000Y-56515000D01*
X152434051Y-56515000D01*
X152576469Y-57230981D01*
X152982039Y-57837961D01*
X153589019Y-58243531D01*
X154124273Y-58350000D01*
X154485727Y-58350000D01*
X155020981Y-58243531D01*
X155627961Y-57837961D01*
X156033531Y-57230981D01*
X156175949Y-56515000D01*
X156033531Y-55799019D01*
X155627961Y-55192039D01*
X155020981Y-54786469D01*
X154485727Y-54680000D01*
X154124273Y-54680000D01*
X153589019Y-54786469D01*
X152982039Y-55192039D01*
X152576469Y-55799019D01*
X152434051Y-56515000D01*
X147447000Y-56515000D01*
X147447000Y-54284778D01*
X162830000Y-54284778D01*
X162830000Y-54935222D01*
X163078914Y-55536153D01*
X163538847Y-55996086D01*
X164139778Y-56245000D01*
X164790222Y-56245000D01*
X165391153Y-55996086D01*
X165851086Y-55536153D01*
X166100000Y-54935222D01*
X166100000Y-54610000D01*
X166811887Y-54610000D01*
X166923260Y-55169909D01*
X167240423Y-55644577D01*
X167715091Y-55961740D01*
X168133667Y-56045000D01*
X168416333Y-56045000D01*
X168834909Y-55961740D01*
X169309577Y-55644577D01*
X169626740Y-55169909D01*
X169738113Y-54610000D01*
X169673423Y-54284778D01*
X172355000Y-54284778D01*
X172355000Y-54935222D01*
X172603914Y-55536153D01*
X173063847Y-55996086D01*
X173664778Y-56245000D01*
X174315222Y-56245000D01*
X174916153Y-55996086D01*
X175376086Y-55536153D01*
X175625000Y-54935222D01*
X175625000Y-54610000D01*
X176336887Y-54610000D01*
X176448260Y-55169909D01*
X176765423Y-55644577D01*
X177240091Y-55961740D01*
X177658667Y-56045000D01*
X177941333Y-56045000D01*
X178359909Y-55961740D01*
X178834577Y-55644577D01*
X179151740Y-55169909D01*
X179263113Y-54610000D01*
X179151740Y-54050091D01*
X178834577Y-53575423D01*
X178359909Y-53258260D01*
X177941333Y-53175000D01*
X177658667Y-53175000D01*
X177240091Y-53258260D01*
X176765423Y-53575423D01*
X176448260Y-54050091D01*
X176336887Y-54610000D01*
X175625000Y-54610000D01*
X175625000Y-54284778D01*
X175376086Y-53683847D01*
X174916153Y-53223914D01*
X174315222Y-52975000D01*
X173664778Y-52975000D01*
X173063847Y-53223914D01*
X172603914Y-53683847D01*
X172355000Y-54284778D01*
X169673423Y-54284778D01*
X169626740Y-54050091D01*
X169309577Y-53575423D01*
X168834909Y-53258260D01*
X168416333Y-53175000D01*
X168133667Y-53175000D01*
X167715091Y-53258260D01*
X167240423Y-53575423D01*
X166923260Y-54050091D01*
X166811887Y-54610000D01*
X166100000Y-54610000D01*
X166100000Y-54284778D01*
X165851086Y-53683847D01*
X165391153Y-53223914D01*
X164790222Y-52975000D01*
X164139778Y-52975000D01*
X163538847Y-53223914D01*
X163078914Y-53683847D01*
X162830000Y-54284778D01*
X147447000Y-54284778D01*
X147447000Y-48128996D01*
X147448338Y-48130334D01*
X147975761Y-48348800D01*
X148546639Y-48348800D01*
X149074062Y-48130334D01*
X149477734Y-47726662D01*
X149646200Y-47319950D01*
X149814666Y-47726662D01*
X150218338Y-48130334D01*
X150745761Y-48348800D01*
X151316639Y-48348800D01*
X151844062Y-48130334D01*
X152247734Y-47726662D01*
X152353760Y-47470693D01*
X152353760Y-47713800D01*
X152403043Y-47961565D01*
X152543391Y-48171609D01*
X152753435Y-48311957D01*
X153001200Y-48361240D01*
X154601200Y-48361240D01*
X154848965Y-48311957D01*
X155059009Y-48171609D01*
X155199357Y-47961565D01*
X155248640Y-47713800D01*
X155248640Y-46113800D01*
X155199357Y-45866035D01*
X155059009Y-45655991D01*
X154848965Y-45515643D01*
X154601200Y-45466360D01*
X153001200Y-45466360D01*
X152753435Y-45515643D01*
X152543391Y-45655991D01*
X152403043Y-45866035D01*
X152353760Y-46113800D01*
X152353760Y-46356907D01*
X152247734Y-46100938D01*
X151844062Y-45697266D01*
X151316639Y-45478800D01*
X150745761Y-45478800D01*
X150218338Y-45697266D01*
X149814666Y-46100938D01*
X149646200Y-46507650D01*
X149477734Y-46100938D01*
X149074062Y-45697266D01*
X148546639Y-45478800D01*
X147975761Y-45478800D01*
X147448338Y-45697266D01*
X147447000Y-45698604D01*
X147447000Y-45390599D01*
X147689062Y-45290334D01*
X148092734Y-44886662D01*
X148261200Y-44479950D01*
X148429666Y-44886662D01*
X148833338Y-45290334D01*
X149360761Y-45508800D01*
X149931639Y-45508800D01*
X150459062Y-45290334D01*
X150862734Y-44886662D01*
X151031200Y-44479950D01*
X151199666Y-44886662D01*
X151603338Y-45290334D01*
X152130761Y-45508800D01*
X152701639Y-45508800D01*
X153229062Y-45290334D01*
X153549730Y-44969666D01*
X158126200Y-44969666D01*
X158126200Y-46017934D01*
X158527355Y-46986408D01*
X159268592Y-47727645D01*
X160237066Y-48128800D01*
X161285334Y-48128800D01*
X162253808Y-47727645D01*
X162995045Y-46986408D01*
X163396200Y-46017934D01*
X163396200Y-44969666D01*
X162995045Y-44001192D01*
X162253808Y-43259955D01*
X161285334Y-42858800D01*
X160237066Y-42858800D01*
X159268592Y-43259955D01*
X158527355Y-44001192D01*
X158126200Y-44969666D01*
X153549730Y-44969666D01*
X153632734Y-44886662D01*
X153851200Y-44359239D01*
X153851200Y-43788361D01*
X153632734Y-43260938D01*
X153229062Y-42857266D01*
X152701639Y-42638800D01*
X152130761Y-42638800D01*
X151603338Y-42857266D01*
X151199666Y-43260938D01*
X151031200Y-43667650D01*
X150862734Y-43260938D01*
X150459062Y-42857266D01*
X149931639Y-42638800D01*
X149360761Y-42638800D01*
X148833338Y-42857266D01*
X148429666Y-43260938D01*
X148261200Y-43667650D01*
X148092734Y-43260938D01*
X147689062Y-42857266D01*
X147447000Y-42757001D01*
X147447000Y-38049651D01*
X172764840Y-38049651D01*
X172764840Y-39575309D01*
X173348684Y-40984833D01*
X174427487Y-42063636D01*
X175837011Y-42647480D01*
X177362669Y-42647480D01*
X178772193Y-42063636D01*
X179850996Y-40984833D01*
X180434840Y-39575309D01*
X180434840Y-38049651D01*
X179850996Y-36640127D01*
X178772193Y-35561324D01*
X177362669Y-34977480D01*
X175837011Y-34977480D01*
X174427487Y-35561324D01*
X173348684Y-36640127D01*
X172764840Y-38049651D01*
X147447000Y-38049651D01*
X147447000Y-34509780D01*
X180848000Y-34509780D01*
X180848000Y-135763000D01*
X180848000Y-135763000D01*
G37*
X180848000Y-135763000D02*
X115697000Y-135763000D01*
X115697000Y-130965371D01*
X116100000Y-130965371D01*
X116100000Y-132491029D01*
X116683844Y-133900553D01*
X117762647Y-134979356D01*
X119172171Y-135563200D01*
X120697829Y-135563200D01*
X122107353Y-134979356D01*
X123186156Y-133900553D01*
X123770000Y-132491029D01*
X123770000Y-130965371D01*
X172775000Y-130965371D01*
X172775000Y-132491029D01*
X173358844Y-133900553D01*
X174437647Y-134979356D01*
X175847171Y-135563200D01*
X177372829Y-135563200D01*
X178782353Y-134979356D01*
X179861156Y-133900553D01*
X180445000Y-132491029D01*
X180445000Y-130965371D01*
X179861156Y-129555847D01*
X178782353Y-128477044D01*
X177372829Y-127893200D01*
X175847171Y-127893200D01*
X174437647Y-128477044D01*
X173358844Y-129555847D01*
X172775000Y-130965371D01*
X123770000Y-130965371D01*
X123186156Y-129555847D01*
X122107353Y-128477044D01*
X120697829Y-127893200D01*
X119172171Y-127893200D01*
X117762647Y-128477044D01*
X116683844Y-129555847D01*
X116100000Y-130965371D01*
X115697000Y-130965371D01*
X115697000Y-126727466D01*
X129043200Y-126727466D01*
X129043200Y-127775734D01*
X129444355Y-128744208D01*
X130185592Y-129485445D01*
X131154066Y-129886600D01*
X132202334Y-129886600D01*
X133170808Y-129485445D01*
X133912045Y-128744208D01*
X134060352Y-128386161D01*
X138583200Y-128386161D01*
X138583200Y-128957039D01*
X138801666Y-129484462D01*
X139205338Y-129888134D01*
X139732761Y-130106600D01*
X140303639Y-130106600D01*
X140831062Y-129888134D01*
X141234734Y-129484462D01*
X141403200Y-129077750D01*
X141571666Y-129484462D01*
X141975338Y-129888134D01*
X142502761Y-130106600D01*
X143073639Y-130106600D01*
X143601062Y-129888134D01*
X144004734Y-129484462D01*
X144173200Y-129077750D01*
X144341666Y-129484462D01*
X144745338Y-129888134D01*
X145272761Y-130106600D01*
X145843639Y-130106600D01*
X146371062Y-129888134D01*
X146774734Y-129484462D01*
X146943200Y-129077750D01*
X147111666Y-129484462D01*
X147515338Y-129888134D01*
X148042761Y-130106600D01*
X148613639Y-130106600D01*
X149141062Y-129888134D01*
X149544734Y-129484462D01*
X149713200Y-129077750D01*
X149881666Y-129484462D01*
X150285338Y-129888134D01*
X150812761Y-130106600D01*
X151383639Y-130106600D01*
X151911062Y-129888134D01*
X152314734Y-129484462D01*
X152483200Y-129077750D01*
X152651666Y-129484462D01*
X153055338Y-129888134D01*
X153582761Y-130106600D01*
X154153639Y-130106600D01*
X154681062Y-129888134D01*
X155084734Y-129484462D01*
X155253200Y-129077750D01*
X155421666Y-129484462D01*
X155825338Y-129888134D01*
X156352761Y-130106600D01*
X156923639Y-130106600D01*
X157451062Y-129888134D01*
X157854734Y-129484462D01*
X158073200Y-128957039D01*
X158073200Y-128386161D01*
X157854734Y-127858738D01*
X157451062Y-127455066D01*
X156923639Y-127236600D01*
X156352761Y-127236600D01*
X155825338Y-127455066D01*
X155421666Y-127858738D01*
X155253200Y-128265450D01*
X155084734Y-127858738D01*
X154681062Y-127455066D01*
X154153639Y-127236600D01*
X153582761Y-127236600D01*
X153055338Y-127455066D01*
X152651666Y-127858738D01*
X152483200Y-128265450D01*
X152314734Y-127858738D01*
X151911062Y-127455066D01*
X151383639Y-127236600D01*
X150812761Y-127236600D01*
X150285338Y-127455066D01*
X149881666Y-127858738D01*
X149713200Y-128265450D01*
X149544734Y-127858738D01*
X149141062Y-127455066D01*
X148613639Y-127236600D01*
X148042761Y-127236600D01*
X147515338Y-127455066D01*
X147111666Y-127858738D01*
X146943200Y-128265450D01*
X146774734Y-127858738D01*
X146371062Y-127455066D01*
X145843639Y-127236600D01*
X145272761Y-127236600D01*
X144745338Y-127455066D01*
X144341666Y-127858738D01*
X144173200Y-128265450D01*
X144004734Y-127858738D01*
X143601062Y-127455066D01*
X143073639Y-127236600D01*
X142502761Y-127236600D01*
X141975338Y-127455066D01*
X141571666Y-127858738D01*
X141403200Y-128265450D01*
X141234734Y-127858738D01*
X140831062Y-127455066D01*
X140303639Y-127236600D01*
X139732761Y-127236600D01*
X139205338Y-127455066D01*
X138801666Y-127858738D01*
X138583200Y-128386161D01*
X134060352Y-128386161D01*
X134313200Y-127775734D01*
X134313200Y-126727466D01*
X133912045Y-125758992D01*
X133184653Y-125031600D01*
X137185760Y-125031600D01*
X137185760Y-126631600D01*
X137235043Y-126879365D01*
X137375391Y-127089409D01*
X137585435Y-127229757D01*
X137833200Y-127279040D01*
X139433200Y-127279040D01*
X139680965Y-127229757D01*
X139891009Y-127089409D01*
X140031357Y-126879365D01*
X140080640Y-126631600D01*
X140080640Y-126388493D01*
X140186666Y-126644462D01*
X140590338Y-127048134D01*
X141117761Y-127266600D01*
X141688639Y-127266600D01*
X142216062Y-127048134D01*
X142424851Y-126839345D01*
X143345061Y-126839345D01*
X143419195Y-127085464D01*
X143956423Y-127278565D01*
X144526654Y-127251378D01*
X144927205Y-127085464D01*
X145001339Y-126839345D01*
X144173200Y-126011205D01*
X143345061Y-126839345D01*
X142424851Y-126839345D01*
X142619734Y-126644462D01*
X142781725Y-126253382D01*
X142919336Y-126585605D01*
X143165455Y-126659739D01*
X143993595Y-125831600D01*
X144352805Y-125831600D01*
X145180945Y-126659739D01*
X145427064Y-126585605D01*
X145554932Y-126229861D01*
X145726666Y-126644462D01*
X146130338Y-127048134D01*
X146657761Y-127266600D01*
X147228639Y-127266600D01*
X147756062Y-127048134D01*
X148159734Y-126644462D01*
X148328200Y-126237750D01*
X148496666Y-126644462D01*
X148900338Y-127048134D01*
X149427761Y-127266600D01*
X149998639Y-127266600D01*
X150526062Y-127048134D01*
X150929734Y-126644462D01*
X151098200Y-126237750D01*
X151266666Y-126644462D01*
X151670338Y-127048134D01*
X152197761Y-127266600D01*
X152768639Y-127266600D01*
X153296062Y-127048134D01*
X153699734Y-126644462D01*
X153868200Y-126237750D01*
X154036666Y-126644462D01*
X154440338Y-127048134D01*
X154967761Y-127266600D01*
X155538639Y-127266600D01*
X156066062Y-127048134D01*
X156469734Y-126644462D01*
X156638200Y-126237750D01*
X156806666Y-126644462D01*
X157210338Y-127048134D01*
X157737761Y-127266600D01*
X158308639Y-127266600D01*
X158836062Y-127048134D01*
X159156730Y-126727466D01*
X162343200Y-126727466D01*
X162343200Y-127775734D01*
X162744355Y-128744208D01*
X163485592Y-129485445D01*
X164454066Y-129886600D01*
X165502334Y-129886600D01*
X166470808Y-129485445D01*
X167212045Y-128744208D01*
X167613200Y-127775734D01*
X167613200Y-126727466D01*
X167212045Y-125758992D01*
X166470808Y-125017755D01*
X165502334Y-124616600D01*
X164454066Y-124616600D01*
X163485592Y-125017755D01*
X162744355Y-125758992D01*
X162343200Y-126727466D01*
X159156730Y-126727466D01*
X159239734Y-126644462D01*
X159458200Y-126117039D01*
X159458200Y-125546161D01*
X159239734Y-125018738D01*
X158836062Y-124615066D01*
X158308639Y-124396600D01*
X157737761Y-124396600D01*
X157210338Y-124615066D01*
X156806666Y-125018738D01*
X156638200Y-125425450D01*
X156469734Y-125018738D01*
X156066062Y-124615066D01*
X155538639Y-124396600D01*
X154967761Y-124396600D01*
X154440338Y-124615066D01*
X154036666Y-125018738D01*
X153868200Y-125425450D01*
X153699734Y-125018738D01*
X153296062Y-124615066D01*
X152768639Y-124396600D01*
X152197761Y-124396600D01*
X151670338Y-124615066D01*
X151266666Y-125018738D01*
X151098200Y-125425450D01*
X150929734Y-125018738D01*
X150526062Y-124615066D01*
X149998639Y-124396600D01*
X149427761Y-124396600D01*
X148900338Y-124615066D01*
X148496666Y-125018738D01*
X148328200Y-125425450D01*
X148159734Y-125018738D01*
X147756062Y-124615066D01*
X147228639Y-124396600D01*
X146657761Y-124396600D01*
X146130338Y-124615066D01*
X145726666Y-125018738D01*
X145564675Y-125409818D01*
X145427064Y-125077595D01*
X145180945Y-125003461D01*
X144352805Y-125831600D01*
X143993595Y-125831600D01*
X143165455Y-125003461D01*
X142919336Y-125077595D01*
X142791468Y-125433339D01*
X142619734Y-125018738D01*
X142424851Y-124823855D01*
X143345061Y-124823855D01*
X144173200Y-125651995D01*
X145001339Y-124823855D01*
X144927205Y-124577736D01*
X144389977Y-124384635D01*
X143819746Y-124411822D01*
X143419195Y-124577736D01*
X143345061Y-124823855D01*
X142424851Y-124823855D01*
X142216062Y-124615066D01*
X141688639Y-124396600D01*
X141117761Y-124396600D01*
X140590338Y-124615066D01*
X140186666Y-125018738D01*
X140080640Y-125274707D01*
X140080640Y-125031600D01*
X140031357Y-124783835D01*
X139891009Y-124573791D01*
X139680965Y-124433443D01*
X139433200Y-124384160D01*
X137833200Y-124384160D01*
X137585435Y-124433443D01*
X137375391Y-124573791D01*
X137235043Y-124783835D01*
X137185760Y-125031600D01*
X133184653Y-125031600D01*
X133170808Y-125017755D01*
X132202334Y-124616600D01*
X131154066Y-124616600D01*
X130185592Y-125017755D01*
X129444355Y-125758992D01*
X129043200Y-126727466D01*
X115697000Y-126727466D01*
X115697000Y-119850000D01*
X120472560Y-119850000D01*
X120472560Y-121450000D01*
X120521843Y-121697765D01*
X120662191Y-121907809D01*
X120872235Y-122048157D01*
X121120000Y-122097440D01*
X122720000Y-122097440D01*
X122967765Y-122048157D01*
X123177809Y-121907809D01*
X123318157Y-121697765D01*
X123344785Y-121563894D01*
X123425423Y-121684577D01*
X123900091Y-122001740D01*
X124318667Y-122085000D01*
X124601333Y-122085000D01*
X125019909Y-122001740D01*
X125494577Y-121684577D01*
X125730000Y-121332242D01*
X125965423Y-121684577D01*
X126440091Y-122001740D01*
X126858667Y-122085000D01*
X127141333Y-122085000D01*
X127559909Y-122001740D01*
X128034577Y-121684577D01*
X128270000Y-121332242D01*
X128505423Y-121684577D01*
X128980091Y-122001740D01*
X129398667Y-122085000D01*
X129681333Y-122085000D01*
X130099909Y-122001740D01*
X130574577Y-121684577D01*
X130891740Y-121209909D01*
X131003113Y-120650000D01*
X130891740Y-120090091D01*
X130574577Y-119615423D01*
X130099909Y-119298260D01*
X129681333Y-119215000D01*
X129398667Y-119215000D01*
X128980091Y-119298260D01*
X128505423Y-119615423D01*
X128270000Y-119967758D01*
X128034577Y-119615423D01*
X127559909Y-119298260D01*
X127141333Y-119215000D01*
X126858667Y-119215000D01*
X126440091Y-119298260D01*
X125965423Y-119615423D01*
X125730000Y-119967758D01*
X125494577Y-119615423D01*
X125019909Y-119298260D01*
X124601333Y-119215000D01*
X124318667Y-119215000D01*
X123900091Y-119298260D01*
X123425423Y-119615423D01*
X123344785Y-119736106D01*
X123318157Y-119602235D01*
X123177809Y-119392191D01*
X122967765Y-119251843D01*
X122720000Y-119202560D01*
X121120000Y-119202560D01*
X120872235Y-119251843D01*
X120662191Y-119392191D01*
X120521843Y-119602235D01*
X120472560Y-119850000D01*
X115697000Y-119850000D01*
X115697000Y-116663167D01*
X140321000Y-116663167D01*
X140321000Y-117016833D01*
X140456342Y-117343578D01*
X140706422Y-117593658D01*
X141033167Y-117729000D01*
X141386833Y-117729000D01*
X141713578Y-117593658D01*
X141963658Y-117343578D01*
X142099000Y-117016833D01*
X142099000Y-116663167D01*
X153416000Y-116663167D01*
X153416000Y-117016833D01*
X153551342Y-117343578D01*
X153801422Y-117593658D01*
X154128167Y-117729000D01*
X154481833Y-117729000D01*
X154808578Y-117593658D01*
X155058658Y-117343578D01*
X155194000Y-117016833D01*
X155194000Y-116663167D01*
X155132536Y-116514778D01*
X166640000Y-116514778D01*
X166640000Y-117165222D01*
X166888914Y-117766153D01*
X167348847Y-118226086D01*
X167949778Y-118475000D01*
X168600222Y-118475000D01*
X169201153Y-118226086D01*
X169661086Y-117766153D01*
X169910000Y-117165222D01*
X169910000Y-116514778D01*
X172750000Y-116514778D01*
X172750000Y-117165222D01*
X172998914Y-117766153D01*
X173458847Y-118226086D01*
X174059778Y-118475000D01*
X174710222Y-118475000D01*
X175311153Y-118226086D01*
X175771086Y-117766153D01*
X176020000Y-117165222D01*
X176020000Y-116514778D01*
X175771086Y-115913847D01*
X175311153Y-115453914D01*
X174710222Y-115205000D01*
X174059778Y-115205000D01*
X173458847Y-115453914D01*
X172998914Y-115913847D01*
X172750000Y-116514778D01*
X169910000Y-116514778D01*
X169661086Y-115913847D01*
X169201153Y-115453914D01*
X168600222Y-115205000D01*
X167949778Y-115205000D01*
X167348847Y-115453914D01*
X166888914Y-115913847D01*
X166640000Y-116514778D01*
X155132536Y-116514778D01*
X155058658Y-116336422D01*
X154808578Y-116086342D01*
X154481833Y-115951000D01*
X154128167Y-115951000D01*
X153801422Y-116086342D01*
X153551342Y-116336422D01*
X153416000Y-116663167D01*
X142099000Y-116663167D01*
X141963658Y-116336422D01*
X141713578Y-116086342D01*
X141386833Y-115951000D01*
X141033167Y-115951000D01*
X140706422Y-116086342D01*
X140456342Y-116336422D01*
X140321000Y-116663167D01*
X115697000Y-116663167D01*
X115697000Y-114758167D01*
X143871000Y-114758167D01*
X143871000Y-115111833D01*
X144006342Y-115438578D01*
X144256422Y-115688658D01*
X144583167Y-115824000D01*
X144936833Y-115824000D01*
X145263578Y-115688658D01*
X145513658Y-115438578D01*
X145649000Y-115111833D01*
X145649000Y-114758167D01*
X145513658Y-114431422D01*
X145263578Y-114181342D01*
X144978278Y-114063167D01*
X146371000Y-114063167D01*
X146371000Y-114416833D01*
X146506342Y-114743578D01*
X146756422Y-114993658D01*
X147083167Y-115129000D01*
X147436833Y-115129000D01*
X147763578Y-114993658D01*
X148013658Y-114743578D01*
X148149000Y-114416833D01*
X148149000Y-114063167D01*
X148013658Y-113736422D01*
X147763578Y-113486342D01*
X147436833Y-113351000D01*
X147083167Y-113351000D01*
X146756422Y-113486342D01*
X146506342Y-113736422D01*
X146371000Y-114063167D01*
X144978278Y-114063167D01*
X144936833Y-114046000D01*
X144583167Y-114046000D01*
X144256422Y-114181342D01*
X144006342Y-114431422D01*
X143871000Y-114758167D01*
X115697000Y-114758167D01*
X115697000Y-113030000D01*
X120456887Y-113030000D01*
X120568260Y-113589909D01*
X120885423Y-114064577D01*
X121360091Y-114381740D01*
X121778667Y-114465000D01*
X122061333Y-114465000D01*
X122479909Y-114381740D01*
X122954577Y-114064577D01*
X123190000Y-113712242D01*
X123425423Y-114064577D01*
X123900091Y-114381740D01*
X124318667Y-114465000D01*
X124601333Y-114465000D01*
X125019909Y-114381740D01*
X125494577Y-114064577D01*
X125730000Y-113712242D01*
X125965423Y-114064577D01*
X126440091Y-114381740D01*
X126858667Y-114465000D01*
X127141333Y-114465000D01*
X127559909Y-114381740D01*
X128034577Y-114064577D01*
X128270000Y-113712242D01*
X128505423Y-114064577D01*
X128980091Y-114381740D01*
X129398667Y-114465000D01*
X129681333Y-114465000D01*
X130099909Y-114381740D01*
X130574577Y-114064577D01*
X130891740Y-113589909D01*
X131003113Y-113030000D01*
X130891740Y-112470091D01*
X130574577Y-111995423D01*
X130099909Y-111678260D01*
X129681333Y-111595000D01*
X129398667Y-111595000D01*
X128980091Y-111678260D01*
X128505423Y-111995423D01*
X128270000Y-112347758D01*
X128034577Y-111995423D01*
X127559909Y-111678260D01*
X127141333Y-111595000D01*
X126858667Y-111595000D01*
X126440091Y-111678260D01*
X125965423Y-111995423D01*
X125730000Y-112347758D01*
X125494577Y-111995423D01*
X125019909Y-111678260D01*
X124601333Y-111595000D01*
X124318667Y-111595000D01*
X123900091Y-111678260D01*
X123425423Y-111995423D01*
X123190000Y-112347758D01*
X122954577Y-111995423D01*
X122479909Y-111678260D01*
X122061333Y-111595000D01*
X121778667Y-111595000D01*
X121360091Y-111678260D01*
X120885423Y-111995423D01*
X120568260Y-112470091D01*
X120456887Y-113030000D01*
X115697000Y-113030000D01*
X115697000Y-110948167D01*
X145796000Y-110948167D01*
X145796000Y-111301833D01*
X145931342Y-111628578D01*
X146181422Y-111878658D01*
X146508167Y-112014000D01*
X146861833Y-112014000D01*
X147166104Y-111887967D01*
X154239367Y-111887967D01*
X154239367Y-112241633D01*
X154374709Y-112568378D01*
X154624789Y-112818458D01*
X154951534Y-112953800D01*
X155305200Y-112953800D01*
X155631945Y-112818458D01*
X155882025Y-112568378D01*
X156017367Y-112241633D01*
X156017367Y-111887967D01*
X155882025Y-111561222D01*
X155631945Y-111311142D01*
X155305200Y-111175800D01*
X154951534Y-111175800D01*
X154624789Y-111311142D01*
X154374709Y-111561222D01*
X154239367Y-111887967D01*
X147166104Y-111887967D01*
X147188578Y-111878658D01*
X147438658Y-111628578D01*
X147574000Y-111301833D01*
X147574000Y-110948167D01*
X147438658Y-110621422D01*
X147188578Y-110371342D01*
X146861833Y-110236000D01*
X146508167Y-110236000D01*
X146181422Y-110371342D01*
X145931342Y-110621422D01*
X145796000Y-110948167D01*
X115697000Y-110948167D01*
X115697000Y-109043167D01*
X135181000Y-109043167D01*
X135181000Y-109396833D01*
X135316342Y-109723578D01*
X135566422Y-109973658D01*
X135893167Y-110109000D01*
X136246833Y-110109000D01*
X136573578Y-109973658D01*
X136823658Y-109723578D01*
X136959000Y-109396833D01*
X136959000Y-109043167D01*
X157226000Y-109043167D01*
X157226000Y-109396833D01*
X157361342Y-109723578D01*
X157611422Y-109973658D01*
X157938167Y-110109000D01*
X158291833Y-110109000D01*
X158618578Y-109973658D01*
X158868658Y-109723578D01*
X159004000Y-109396833D01*
X159004000Y-109043167D01*
X158868658Y-108716422D01*
X158618578Y-108466342D01*
X158291833Y-108331000D01*
X157938167Y-108331000D01*
X157611422Y-108466342D01*
X157361342Y-108716422D01*
X157226000Y-109043167D01*
X136959000Y-109043167D01*
X136823658Y-108716422D01*
X136573578Y-108466342D01*
X136246833Y-108331000D01*
X135893167Y-108331000D01*
X135566422Y-108466342D01*
X135316342Y-108716422D01*
X135181000Y-109043167D01*
X115697000Y-109043167D01*
X115697000Y-107253167D01*
X152781000Y-107253167D01*
X152781000Y-107606833D01*
X152855048Y-107785602D01*
X152781000Y-107964370D01*
X152781000Y-108318036D01*
X152916342Y-108644781D01*
X153166422Y-108894861D01*
X153493167Y-109030203D01*
X153846833Y-109030203D01*
X154173578Y-108894861D01*
X154423658Y-108644781D01*
X154559000Y-108318036D01*
X154559000Y-107964370D01*
X154484952Y-107785602D01*
X154559000Y-107606833D01*
X154559000Y-107253167D01*
X154511366Y-107138167D01*
X164211000Y-107138167D01*
X164211000Y-107491833D01*
X164346342Y-107818578D01*
X164596422Y-108068658D01*
X164923167Y-108204000D01*
X165276833Y-108204000D01*
X165603578Y-108068658D01*
X165853658Y-107818578D01*
X165989000Y-107491833D01*
X165989000Y-107138167D01*
X165853658Y-106811422D01*
X165603578Y-106561342D01*
X165276833Y-106426000D01*
X164923167Y-106426000D01*
X164596422Y-106561342D01*
X164346342Y-106811422D01*
X164211000Y-107138167D01*
X154511366Y-107138167D01*
X154423658Y-106926422D01*
X154173578Y-106676342D01*
X153846833Y-106541000D01*
X153493167Y-106541000D01*
X153166422Y-106676342D01*
X152916342Y-106926422D01*
X152781000Y-107253167D01*
X115697000Y-107253167D01*
X115697000Y-105868167D01*
X118491000Y-105868167D01*
X118491000Y-106221833D01*
X118626342Y-106548578D01*
X118876422Y-106798658D01*
X119203167Y-106934000D01*
X119556833Y-106934000D01*
X119883578Y-106798658D01*
X120133658Y-106548578D01*
X120246398Y-106276398D01*
X120518578Y-106163658D01*
X120768658Y-105913578D01*
X120787467Y-105868167D01*
X121031000Y-105868167D01*
X121031000Y-106221833D01*
X121166342Y-106548578D01*
X121416422Y-106798658D01*
X121743167Y-106934000D01*
X122096833Y-106934000D01*
X122423578Y-106798658D01*
X122673658Y-106548578D01*
X122786398Y-106276398D01*
X123058578Y-106163658D01*
X123308658Y-105913578D01*
X123327467Y-105868167D01*
X123571000Y-105868167D01*
X123571000Y-106221833D01*
X123706342Y-106548578D01*
X123956422Y-106798658D01*
X124283167Y-106934000D01*
X124636833Y-106934000D01*
X124963578Y-106798658D01*
X125213658Y-106548578D01*
X125326398Y-106276398D01*
X125598578Y-106163658D01*
X125848658Y-105913578D01*
X125867467Y-105868167D01*
X126111000Y-105868167D01*
X126111000Y-106221833D01*
X126246342Y-106548578D01*
X126496422Y-106798658D01*
X126823167Y-106934000D01*
X127176833Y-106934000D01*
X127503578Y-106798658D01*
X127753658Y-106548578D01*
X127866398Y-106276398D01*
X128138578Y-106163658D01*
X128388658Y-105913578D01*
X128407467Y-105868167D01*
X139446000Y-105868167D01*
X139446000Y-106221833D01*
X139581342Y-106548578D01*
X139831422Y-106798658D01*
X140158167Y-106934000D01*
X140511833Y-106934000D01*
X140838578Y-106798658D01*
X141088658Y-106548578D01*
X141224000Y-106221833D01*
X141224000Y-105868167D01*
X141088658Y-105541422D01*
X140838578Y-105291342D01*
X140698131Y-105233167D01*
X146431000Y-105233167D01*
X146431000Y-105586833D01*
X146566342Y-105913578D01*
X146816422Y-106163658D01*
X147143167Y-106299000D01*
X147496833Y-106299000D01*
X147823578Y-106163658D01*
X148073658Y-105913578D01*
X148092467Y-105868167D01*
X166116000Y-105868167D01*
X166116000Y-106221833D01*
X166251342Y-106548578D01*
X166501422Y-106798658D01*
X166828167Y-106934000D01*
X167181833Y-106934000D01*
X167508578Y-106798658D01*
X167758658Y-106548578D01*
X167894000Y-106221833D01*
X167894000Y-105868167D01*
X167758658Y-105541422D01*
X167508578Y-105291342D01*
X167181833Y-105156000D01*
X166828167Y-105156000D01*
X166501422Y-105291342D01*
X166251342Y-105541422D01*
X166116000Y-105868167D01*
X148092467Y-105868167D01*
X148209000Y-105586833D01*
X148209000Y-105233167D01*
X148124431Y-105029000D01*
X148131833Y-105029000D01*
X148458578Y-104893658D01*
X148708658Y-104643578D01*
X148727467Y-104598167D01*
X150241000Y-104598167D01*
X150241000Y-104951833D01*
X150376342Y-105278578D01*
X150626422Y-105528658D01*
X150953167Y-105664000D01*
X151306833Y-105664000D01*
X151633578Y-105528658D01*
X151883658Y-105278578D01*
X151996398Y-105006398D01*
X152268578Y-104893658D01*
X152518658Y-104643578D01*
X152654000Y-104316833D01*
X152654000Y-103963167D01*
X152518658Y-103636422D01*
X152268578Y-103386342D01*
X151941833Y-103251000D01*
X151588167Y-103251000D01*
X151261422Y-103386342D01*
X151011342Y-103636422D01*
X150898602Y-103908602D01*
X150626422Y-104021342D01*
X150376342Y-104271422D01*
X150241000Y-104598167D01*
X148727467Y-104598167D01*
X148844000Y-104316833D01*
X148844000Y-103963167D01*
X148708658Y-103636422D01*
X148458578Y-103386342D01*
X148131833Y-103251000D01*
X147778167Y-103251000D01*
X147451422Y-103386342D01*
X147201342Y-103636422D01*
X147066000Y-103963167D01*
X147066000Y-104316833D01*
X147150569Y-104521000D01*
X147143167Y-104521000D01*
X146816422Y-104656342D01*
X146566342Y-104906422D01*
X146431000Y-105233167D01*
X140698131Y-105233167D01*
X140511833Y-105156000D01*
X140158167Y-105156000D01*
X139831422Y-105291342D01*
X139581342Y-105541422D01*
X139446000Y-105868167D01*
X128407467Y-105868167D01*
X128524000Y-105586833D01*
X128524000Y-105233167D01*
X128388658Y-104906422D01*
X128138578Y-104656342D01*
X127811833Y-104521000D01*
X127458167Y-104521000D01*
X127131422Y-104656342D01*
X126881342Y-104906422D01*
X126768602Y-105178602D01*
X126496422Y-105291342D01*
X126246342Y-105541422D01*
X126111000Y-105868167D01*
X125867467Y-105868167D01*
X125984000Y-105586833D01*
X125984000Y-105233167D01*
X125848658Y-104906422D01*
X125598578Y-104656342D01*
X125271833Y-104521000D01*
X124918167Y-104521000D01*
X124591422Y-104656342D01*
X124341342Y-104906422D01*
X124228602Y-105178602D01*
X123956422Y-105291342D01*
X123706342Y-105541422D01*
X123571000Y-105868167D01*
X123327467Y-105868167D01*
X123444000Y-105586833D01*
X123444000Y-105233167D01*
X123308658Y-104906422D01*
X123058578Y-104656342D01*
X122731833Y-104521000D01*
X122378167Y-104521000D01*
X122051422Y-104656342D01*
X121801342Y-104906422D01*
X121688602Y-105178602D01*
X121416422Y-105291342D01*
X121166342Y-105541422D01*
X121031000Y-105868167D01*
X120787467Y-105868167D01*
X120904000Y-105586833D01*
X120904000Y-105233167D01*
X120768658Y-104906422D01*
X120518578Y-104656342D01*
X120191833Y-104521000D01*
X119838167Y-104521000D01*
X119511422Y-104656342D01*
X119261342Y-104906422D01*
X119148602Y-105178602D01*
X118876422Y-105291342D01*
X118626342Y-105541422D01*
X118491000Y-105868167D01*
X115697000Y-105868167D01*
X115697000Y-104242567D01*
X133631600Y-104242567D01*
X133631600Y-104596233D01*
X133766942Y-104922978D01*
X134017022Y-105173058D01*
X134343767Y-105308400D01*
X134697433Y-105308400D01*
X135024178Y-105173058D01*
X135072584Y-105124652D01*
X135136342Y-105278578D01*
X135386422Y-105528658D01*
X135713167Y-105664000D01*
X136066833Y-105664000D01*
X136393578Y-105528658D01*
X136643658Y-105278578D01*
X136779000Y-104951833D01*
X136779000Y-104598167D01*
X136643658Y-104271422D01*
X136393578Y-104021342D01*
X136066833Y-103886000D01*
X135713167Y-103886000D01*
X135386422Y-104021342D01*
X135338016Y-104069748D01*
X135274258Y-103915822D01*
X135024178Y-103665742D01*
X134697433Y-103530400D01*
X134343767Y-103530400D01*
X134017022Y-103665742D01*
X133766942Y-103915822D01*
X133631600Y-104242567D01*
X115697000Y-104242567D01*
X115697000Y-103328167D01*
X138811000Y-103328167D01*
X138811000Y-103681833D01*
X138946342Y-104008578D01*
X139196422Y-104258658D01*
X139523167Y-104394000D01*
X139876833Y-104394000D01*
X140203578Y-104258658D01*
X140453658Y-104008578D01*
X140472467Y-103963167D01*
X140716000Y-103963167D01*
X140716000Y-104316833D01*
X140851342Y-104643578D01*
X141101422Y-104893658D01*
X141428167Y-105029000D01*
X141781833Y-105029000D01*
X142108578Y-104893658D01*
X142358658Y-104643578D01*
X142494000Y-104316833D01*
X142494000Y-103963167D01*
X142409431Y-103759000D01*
X142416833Y-103759000D01*
X142743578Y-103623658D01*
X142993658Y-103373578D01*
X143129000Y-103046833D01*
X143129000Y-102693167D01*
X142993658Y-102366422D01*
X142743578Y-102116342D01*
X142603131Y-102058167D01*
X144526000Y-102058167D01*
X144526000Y-102411833D01*
X144661342Y-102738578D01*
X144911422Y-102988658D01*
X145238167Y-103124000D01*
X145591833Y-103124000D01*
X145918578Y-102988658D01*
X146168658Y-102738578D01*
X146304000Y-102411833D01*
X146304000Y-102235000D01*
X169300908Y-102235000D01*
X169416161Y-102814418D01*
X169744375Y-103305625D01*
X170042761Y-103505000D01*
X169744375Y-103704375D01*
X169416161Y-104195582D01*
X169300908Y-104775000D01*
X169416161Y-105354418D01*
X169744375Y-105845625D01*
X170063478Y-106058843D01*
X169933642Y-106119817D01*
X169543355Y-106548076D01*
X169373524Y-106958110D01*
X169494845Y-107188000D01*
X170688000Y-107188000D01*
X170688000Y-107168000D01*
X170942000Y-107168000D01*
X170942000Y-107188000D01*
X170962000Y-107188000D01*
X170962000Y-107442000D01*
X170942000Y-107442000D01*
X170942000Y-107462000D01*
X170688000Y-107462000D01*
X170688000Y-107442000D01*
X169494845Y-107442000D01*
X169373524Y-107671890D01*
X169543355Y-108081924D01*
X169933642Y-108510183D01*
X170063478Y-108571157D01*
X169744375Y-108784375D01*
X169416161Y-109275582D01*
X169300908Y-109855000D01*
X169416161Y-110434418D01*
X169744375Y-110925625D01*
X170235582Y-111253839D01*
X170668744Y-111340000D01*
X170961256Y-111340000D01*
X171394418Y-111253839D01*
X171885625Y-110925625D01*
X172085000Y-110627239D01*
X172284375Y-110925625D01*
X172775582Y-111253839D01*
X173208744Y-111340000D01*
X173501256Y-111340000D01*
X173934418Y-111253839D01*
X174425625Y-110925625D01*
X174753839Y-110434418D01*
X174869092Y-109855000D01*
X174753839Y-109275582D01*
X174425625Y-108784375D01*
X174127239Y-108585000D01*
X174425625Y-108385625D01*
X174753839Y-107894418D01*
X174869092Y-107315000D01*
X174753839Y-106735582D01*
X174425625Y-106244375D01*
X174127239Y-106045000D01*
X174425625Y-105845625D01*
X174753839Y-105354418D01*
X174869092Y-104775000D01*
X174753839Y-104195582D01*
X174425625Y-103704375D01*
X174127239Y-103505000D01*
X174425625Y-103305625D01*
X174753839Y-102814418D01*
X174869092Y-102235000D01*
X174753839Y-101655582D01*
X174425625Y-101164375D01*
X174127239Y-100965000D01*
X174425625Y-100765625D01*
X174753839Y-100274418D01*
X174869092Y-99695000D01*
X174753839Y-99115582D01*
X174425625Y-98624375D01*
X173934418Y-98296161D01*
X173501256Y-98210000D01*
X173208744Y-98210000D01*
X172775582Y-98296161D01*
X172284375Y-98624375D01*
X172272184Y-98642619D01*
X172263157Y-98597235D01*
X172122809Y-98387191D01*
X171912765Y-98246843D01*
X171665000Y-98197560D01*
X169965000Y-98197560D01*
X169717235Y-98246843D01*
X169507191Y-98387191D01*
X169366843Y-98597235D01*
X169317560Y-98845000D01*
X169317560Y-100545000D01*
X169366843Y-100792765D01*
X169507191Y-101002809D01*
X169717235Y-101143157D01*
X169762619Y-101152184D01*
X169744375Y-101164375D01*
X169416161Y-101655582D01*
X169300908Y-102235000D01*
X146304000Y-102235000D01*
X146304000Y-102058167D01*
X146168658Y-101731422D01*
X145918578Y-101481342D01*
X145591833Y-101346000D01*
X145238167Y-101346000D01*
X144911422Y-101481342D01*
X144661342Y-101731422D01*
X144526000Y-102058167D01*
X142603131Y-102058167D01*
X142416833Y-101981000D01*
X142063167Y-101981000D01*
X141736422Y-102116342D01*
X141486342Y-102366422D01*
X141351000Y-102693167D01*
X141351000Y-103046833D01*
X141435569Y-103251000D01*
X141428167Y-103251000D01*
X141101422Y-103386342D01*
X140851342Y-103636422D01*
X140716000Y-103963167D01*
X140472467Y-103963167D01*
X140589000Y-103681833D01*
X140589000Y-103328167D01*
X140453658Y-103001422D01*
X140203578Y-102751342D01*
X139876833Y-102616000D01*
X139523167Y-102616000D01*
X139196422Y-102751342D01*
X138946342Y-103001422D01*
X138811000Y-103328167D01*
X115697000Y-103328167D01*
X115697000Y-102058167D01*
X135636000Y-102058167D01*
X135636000Y-102411833D01*
X135771342Y-102738578D01*
X136021422Y-102988658D01*
X136348167Y-103124000D01*
X136701833Y-103124000D01*
X137028578Y-102988658D01*
X137278658Y-102738578D01*
X137414000Y-102411833D01*
X137414000Y-102058167D01*
X137278658Y-101731422D01*
X137028578Y-101481342D01*
X136701833Y-101346000D01*
X136348167Y-101346000D01*
X136021422Y-101481342D01*
X135771342Y-101731422D01*
X135636000Y-102058167D01*
X115697000Y-102058167D01*
X115697000Y-100788167D01*
X119126000Y-100788167D01*
X119126000Y-101141833D01*
X119261342Y-101468578D01*
X119511422Y-101718658D01*
X119838167Y-101854000D01*
X120191833Y-101854000D01*
X120518578Y-101718658D01*
X120768658Y-101468578D01*
X120904000Y-101141833D01*
X120904000Y-100788167D01*
X123571000Y-100788167D01*
X123571000Y-101141833D01*
X123706342Y-101468578D01*
X123956422Y-101718658D01*
X124283167Y-101854000D01*
X124636833Y-101854000D01*
X124963578Y-101718658D01*
X125213658Y-101468578D01*
X125349000Y-101141833D01*
X125349000Y-100788167D01*
X125290865Y-100647815D01*
X125404778Y-100695000D01*
X126055222Y-100695000D01*
X126656153Y-100446086D01*
X127116086Y-99986153D01*
X127365000Y-99385222D01*
X127365000Y-98734778D01*
X127163439Y-98248167D01*
X131826000Y-98248167D01*
X131826000Y-98601833D01*
X131961342Y-98928578D01*
X132211422Y-99178658D01*
X132538167Y-99314000D01*
X132891833Y-99314000D01*
X133218578Y-99178658D01*
X133468658Y-98928578D01*
X133487467Y-98883167D01*
X133731000Y-98883167D01*
X133731000Y-99236833D01*
X133866342Y-99563578D01*
X134116422Y-99813658D01*
X134443167Y-99949000D01*
X134796833Y-99949000D01*
X135123578Y-99813658D01*
X135373658Y-99563578D01*
X135509000Y-99236833D01*
X135509000Y-98883167D01*
X136906000Y-98883167D01*
X136906000Y-99236833D01*
X137041342Y-99563578D01*
X137291422Y-99813658D01*
X137618167Y-99949000D01*
X137971833Y-99949000D01*
X138298578Y-99813658D01*
X138430000Y-99682236D01*
X138561422Y-99813658D01*
X138888167Y-99949000D01*
X139241833Y-99949000D01*
X139446000Y-99864431D01*
X139446000Y-99871833D01*
X139581342Y-100198578D01*
X139831422Y-100448658D01*
X140158167Y-100584000D01*
X140511833Y-100584000D01*
X140838578Y-100448658D01*
X140970000Y-100317236D01*
X141101422Y-100448658D01*
X141428167Y-100584000D01*
X141781833Y-100584000D01*
X142108578Y-100448658D01*
X142358658Y-100198578D01*
X142494000Y-99871833D01*
X142494000Y-99518167D01*
X142358658Y-99191422D01*
X142108578Y-98941342D01*
X141968131Y-98883167D01*
X142621000Y-98883167D01*
X142621000Y-99236833D01*
X142756342Y-99563578D01*
X143006422Y-99813658D01*
X143333167Y-99949000D01*
X143686833Y-99949000D01*
X144013578Y-99813658D01*
X144263658Y-99563578D01*
X144282467Y-99518167D01*
X146431000Y-99518167D01*
X146431000Y-99871833D01*
X146566342Y-100198578D01*
X146816422Y-100448658D01*
X147143167Y-100584000D01*
X147496833Y-100584000D01*
X147823578Y-100448658D01*
X148073658Y-100198578D01*
X148209000Y-99871833D01*
X148209000Y-99518167D01*
X148073658Y-99191422D01*
X147823578Y-98941342D01*
X147496833Y-98806000D01*
X147143167Y-98806000D01*
X146816422Y-98941342D01*
X146566342Y-99191422D01*
X146431000Y-99518167D01*
X144282467Y-99518167D01*
X144399000Y-99236833D01*
X144399000Y-98883167D01*
X144299589Y-98643167D01*
X153111200Y-98643167D01*
X153111200Y-98996833D01*
X153246542Y-99323578D01*
X153496622Y-99573658D01*
X153823367Y-99709000D01*
X154177033Y-99709000D01*
X154503778Y-99573658D01*
X154753858Y-99323578D01*
X154889200Y-98996833D01*
X154889200Y-98643167D01*
X154753858Y-98316422D01*
X154685603Y-98248167D01*
X162941000Y-98248167D01*
X162941000Y-98601833D01*
X163076342Y-98928578D01*
X163326422Y-99178658D01*
X163653167Y-99314000D01*
X164006833Y-99314000D01*
X164333578Y-99178658D01*
X164583658Y-98928578D01*
X164719000Y-98601833D01*
X164719000Y-98248167D01*
X164583658Y-97921422D01*
X164333578Y-97671342D01*
X164006833Y-97536000D01*
X163653167Y-97536000D01*
X163326422Y-97671342D01*
X163076342Y-97921422D01*
X162941000Y-98248167D01*
X154685603Y-98248167D01*
X154503778Y-98066342D01*
X154177033Y-97931000D01*
X153823367Y-97931000D01*
X153496622Y-98066342D01*
X153246542Y-98316422D01*
X153111200Y-98643167D01*
X144299589Y-98643167D01*
X144263658Y-98556422D01*
X144013578Y-98306342D01*
X143686833Y-98171000D01*
X143333167Y-98171000D01*
X143006422Y-98306342D01*
X142756342Y-98556422D01*
X142621000Y-98883167D01*
X141968131Y-98883167D01*
X141781833Y-98806000D01*
X141428167Y-98806000D01*
X141101422Y-98941342D01*
X140970000Y-99072764D01*
X140838578Y-98941342D01*
X140511833Y-98806000D01*
X140158167Y-98806000D01*
X139954000Y-98890569D01*
X139954000Y-98883167D01*
X139818658Y-98556422D01*
X139568578Y-98306342D01*
X139241833Y-98171000D01*
X138888167Y-98171000D01*
X138561422Y-98306342D01*
X138430000Y-98437764D01*
X138298578Y-98306342D01*
X137971833Y-98171000D01*
X137618167Y-98171000D01*
X137291422Y-98306342D01*
X137041342Y-98556422D01*
X136906000Y-98883167D01*
X135509000Y-98883167D01*
X135373658Y-98556422D01*
X135123578Y-98306342D01*
X134796833Y-98171000D01*
X134443167Y-98171000D01*
X134116422Y-98306342D01*
X133866342Y-98556422D01*
X133731000Y-98883167D01*
X133487467Y-98883167D01*
X133604000Y-98601833D01*
X133604000Y-98248167D01*
X133468658Y-97921422D01*
X133218578Y-97671342D01*
X132891833Y-97536000D01*
X132538167Y-97536000D01*
X132211422Y-97671342D01*
X131961342Y-97921422D01*
X131826000Y-98248167D01*
X127163439Y-98248167D01*
X127116086Y-98133847D01*
X126656153Y-97673914D01*
X126055222Y-97425000D01*
X125404778Y-97425000D01*
X124803847Y-97673914D01*
X124343914Y-98133847D01*
X124095000Y-98734778D01*
X124095000Y-99385222D01*
X124343914Y-99986153D01*
X124433761Y-100076000D01*
X124283167Y-100076000D01*
X123956422Y-100211342D01*
X123706342Y-100461422D01*
X123571000Y-100788167D01*
X120904000Y-100788167D01*
X120768658Y-100461422D01*
X120518578Y-100211342D01*
X120191833Y-100076000D01*
X119838167Y-100076000D01*
X119511422Y-100211342D01*
X119261342Y-100461422D01*
X119126000Y-100788167D01*
X115697000Y-100788167D01*
X115697000Y-94289778D01*
X124095000Y-94289778D01*
X124095000Y-94940222D01*
X124343914Y-95541153D01*
X124803847Y-96001086D01*
X125404778Y-96250000D01*
X126055222Y-96250000D01*
X126656153Y-96001086D01*
X126949072Y-95708167D01*
X131826000Y-95708167D01*
X131826000Y-96061833D01*
X131961342Y-96388578D01*
X132211422Y-96638658D01*
X132538167Y-96774000D01*
X132891833Y-96774000D01*
X133218578Y-96638658D01*
X133468658Y-96388578D01*
X133604000Y-96061833D01*
X133604000Y-95708167D01*
X142621000Y-95708167D01*
X142621000Y-96061833D01*
X142756342Y-96388578D01*
X143006422Y-96638658D01*
X143333167Y-96774000D01*
X143686833Y-96774000D01*
X144013578Y-96638658D01*
X144263658Y-96388578D01*
X144399000Y-96061833D01*
X144399000Y-95708167D01*
X147701000Y-95708167D01*
X147701000Y-96061833D01*
X147836342Y-96388578D01*
X148086422Y-96638658D01*
X148413167Y-96774000D01*
X148766833Y-96774000D01*
X149093578Y-96638658D01*
X149225000Y-96507236D01*
X149356422Y-96638658D01*
X149683167Y-96774000D01*
X150036833Y-96774000D01*
X150363578Y-96638658D01*
X150613658Y-96388578D01*
X150749000Y-96061833D01*
X150749000Y-95708167D01*
X151511000Y-95708167D01*
X151511000Y-96061833D01*
X151646342Y-96388578D01*
X151777764Y-96520000D01*
X151646342Y-96651422D01*
X151511000Y-96978167D01*
X151511000Y-97331833D01*
X151646342Y-97658578D01*
X151896422Y-97908658D01*
X152223167Y-98044000D01*
X152576833Y-98044000D01*
X152903578Y-97908658D01*
X153153658Y-97658578D01*
X153289000Y-97331833D01*
X153289000Y-96978167D01*
X153153658Y-96651422D01*
X153022236Y-96520000D01*
X153153658Y-96388578D01*
X153289000Y-96061833D01*
X153289000Y-95708167D01*
X153153658Y-95381422D01*
X152903578Y-95131342D01*
X152576833Y-94996000D01*
X152223167Y-94996000D01*
X151896422Y-95131342D01*
X151646342Y-95381422D01*
X151511000Y-95708167D01*
X150749000Y-95708167D01*
X150613658Y-95381422D01*
X150363578Y-95131342D01*
X150036833Y-94996000D01*
X149683167Y-94996000D01*
X149356422Y-95131342D01*
X149225000Y-95262764D01*
X149093578Y-95131342D01*
X148766833Y-94996000D01*
X148413167Y-94996000D01*
X148086422Y-95131342D01*
X147836342Y-95381422D01*
X147701000Y-95708167D01*
X144399000Y-95708167D01*
X144263658Y-95381422D01*
X144013578Y-95131342D01*
X143686833Y-94996000D01*
X143333167Y-94996000D01*
X143006422Y-95131342D01*
X142756342Y-95381422D01*
X142621000Y-95708167D01*
X133604000Y-95708167D01*
X133470406Y-95385642D01*
X133580422Y-95495658D01*
X133907167Y-95631000D01*
X134260833Y-95631000D01*
X134587578Y-95495658D01*
X134837658Y-95245578D01*
X134973000Y-94918833D01*
X134973000Y-94565167D01*
X134837658Y-94238422D01*
X134587578Y-93988342D01*
X134260833Y-93853000D01*
X133907167Y-93853000D01*
X133580422Y-93988342D01*
X133330342Y-94238422D01*
X133195000Y-94565167D01*
X133195000Y-94918833D01*
X133328594Y-95241358D01*
X133218578Y-95131342D01*
X132891833Y-94996000D01*
X132538167Y-94996000D01*
X132211422Y-95131342D01*
X131961342Y-95381422D01*
X131826000Y-95708167D01*
X126949072Y-95708167D01*
X127116086Y-95541153D01*
X127365000Y-94940222D01*
X127365000Y-94289778D01*
X127163439Y-93803167D01*
X151511000Y-93803167D01*
X151511000Y-94156833D01*
X151646342Y-94483578D01*
X151896422Y-94733658D01*
X152223167Y-94869000D01*
X152576833Y-94869000D01*
X152781000Y-94784431D01*
X152781000Y-94791833D01*
X152916342Y-95118578D01*
X153166422Y-95368658D01*
X153438602Y-95481398D01*
X153551342Y-95753578D01*
X153801422Y-96003658D01*
X154128167Y-96139000D01*
X154481833Y-96139000D01*
X154808578Y-96003658D01*
X155058658Y-95753578D01*
X155194000Y-95426833D01*
X155194000Y-95073167D01*
X155058658Y-94746422D01*
X154808578Y-94496342D01*
X154536398Y-94383602D01*
X154423658Y-94111422D01*
X154173578Y-93861342D01*
X153846833Y-93726000D01*
X153493167Y-93726000D01*
X153289000Y-93810569D01*
X153289000Y-93803167D01*
X153153658Y-93476422D01*
X152903578Y-93226342D01*
X152576833Y-93091000D01*
X152223167Y-93091000D01*
X151896422Y-93226342D01*
X151646342Y-93476422D01*
X151511000Y-93803167D01*
X127163439Y-93803167D01*
X127116086Y-93688847D01*
X126656153Y-93228914D01*
X126055222Y-92980000D01*
X125404778Y-92980000D01*
X124803847Y-93228914D01*
X124343914Y-93688847D01*
X124095000Y-94289778D01*
X115697000Y-94289778D01*
X115697000Y-91749778D01*
X153305000Y-91749778D01*
X153305000Y-92400222D01*
X153553914Y-93001153D01*
X154013847Y-93461086D01*
X154614778Y-93710000D01*
X155265222Y-93710000D01*
X155866153Y-93461086D01*
X156033632Y-93293607D01*
X156033632Y-93599465D01*
X156168974Y-93926210D01*
X156222764Y-93980000D01*
X156091342Y-94111422D01*
X155978602Y-94383602D01*
X155706422Y-94496342D01*
X155456342Y-94746422D01*
X155321000Y-95073167D01*
X155321000Y-95426833D01*
X155456342Y-95753578D01*
X155706422Y-96003658D01*
X156033167Y-96139000D01*
X156386833Y-96139000D01*
X156713578Y-96003658D01*
X156963658Y-95753578D01*
X157076398Y-95481398D01*
X157348578Y-95368658D01*
X157598658Y-95118578D01*
X157734000Y-94791833D01*
X157734000Y-94438167D01*
X157598658Y-94111422D01*
X157544868Y-94057632D01*
X157676290Y-93926210D01*
X157811632Y-93599465D01*
X157811632Y-93245799D01*
X157676290Y-92919054D01*
X157426210Y-92668974D01*
X157099465Y-92533632D01*
X156745799Y-92533632D01*
X156472921Y-92646661D01*
X156575000Y-92400222D01*
X156575000Y-91749778D01*
X159020000Y-91749778D01*
X159020000Y-92400222D01*
X159268914Y-93001153D01*
X159728847Y-93461086D01*
X160329778Y-93710000D01*
X160980222Y-93710000D01*
X161581153Y-93461086D01*
X162041086Y-93001153D01*
X162290000Y-92400222D01*
X162290000Y-91749778D01*
X169030000Y-91749778D01*
X169030000Y-92400222D01*
X169278914Y-93001153D01*
X169738847Y-93461086D01*
X170339778Y-93710000D01*
X170990222Y-93710000D01*
X171591153Y-93461086D01*
X172051086Y-93001153D01*
X172300000Y-92400222D01*
X172300000Y-91749778D01*
X175530000Y-91749778D01*
X175530000Y-92400222D01*
X175778914Y-93001153D01*
X176238847Y-93461086D01*
X176839778Y-93710000D01*
X177490222Y-93710000D01*
X178091153Y-93461086D01*
X178551086Y-93001153D01*
X178800000Y-92400222D01*
X178800000Y-91749778D01*
X178551086Y-91148847D01*
X178091153Y-90688914D01*
X177490222Y-90440000D01*
X176839778Y-90440000D01*
X176238847Y-90688914D01*
X175778914Y-91148847D01*
X175530000Y-91749778D01*
X172300000Y-91749778D01*
X172051086Y-91148847D01*
X171591153Y-90688914D01*
X170990222Y-90440000D01*
X170339778Y-90440000D01*
X169738847Y-90688914D01*
X169278914Y-91148847D01*
X169030000Y-91749778D01*
X162290000Y-91749778D01*
X162041086Y-91148847D01*
X161581153Y-90688914D01*
X160980222Y-90440000D01*
X160329778Y-90440000D01*
X159728847Y-90688914D01*
X159268914Y-91148847D01*
X159020000Y-91749778D01*
X156575000Y-91749778D01*
X156326086Y-91148847D01*
X155866153Y-90688914D01*
X155265222Y-90440000D01*
X154614778Y-90440000D01*
X154013847Y-90688914D01*
X153553914Y-91148847D01*
X153305000Y-91749778D01*
X115697000Y-91749778D01*
X115697000Y-91567000D01*
X132080000Y-91567000D01*
X132128601Y-91557333D01*
X132169803Y-91529803D01*
X132197333Y-91488601D01*
X132207000Y-91440000D01*
X132207000Y-90628167D01*
X136384000Y-90628167D01*
X136384000Y-90981833D01*
X136519342Y-91308578D01*
X136769422Y-91558658D01*
X137096167Y-91694000D01*
X137449833Y-91694000D01*
X137776578Y-91558658D01*
X138026658Y-91308578D01*
X138162000Y-90981833D01*
X138162000Y-90628167D01*
X151511000Y-90628167D01*
X151511000Y-90981833D01*
X151646342Y-91308578D01*
X151896422Y-91558658D01*
X152223167Y-91694000D01*
X152576833Y-91694000D01*
X152903578Y-91558658D01*
X153153658Y-91308578D01*
X153266398Y-91036398D01*
X153538578Y-90923658D01*
X153788658Y-90673578D01*
X153924000Y-90346833D01*
X153924000Y-89993167D01*
X153788658Y-89666422D01*
X153538578Y-89416342D01*
X153211833Y-89281000D01*
X152858167Y-89281000D01*
X152531422Y-89416342D01*
X152281342Y-89666422D01*
X152168602Y-89938602D01*
X151896422Y-90051342D01*
X151646342Y-90301422D01*
X151511000Y-90628167D01*
X138162000Y-90628167D01*
X138026658Y-90301422D01*
X137776578Y-90051342D01*
X137449833Y-89916000D01*
X137096167Y-89916000D01*
X136769422Y-90051342D01*
X136519342Y-90301422D01*
X136384000Y-90628167D01*
X132207000Y-90628167D01*
X132207000Y-89184522D01*
X143082355Y-89184522D01*
X143082355Y-89538188D01*
X143217697Y-89864933D01*
X143467777Y-90115013D01*
X143794522Y-90250355D01*
X144148188Y-90250355D01*
X144474933Y-90115013D01*
X144725013Y-89864933D01*
X144860355Y-89538188D01*
X144860355Y-89184522D01*
X144749747Y-88917489D01*
X144898658Y-88768578D01*
X145034000Y-88441833D01*
X145034000Y-88088167D01*
X144898658Y-87761422D01*
X144648578Y-87511342D01*
X144321833Y-87376000D01*
X143968167Y-87376000D01*
X143641422Y-87511342D01*
X143391342Y-87761422D01*
X143256000Y-88088167D01*
X143256000Y-88441833D01*
X143366608Y-88708866D01*
X143217697Y-88857777D01*
X143082355Y-89184522D01*
X132207000Y-89184522D01*
X132207000Y-88088167D01*
X138176000Y-88088167D01*
X138176000Y-88441833D01*
X138311342Y-88768578D01*
X138561422Y-89018658D01*
X138888167Y-89154000D01*
X139241833Y-89154000D01*
X139568578Y-89018658D01*
X139818658Y-88768578D01*
X139954000Y-88441833D01*
X139954000Y-88088167D01*
X139818658Y-87761422D01*
X139568578Y-87511342D01*
X139241833Y-87376000D01*
X138888167Y-87376000D01*
X138561422Y-87511342D01*
X138311342Y-87761422D01*
X138176000Y-88088167D01*
X132207000Y-88088167D01*
X132207000Y-86818167D01*
X136271000Y-86818167D01*
X136271000Y-87171833D01*
X136406342Y-87498578D01*
X136656422Y-87748658D01*
X136983167Y-87884000D01*
X137336833Y-87884000D01*
X137663578Y-87748658D01*
X137913658Y-87498578D01*
X138016714Y-87249778D01*
X169030000Y-87249778D01*
X169030000Y-87900222D01*
X169278914Y-88501153D01*
X169738847Y-88961086D01*
X170339778Y-89210000D01*
X170990222Y-89210000D01*
X171591153Y-88961086D01*
X172051086Y-88501153D01*
X172300000Y-87900222D01*
X172300000Y-87249778D01*
X175530000Y-87249778D01*
X175530000Y-87900222D01*
X175778914Y-88501153D01*
X176238847Y-88961086D01*
X176839778Y-89210000D01*
X177490222Y-89210000D01*
X178091153Y-88961086D01*
X178551086Y-88501153D01*
X178800000Y-87900222D01*
X178800000Y-87249778D01*
X178551086Y-86648847D01*
X178091153Y-86188914D01*
X177490222Y-85940000D01*
X176839778Y-85940000D01*
X176238847Y-86188914D01*
X175778914Y-86648847D01*
X175530000Y-87249778D01*
X172300000Y-87249778D01*
X172051086Y-86648847D01*
X171591153Y-86188914D01*
X170990222Y-85940000D01*
X170339778Y-85940000D01*
X169738847Y-86188914D01*
X169278914Y-86648847D01*
X169030000Y-87249778D01*
X138016714Y-87249778D01*
X138049000Y-87171833D01*
X138049000Y-86818167D01*
X137913658Y-86491422D01*
X137663578Y-86241342D01*
X137336833Y-86106000D01*
X136983167Y-86106000D01*
X136656422Y-86241342D01*
X136406342Y-86491422D01*
X136271000Y-86818167D01*
X132207000Y-86818167D01*
X132207000Y-85548167D01*
X140716000Y-85548167D01*
X140716000Y-85901833D01*
X140851342Y-86228578D01*
X141101422Y-86478658D01*
X141428167Y-86614000D01*
X141781833Y-86614000D01*
X142108578Y-86478658D01*
X142358658Y-86228578D01*
X142494000Y-85901833D01*
X142494000Y-85548167D01*
X142358658Y-85221422D01*
X142108578Y-84971342D01*
X141781833Y-84836000D01*
X141428167Y-84836000D01*
X141101422Y-84971342D01*
X140851342Y-85221422D01*
X140716000Y-85548167D01*
X132207000Y-85548167D01*
X132207000Y-84659167D01*
X145274000Y-84659167D01*
X145274000Y-85012833D01*
X145409342Y-85339578D01*
X145659422Y-85589658D01*
X145986167Y-85725000D01*
X146339833Y-85725000D01*
X146666578Y-85589658D01*
X146916658Y-85339578D01*
X146948266Y-85263269D01*
X147143167Y-85344000D01*
X147496833Y-85344000D01*
X147823578Y-85208658D01*
X148073658Y-84958578D01*
X148209000Y-84631833D01*
X148209000Y-84278167D01*
X148073658Y-83951422D01*
X147823578Y-83701342D01*
X147683131Y-83643167D01*
X153416000Y-83643167D01*
X153416000Y-83996833D01*
X153551342Y-84323578D01*
X153801422Y-84573658D01*
X154128167Y-84709000D01*
X154481833Y-84709000D01*
X154808578Y-84573658D01*
X155058658Y-84323578D01*
X155194000Y-83996833D01*
X155194000Y-83643167D01*
X159131000Y-83643167D01*
X159131000Y-83996833D01*
X159266342Y-84323578D01*
X159516422Y-84573658D01*
X159843167Y-84709000D01*
X160196833Y-84709000D01*
X160523578Y-84573658D01*
X160655000Y-84442236D01*
X160786422Y-84573658D01*
X161113167Y-84709000D01*
X161466833Y-84709000D01*
X161793578Y-84573658D01*
X162043658Y-84323578D01*
X162179000Y-83996833D01*
X162179000Y-83643167D01*
X162043658Y-83316422D01*
X161793578Y-83066342D01*
X161653131Y-83008167D01*
X168021000Y-83008167D01*
X168021000Y-83361833D01*
X168156342Y-83688578D01*
X168406422Y-83938658D01*
X168733167Y-84074000D01*
X169086833Y-84074000D01*
X169413578Y-83938658D01*
X169663658Y-83688578D01*
X169799000Y-83361833D01*
X169799000Y-83008167D01*
X169663658Y-82681422D01*
X169413578Y-82431342D01*
X169086833Y-82296000D01*
X168733167Y-82296000D01*
X168406422Y-82431342D01*
X168156342Y-82681422D01*
X168021000Y-83008167D01*
X161653131Y-83008167D01*
X161466833Y-82931000D01*
X161113167Y-82931000D01*
X160786422Y-83066342D01*
X160655000Y-83197764D01*
X160523578Y-83066342D01*
X160196833Y-82931000D01*
X159843167Y-82931000D01*
X159516422Y-83066342D01*
X159266342Y-83316422D01*
X159131000Y-83643167D01*
X155194000Y-83643167D01*
X155058658Y-83316422D01*
X154808578Y-83066342D01*
X154481833Y-82931000D01*
X154128167Y-82931000D01*
X153801422Y-83066342D01*
X153551342Y-83316422D01*
X153416000Y-83643167D01*
X147683131Y-83643167D01*
X147496833Y-83566000D01*
X147143167Y-83566000D01*
X146816422Y-83701342D01*
X146566342Y-83951422D01*
X146534734Y-84027731D01*
X146339833Y-83947000D01*
X145986167Y-83947000D01*
X145659422Y-84082342D01*
X145409342Y-84332422D01*
X145274000Y-84659167D01*
X132207000Y-84659167D01*
X132207000Y-83702532D01*
X134282073Y-83702532D01*
X134380736Y-83969387D01*
X134990461Y-84195908D01*
X135640460Y-84171856D01*
X136129264Y-83969387D01*
X136227927Y-83702532D01*
X135255000Y-82729605D01*
X134282073Y-83702532D01*
X132207000Y-83702532D01*
X132207000Y-82285461D01*
X133609092Y-82285461D01*
X133633144Y-82935460D01*
X133835613Y-83424264D01*
X134102468Y-83522927D01*
X135075395Y-82550000D01*
X135434605Y-82550000D01*
X136407532Y-83522927D01*
X136674387Y-83424264D01*
X136900908Y-82814539D01*
X136876856Y-82164540D01*
X136674387Y-81675736D01*
X136407532Y-81577073D01*
X135434605Y-82550000D01*
X135075395Y-82550000D01*
X134102468Y-81577073D01*
X133835613Y-81675736D01*
X133609092Y-82285461D01*
X132207000Y-82285461D01*
X132207000Y-81397468D01*
X134282073Y-81397468D01*
X135255000Y-82370395D01*
X136227927Y-81397468D01*
X136129264Y-81130613D01*
X135519539Y-80904092D01*
X134869540Y-80928144D01*
X134380736Y-81130613D01*
X134282073Y-81397468D01*
X132207000Y-81397468D01*
X132207000Y-80772000D01*
X147320000Y-80772000D01*
X147368601Y-80762333D01*
X147409803Y-80734803D01*
X147437333Y-80693601D01*
X147447000Y-80645000D01*
X147447000Y-80468167D01*
X148971000Y-80468167D01*
X148971000Y-80821833D01*
X149106342Y-81148578D01*
X149356422Y-81398658D01*
X149683167Y-81534000D01*
X150036833Y-81534000D01*
X150363578Y-81398658D01*
X150613658Y-81148578D01*
X150749000Y-80821833D01*
X150749000Y-80468167D01*
X150613658Y-80141422D01*
X150363578Y-79891342D01*
X150036833Y-79756000D01*
X149683167Y-79756000D01*
X149356422Y-79891342D01*
X149106342Y-80141422D01*
X148971000Y-80468167D01*
X147447000Y-80468167D01*
X147447000Y-79992686D01*
X147738153Y-79872086D01*
X148198086Y-79412153D01*
X148286721Y-79198167D01*
X154686000Y-79198167D01*
X154686000Y-79551833D01*
X154821342Y-79878578D01*
X155071422Y-80128658D01*
X155398167Y-80264000D01*
X155751833Y-80264000D01*
X156078578Y-80128658D01*
X156210000Y-79997236D01*
X156341422Y-80128658D01*
X156668167Y-80264000D01*
X157021833Y-80264000D01*
X157348578Y-80128658D01*
X157598658Y-79878578D01*
X157734000Y-79551833D01*
X157734000Y-79198167D01*
X159131000Y-79198167D01*
X159131000Y-79551833D01*
X159266342Y-79878578D01*
X159516422Y-80128658D01*
X159843167Y-80264000D01*
X160196833Y-80264000D01*
X160523578Y-80128658D01*
X160773658Y-79878578D01*
X160909000Y-79551833D01*
X160909000Y-79198167D01*
X160773658Y-78871422D01*
X160523578Y-78621342D01*
X160196833Y-78486000D01*
X159843167Y-78486000D01*
X159516422Y-78621342D01*
X159266342Y-78871422D01*
X159131000Y-79198167D01*
X157734000Y-79198167D01*
X157598658Y-78871422D01*
X157348578Y-78621342D01*
X157021833Y-78486000D01*
X156668167Y-78486000D01*
X156341422Y-78621342D01*
X156210000Y-78752764D01*
X156078578Y-78621342D01*
X155751833Y-78486000D01*
X155398167Y-78486000D01*
X155071422Y-78621342D01*
X154821342Y-78871422D01*
X154686000Y-79198167D01*
X148286721Y-79198167D01*
X148447000Y-78811222D01*
X148447000Y-78160778D01*
X148350650Y-77928167D01*
X164846000Y-77928167D01*
X164846000Y-78281833D01*
X164981342Y-78608578D01*
X165231422Y-78858658D01*
X165558167Y-78994000D01*
X165911833Y-78994000D01*
X166238578Y-78858658D01*
X166488658Y-78608578D01*
X166507467Y-78563167D01*
X168021000Y-78563167D01*
X168021000Y-78916833D01*
X168156342Y-79243578D01*
X168406422Y-79493658D01*
X168733167Y-79629000D01*
X169086833Y-79629000D01*
X169413578Y-79493658D01*
X169663658Y-79243578D01*
X169799000Y-78916833D01*
X169799000Y-78563167D01*
X169663658Y-78236422D01*
X169413578Y-77986342D01*
X169273131Y-77928167D01*
X174371000Y-77928167D01*
X174371000Y-78281833D01*
X174506342Y-78608578D01*
X174756422Y-78858658D01*
X175083167Y-78994000D01*
X175436833Y-78994000D01*
X175763578Y-78858658D01*
X176013658Y-78608578D01*
X176149000Y-78281833D01*
X176149000Y-77928167D01*
X176013658Y-77601422D01*
X175763578Y-77351342D01*
X175436833Y-77216000D01*
X175083167Y-77216000D01*
X174756422Y-77351342D01*
X174506342Y-77601422D01*
X174371000Y-77928167D01*
X169273131Y-77928167D01*
X169086833Y-77851000D01*
X168733167Y-77851000D01*
X168406422Y-77986342D01*
X168156342Y-78236422D01*
X168021000Y-78563167D01*
X166507467Y-78563167D01*
X166624000Y-78281833D01*
X166624000Y-77928167D01*
X166488658Y-77601422D01*
X166238578Y-77351342D01*
X165911833Y-77216000D01*
X165558167Y-77216000D01*
X165231422Y-77351342D01*
X164981342Y-77601422D01*
X164846000Y-77928167D01*
X148350650Y-77928167D01*
X148198086Y-77559847D01*
X147738153Y-77099914D01*
X147447000Y-76979314D01*
X147447000Y-75874778D01*
X159655000Y-75874778D01*
X159655000Y-76525222D01*
X159903914Y-77126153D01*
X160363847Y-77586086D01*
X160964778Y-77835000D01*
X161615222Y-77835000D01*
X162216153Y-77586086D01*
X162676086Y-77126153D01*
X162925000Y-76525222D01*
X162925000Y-75874778D01*
X169180000Y-75874778D01*
X169180000Y-76525222D01*
X169428914Y-77126153D01*
X169888847Y-77586086D01*
X170489778Y-77835000D01*
X171140222Y-77835000D01*
X171741153Y-77586086D01*
X172201086Y-77126153D01*
X172450000Y-76525222D01*
X172450000Y-75874778D01*
X172201086Y-75273847D01*
X171741153Y-74813914D01*
X171140222Y-74565000D01*
X170489778Y-74565000D01*
X169888847Y-74813914D01*
X169428914Y-75273847D01*
X169180000Y-75874778D01*
X162925000Y-75874778D01*
X162676086Y-75273847D01*
X162216153Y-74813914D01*
X161615222Y-74565000D01*
X160964778Y-74565000D01*
X160363847Y-74813914D01*
X159903914Y-75273847D01*
X159655000Y-75874778D01*
X147447000Y-75874778D01*
X147447000Y-74118167D01*
X163576000Y-74118167D01*
X163576000Y-74471833D01*
X163711342Y-74798578D01*
X163961422Y-75048658D01*
X164288167Y-75184000D01*
X164641833Y-75184000D01*
X164968578Y-75048658D01*
X165218658Y-74798578D01*
X165354000Y-74471833D01*
X165354000Y-74118167D01*
X173101000Y-74118167D01*
X173101000Y-74471833D01*
X173236342Y-74798578D01*
X173486422Y-75048658D01*
X173813167Y-75184000D01*
X174166833Y-75184000D01*
X174493578Y-75048658D01*
X174743658Y-74798578D01*
X174879000Y-74471833D01*
X174879000Y-74118167D01*
X174743658Y-73791422D01*
X174493578Y-73541342D01*
X174166833Y-73406000D01*
X173813167Y-73406000D01*
X173486422Y-73541342D01*
X173236342Y-73791422D01*
X173101000Y-74118167D01*
X165354000Y-74118167D01*
X165218658Y-73791422D01*
X164968578Y-73541342D01*
X164641833Y-73406000D01*
X164288167Y-73406000D01*
X163961422Y-73541342D01*
X163711342Y-73791422D01*
X163576000Y-74118167D01*
X147447000Y-74118167D01*
X147447000Y-72213579D01*
X157226412Y-72213579D01*
X157226412Y-72567245D01*
X157361754Y-72893990D01*
X157611834Y-73144070D01*
X157938579Y-73279412D01*
X158292245Y-73279412D01*
X158618990Y-73144070D01*
X158869070Y-72893990D01*
X159004412Y-72567245D01*
X159004412Y-72213579D01*
X158869070Y-71886834D01*
X158618990Y-71636754D01*
X158292245Y-71501412D01*
X157938579Y-71501412D01*
X157611834Y-71636754D01*
X157361754Y-71886834D01*
X157226412Y-72213579D01*
X147447000Y-72213579D01*
X147447000Y-71429778D01*
X159655000Y-71429778D01*
X159655000Y-72080222D01*
X159903914Y-72681153D01*
X160363847Y-73141086D01*
X160964778Y-73390000D01*
X161615222Y-73390000D01*
X162216153Y-73141086D01*
X162676086Y-72681153D01*
X162925000Y-72080222D01*
X162925000Y-71429778D01*
X169180000Y-71429778D01*
X169180000Y-72080222D01*
X169428914Y-72681153D01*
X169888847Y-73141086D01*
X170489778Y-73390000D01*
X171140222Y-73390000D01*
X171741153Y-73141086D01*
X172201086Y-72681153D01*
X172450000Y-72080222D01*
X172450000Y-71429778D01*
X172201086Y-70828847D01*
X171741153Y-70368914D01*
X171140222Y-70120000D01*
X170489778Y-70120000D01*
X169888847Y-70368914D01*
X169428914Y-70828847D01*
X169180000Y-71429778D01*
X162925000Y-71429778D01*
X162676086Y-70828847D01*
X162216153Y-70368914D01*
X161615222Y-70120000D01*
X160964778Y-70120000D01*
X160363847Y-70368914D01*
X159903914Y-70828847D01*
X159655000Y-71429778D01*
X147447000Y-71429778D01*
X147447000Y-69673167D01*
X178181000Y-69673167D01*
X178181000Y-70026833D01*
X178316342Y-70353578D01*
X178566422Y-70603658D01*
X178893167Y-70739000D01*
X179246833Y-70739000D01*
X179573578Y-70603658D01*
X179823658Y-70353578D01*
X179959000Y-70026833D01*
X179959000Y-69673167D01*
X179823658Y-69346422D01*
X179573578Y-69096342D01*
X179246833Y-68961000D01*
X178893167Y-68961000D01*
X178566422Y-69096342D01*
X178316342Y-69346422D01*
X178181000Y-69673167D01*
X147447000Y-69673167D01*
X147447000Y-65891535D01*
X157197632Y-65891535D01*
X157197632Y-66245201D01*
X157332974Y-66571946D01*
X157583054Y-66822026D01*
X157909799Y-66957368D01*
X158263465Y-66957368D01*
X158590210Y-66822026D01*
X158840290Y-66571946D01*
X158975632Y-66245201D01*
X158975632Y-65891535D01*
X158948073Y-65825000D01*
X163602560Y-65825000D01*
X163602560Y-67525000D01*
X163651843Y-67772765D01*
X163792191Y-67982809D01*
X164002235Y-68123157D01*
X164250000Y-68172440D01*
X165950000Y-68172440D01*
X166197765Y-68123157D01*
X166407809Y-67982809D01*
X166548157Y-67772765D01*
X166557184Y-67727381D01*
X166569375Y-67745625D01*
X167060582Y-68073839D01*
X167493744Y-68160000D01*
X167786256Y-68160000D01*
X168219418Y-68073839D01*
X168710625Y-67745625D01*
X169038839Y-67254418D01*
X169154092Y-66675000D01*
X169038839Y-66095582D01*
X168858042Y-65825000D01*
X173127560Y-65825000D01*
X173127560Y-67525000D01*
X173176843Y-67772765D01*
X173317191Y-67982809D01*
X173527235Y-68123157D01*
X173775000Y-68172440D01*
X175475000Y-68172440D01*
X175722765Y-68123157D01*
X175932809Y-67982809D01*
X176073157Y-67772765D01*
X176082184Y-67727381D01*
X176094375Y-67745625D01*
X176585582Y-68073839D01*
X177018744Y-68160000D01*
X177311256Y-68160000D01*
X177744418Y-68073839D01*
X178235625Y-67745625D01*
X178563839Y-67254418D01*
X178679092Y-66675000D01*
X178563839Y-66095582D01*
X178235625Y-65604375D01*
X177744418Y-65276161D01*
X177311256Y-65190000D01*
X177018744Y-65190000D01*
X176585582Y-65276161D01*
X176094375Y-65604375D01*
X176082184Y-65622619D01*
X176073157Y-65577235D01*
X175932809Y-65367191D01*
X175722765Y-65226843D01*
X175475000Y-65177560D01*
X173775000Y-65177560D01*
X173527235Y-65226843D01*
X173317191Y-65367191D01*
X173176843Y-65577235D01*
X173127560Y-65825000D01*
X168858042Y-65825000D01*
X168710625Y-65604375D01*
X168219418Y-65276161D01*
X167786256Y-65190000D01*
X167493744Y-65190000D01*
X167060582Y-65276161D01*
X166569375Y-65604375D01*
X166557184Y-65622619D01*
X166548157Y-65577235D01*
X166407809Y-65367191D01*
X166197765Y-65226843D01*
X165950000Y-65177560D01*
X164250000Y-65177560D01*
X164002235Y-65226843D01*
X163792191Y-65367191D01*
X163651843Y-65577235D01*
X163602560Y-65825000D01*
X158948073Y-65825000D01*
X158840290Y-65564790D01*
X158590210Y-65314710D01*
X158263465Y-65179368D01*
X157909799Y-65179368D01*
X157583054Y-65314710D01*
X157332974Y-65564790D01*
X157197632Y-65891535D01*
X147447000Y-65891535D01*
X147447000Y-61904778D01*
X162830000Y-61904778D01*
X162830000Y-62555222D01*
X163078914Y-63156153D01*
X163538847Y-63616086D01*
X164139778Y-63865000D01*
X164790222Y-63865000D01*
X165391153Y-63616086D01*
X165851086Y-63156153D01*
X166100000Y-62555222D01*
X166100000Y-61944561D01*
X166840000Y-61944561D01*
X166840000Y-62515439D01*
X167058466Y-63042862D01*
X167462138Y-63446534D01*
X167989561Y-63665000D01*
X168560439Y-63665000D01*
X169087862Y-63446534D01*
X169491534Y-63042862D01*
X169710000Y-62515439D01*
X169710000Y-61944561D01*
X169693522Y-61904778D01*
X172355000Y-61904778D01*
X172355000Y-62555222D01*
X172603914Y-63156153D01*
X173063847Y-63616086D01*
X173664778Y-63865000D01*
X174315222Y-63865000D01*
X174916153Y-63616086D01*
X175376086Y-63156153D01*
X175625000Y-62555222D01*
X175625000Y-61944561D01*
X176365000Y-61944561D01*
X176365000Y-62515439D01*
X176583466Y-63042862D01*
X176987138Y-63446534D01*
X177514561Y-63665000D01*
X178085439Y-63665000D01*
X178612862Y-63446534D01*
X179016534Y-63042862D01*
X179235000Y-62515439D01*
X179235000Y-61944561D01*
X179016534Y-61417138D01*
X178612862Y-61013466D01*
X178085439Y-60795000D01*
X177514561Y-60795000D01*
X176987138Y-61013466D01*
X176583466Y-61417138D01*
X176365000Y-61944561D01*
X175625000Y-61944561D01*
X175625000Y-61904778D01*
X175376086Y-61303847D01*
X174916153Y-60843914D01*
X174315222Y-60595000D01*
X173664778Y-60595000D01*
X173063847Y-60843914D01*
X172603914Y-61303847D01*
X172355000Y-61904778D01*
X169693522Y-61904778D01*
X169491534Y-61417138D01*
X169087862Y-61013466D01*
X168560439Y-60795000D01*
X167989561Y-60795000D01*
X167462138Y-61013466D01*
X167058466Y-61417138D01*
X166840000Y-61944561D01*
X166100000Y-61944561D01*
X166100000Y-61904778D01*
X165851086Y-61303847D01*
X165391153Y-60843914D01*
X164790222Y-60595000D01*
X164139778Y-60595000D01*
X163538847Y-60843914D01*
X163078914Y-61303847D01*
X162830000Y-61904778D01*
X147447000Y-61904778D01*
X147447000Y-59576792D01*
X157162375Y-59576792D01*
X157162375Y-59930458D01*
X157297717Y-60257203D01*
X157547797Y-60507283D01*
X157874542Y-60642625D01*
X158228208Y-60642625D01*
X158554953Y-60507283D01*
X158805033Y-60257203D01*
X158940375Y-59930458D01*
X158940375Y-59576792D01*
X158805033Y-59250047D01*
X158554953Y-58999967D01*
X158228208Y-58864625D01*
X157874542Y-58864625D01*
X157547797Y-58999967D01*
X157297717Y-59250047D01*
X157162375Y-59576792D01*
X147447000Y-59576792D01*
X147447000Y-56515000D01*
X152434051Y-56515000D01*
X152576469Y-57230981D01*
X152982039Y-57837961D01*
X153589019Y-58243531D01*
X154124273Y-58350000D01*
X154485727Y-58350000D01*
X155020981Y-58243531D01*
X155627961Y-57837961D01*
X156033531Y-57230981D01*
X156175949Y-56515000D01*
X156033531Y-55799019D01*
X155627961Y-55192039D01*
X155020981Y-54786469D01*
X154485727Y-54680000D01*
X154124273Y-54680000D01*
X153589019Y-54786469D01*
X152982039Y-55192039D01*
X152576469Y-55799019D01*
X152434051Y-56515000D01*
X147447000Y-56515000D01*
X147447000Y-54284778D01*
X162830000Y-54284778D01*
X162830000Y-54935222D01*
X163078914Y-55536153D01*
X163538847Y-55996086D01*
X164139778Y-56245000D01*
X164790222Y-56245000D01*
X165391153Y-55996086D01*
X165851086Y-55536153D01*
X166100000Y-54935222D01*
X166100000Y-54610000D01*
X166811887Y-54610000D01*
X166923260Y-55169909D01*
X167240423Y-55644577D01*
X167715091Y-55961740D01*
X168133667Y-56045000D01*
X168416333Y-56045000D01*
X168834909Y-55961740D01*
X169309577Y-55644577D01*
X169626740Y-55169909D01*
X169738113Y-54610000D01*
X169673423Y-54284778D01*
X172355000Y-54284778D01*
X172355000Y-54935222D01*
X172603914Y-55536153D01*
X173063847Y-55996086D01*
X173664778Y-56245000D01*
X174315222Y-56245000D01*
X174916153Y-55996086D01*
X175376086Y-55536153D01*
X175625000Y-54935222D01*
X175625000Y-54610000D01*
X176336887Y-54610000D01*
X176448260Y-55169909D01*
X176765423Y-55644577D01*
X177240091Y-55961740D01*
X177658667Y-56045000D01*
X177941333Y-56045000D01*
X178359909Y-55961740D01*
X178834577Y-55644577D01*
X179151740Y-55169909D01*
X179263113Y-54610000D01*
X179151740Y-54050091D01*
X178834577Y-53575423D01*
X178359909Y-53258260D01*
X177941333Y-53175000D01*
X177658667Y-53175000D01*
X177240091Y-53258260D01*
X176765423Y-53575423D01*
X176448260Y-54050091D01*
X176336887Y-54610000D01*
X175625000Y-54610000D01*
X175625000Y-54284778D01*
X175376086Y-53683847D01*
X174916153Y-53223914D01*
X174315222Y-52975000D01*
X173664778Y-52975000D01*
X173063847Y-53223914D01*
X172603914Y-53683847D01*
X172355000Y-54284778D01*
X169673423Y-54284778D01*
X169626740Y-54050091D01*
X169309577Y-53575423D01*
X168834909Y-53258260D01*
X168416333Y-53175000D01*
X168133667Y-53175000D01*
X167715091Y-53258260D01*
X167240423Y-53575423D01*
X166923260Y-54050091D01*
X166811887Y-54610000D01*
X166100000Y-54610000D01*
X166100000Y-54284778D01*
X165851086Y-53683847D01*
X165391153Y-53223914D01*
X164790222Y-52975000D01*
X164139778Y-52975000D01*
X163538847Y-53223914D01*
X163078914Y-53683847D01*
X162830000Y-54284778D01*
X147447000Y-54284778D01*
X147447000Y-48128996D01*
X147448338Y-48130334D01*
X147975761Y-48348800D01*
X148546639Y-48348800D01*
X149074062Y-48130334D01*
X149477734Y-47726662D01*
X149646200Y-47319950D01*
X149814666Y-47726662D01*
X150218338Y-48130334D01*
X150745761Y-48348800D01*
X151316639Y-48348800D01*
X151844062Y-48130334D01*
X152247734Y-47726662D01*
X152353760Y-47470693D01*
X152353760Y-47713800D01*
X152403043Y-47961565D01*
X152543391Y-48171609D01*
X152753435Y-48311957D01*
X153001200Y-48361240D01*
X154601200Y-48361240D01*
X154848965Y-48311957D01*
X155059009Y-48171609D01*
X155199357Y-47961565D01*
X155248640Y-47713800D01*
X155248640Y-46113800D01*
X155199357Y-45866035D01*
X155059009Y-45655991D01*
X154848965Y-45515643D01*
X154601200Y-45466360D01*
X153001200Y-45466360D01*
X152753435Y-45515643D01*
X152543391Y-45655991D01*
X152403043Y-45866035D01*
X152353760Y-46113800D01*
X152353760Y-46356907D01*
X152247734Y-46100938D01*
X151844062Y-45697266D01*
X151316639Y-45478800D01*
X150745761Y-45478800D01*
X150218338Y-45697266D01*
X149814666Y-46100938D01*
X149646200Y-46507650D01*
X149477734Y-46100938D01*
X149074062Y-45697266D01*
X148546639Y-45478800D01*
X147975761Y-45478800D01*
X147448338Y-45697266D01*
X147447000Y-45698604D01*
X147447000Y-45390599D01*
X147689062Y-45290334D01*
X148092734Y-44886662D01*
X148261200Y-44479950D01*
X148429666Y-44886662D01*
X148833338Y-45290334D01*
X149360761Y-45508800D01*
X149931639Y-45508800D01*
X150459062Y-45290334D01*
X150862734Y-44886662D01*
X151031200Y-44479950D01*
X151199666Y-44886662D01*
X151603338Y-45290334D01*
X152130761Y-45508800D01*
X152701639Y-45508800D01*
X153229062Y-45290334D01*
X153549730Y-44969666D01*
X158126200Y-44969666D01*
X158126200Y-46017934D01*
X158527355Y-46986408D01*
X159268592Y-47727645D01*
X160237066Y-48128800D01*
X161285334Y-48128800D01*
X162253808Y-47727645D01*
X162995045Y-46986408D01*
X163396200Y-46017934D01*
X163396200Y-44969666D01*
X162995045Y-44001192D01*
X162253808Y-43259955D01*
X161285334Y-42858800D01*
X160237066Y-42858800D01*
X159268592Y-43259955D01*
X158527355Y-44001192D01*
X158126200Y-44969666D01*
X153549730Y-44969666D01*
X153632734Y-44886662D01*
X153851200Y-44359239D01*
X153851200Y-43788361D01*
X153632734Y-43260938D01*
X153229062Y-42857266D01*
X152701639Y-42638800D01*
X152130761Y-42638800D01*
X151603338Y-42857266D01*
X151199666Y-43260938D01*
X151031200Y-43667650D01*
X150862734Y-43260938D01*
X150459062Y-42857266D01*
X149931639Y-42638800D01*
X149360761Y-42638800D01*
X148833338Y-42857266D01*
X148429666Y-43260938D01*
X148261200Y-43667650D01*
X148092734Y-43260938D01*
X147689062Y-42857266D01*
X147447000Y-42757001D01*
X147447000Y-38049651D01*
X172764840Y-38049651D01*
X172764840Y-39575309D01*
X173348684Y-40984833D01*
X174427487Y-42063636D01*
X175837011Y-42647480D01*
X177362669Y-42647480D01*
X178772193Y-42063636D01*
X179850996Y-40984833D01*
X180434840Y-39575309D01*
X180434840Y-38049651D01*
X179850996Y-36640127D01*
X178772193Y-35561324D01*
X177362669Y-34977480D01*
X175837011Y-34977480D01*
X174427487Y-35561324D01*
X173348684Y-36640127D01*
X172764840Y-38049651D01*
X147447000Y-38049651D01*
X147447000Y-34509780D01*
X180848000Y-34509780D01*
X180848000Y-135763000D01*
G04 #@! TD*
M02*
