G04 #@! TF.GenerationSoftware,KiCad,Pcbnew,(5.0.0)*
G04 #@! TF.CreationDate,2018-09-24T14:48:38-04:00*
G04 #@! TF.ProjectId,MDAS_Controller_V2,4D4441535F436F6E74726F6C6C65725F,rev?*
G04 #@! TF.SameCoordinates,Original*
G04 #@! TF.FileFunction,Soldermask,Bot*
G04 #@! TF.FilePolarity,Negative*
%FSLAX46Y46*%
G04 Gerber Fmt 4.6, Leading zero omitted, Abs format (unit mm)*
G04 Created by KiCad (PCBNEW (5.0.0)) date 09/24/18 14:48:38*
%MOMM*%
%LPD*%
G01*
G04 APERTURE LIST*
%ADD10C,2.400000*%
%ADD11O,2.800000X2.800000*%
%ADD12R,2.800000X2.800000*%
%ADD13C,4.400000*%
%ADD14C,2.000000*%
%ADD15R,2.000000X2.000000*%
%ADD16O,2.100000X2.100000*%
%ADD17R,2.100000X2.100000*%
%ADD18O,2.000000X2.000000*%
%ADD19O,2.900000X1.900000*%
%ADD20R,2.900000X1.900000*%
%ADD21O,2.200000X1.470000*%
%ADD22R,2.200000X1.470000*%
%ADD23C,6.800000*%
G04 APERTURE END LIST*
D10*
G04 #@! TO.C,SW2*
X154178000Y-93345000D03*
G04 #@! TD*
D11*
G04 #@! TO.C,D2*
X154305000Y-56515000D03*
D12*
X144145000Y-56515000D03*
G04 #@! TD*
D13*
G04 #@! TO.C,J3*
X164978200Y-127251600D03*
X131678200Y-127251600D03*
D14*
X156638200Y-128671600D03*
X153868200Y-128671600D03*
X151098200Y-128671600D03*
X148328200Y-128671600D03*
X145558200Y-128671600D03*
X142788200Y-128671600D03*
X140018200Y-128671600D03*
X158023200Y-125831600D03*
X155253200Y-125831600D03*
X152483200Y-125831600D03*
X149713200Y-125831600D03*
X146943200Y-125831600D03*
X144173200Y-125831600D03*
X141403200Y-125831600D03*
D15*
X138633200Y-125831600D03*
G04 #@! TD*
D16*
G04 #@! TO.C,JTAG*
X173355000Y-109855000D03*
X170815000Y-109855000D03*
X173355000Y-107315000D03*
X170815000Y-107315000D03*
X173355000Y-104775000D03*
X170815000Y-104775000D03*
X173355000Y-102235000D03*
X170815000Y-102235000D03*
X173355000Y-99695000D03*
D17*
X170815000Y-99695000D03*
G04 #@! TD*
D10*
G04 #@! TO.C,AI4B*
X141478000Y-78486000D03*
G04 #@! TD*
D18*
G04 #@! TO.C,R16*
X168275000Y-54610000D03*
D14*
X168275000Y-62230000D03*
G04 #@! TD*
D10*
G04 #@! TO.C,CAN0L*
X164465000Y-54610000D03*
G04 #@! TD*
G04 #@! TO.C,CAN0H*
X164465000Y-62230000D03*
G04 #@! TD*
D16*
G04 #@! TO.C,JP1*
X177165000Y-66675000D03*
D17*
X174625000Y-66675000D03*
G04 #@! TD*
D16*
G04 #@! TO.C,JP2*
X167640000Y-66675000D03*
D17*
X165100000Y-66675000D03*
G04 #@! TD*
D18*
G04 #@! TO.C,R15*
X177800000Y-54610000D03*
D14*
X177800000Y-62230000D03*
G04 #@! TD*
D10*
G04 #@! TO.C,RST*
X174456817Y-84105545D03*
X174456817Y-88605545D03*
X167956817Y-84105545D03*
X167956817Y-88605545D03*
G04 #@! TD*
D18*
G04 #@! TO.C,SW1*
X121920000Y-113030000D03*
X129540000Y-120650000D03*
X124460000Y-113030000D03*
X127000000Y-120650000D03*
X127000000Y-113030000D03*
X124460000Y-120650000D03*
X129540000Y-113030000D03*
D15*
X121920000Y-120650000D03*
G04 #@! TD*
D10*
G04 #@! TO.C,+12V*
X139065000Y-56515000D03*
G04 #@! TD*
G04 #@! TO.C,+5V*
X121285000Y-70485000D03*
G04 #@! TD*
G04 #@! TO.C,+3V3*
X135255000Y-82550000D03*
G04 #@! TD*
G04 #@! TO.C,T2*
X172720000Y-120650000D03*
G04 #@! TD*
G04 #@! TO.C,T5*
X172720000Y-115570000D03*
G04 #@! TD*
G04 #@! TO.C,GND*
X121285000Y-77470000D03*
G04 #@! TD*
G04 #@! TO.C,SW1*
X160528000Y-93472000D03*
G04 #@! TD*
G04 #@! TO.C,CAN1H*
X173990000Y-62230000D03*
G04 #@! TD*
G04 #@! TO.C,CAN1L*
X173990000Y-54610000D03*
G04 #@! TD*
G04 #@! TO.C,AI3B*
X146812000Y-78486000D03*
G04 #@! TD*
G04 #@! TO.C,AI1B*
X125730000Y-99060000D03*
G04 #@! TD*
G04 #@! TO.C,AI2B*
X125730000Y-94615000D03*
G04 #@! TD*
D19*
G04 #@! TO.C,U2*
X127635000Y-60325000D03*
X127635000Y-57785000D03*
D20*
X127635000Y-55245000D03*
G04 #@! TD*
D21*
G04 #@! TO.C,D3*
X144780000Y-68834000D03*
X144780000Y-67564000D03*
X144780000Y-66294000D03*
D22*
X144780000Y-65024000D03*
G04 #@! TD*
D23*
G04 #@! TO.C,MH1*
X119942620Y-38809940D03*
G04 #@! TD*
G04 #@! TO.C,MH2*
X176599840Y-38812480D03*
G04 #@! TD*
G04 #@! TO.C,MH3*
X119935000Y-131728200D03*
G04 #@! TD*
G04 #@! TO.C,MH4*
X176610000Y-131728200D03*
G04 #@! TD*
D15*
G04 #@! TO.C,J2*
X153801200Y-46913800D03*
D14*
X151031200Y-46913800D03*
X148261200Y-46913800D03*
X145491200Y-46913800D03*
X142721200Y-46913800D03*
X152416200Y-44073800D03*
X149646200Y-44073800D03*
X146876200Y-44073800D03*
X144106200Y-44073800D03*
D13*
X160761200Y-45493800D03*
X135761200Y-45493800D03*
G04 #@! TD*
D10*
G04 #@! TO.C,CAN0RX*
X161290000Y-76200000D03*
G04 #@! TD*
G04 #@! TO.C,CAN0TX*
X161290000Y-71755000D03*
G04 #@! TD*
G04 #@! TO.C,CAN1RX*
X171196000Y-76200000D03*
G04 #@! TD*
G04 #@! TO.C,CAN1TX*
X171196000Y-71628000D03*
G04 #@! TD*
M02*
