M48
;DRILL file {KiCad (5.0.0)} date 09/24/18 14:48:35
;FORMAT={-:-/ absolute / inch / decimal}
FMAT,2
INCH,TZ
T1C0.0100
T2C0.0315
T3C0.0354
T4C0.0394
T5C0.0433
T6C0.0472
T7C0.1260
%
G90
G05
M72
T1
X4.66Y-4.24
X4.725Y-3.4
X4.725Y-4.
X4.75Y-3.675
X4.76Y-4.13
X4.765Y-4.235
X4.825Y-4.
X4.85Y-3.8
X4.86Y-4.13
X4.865Y-4.235
X4.9Y-2.175
X4.9Y-2.2586
X4.9086Y-2.4
X4.9158Y-2.325
X4.925Y-4.
X4.95Y-3.825
X4.96Y-4.13
X4.965Y-4.235
X5.025Y-2.9686
X5.025Y-3.025
X5.025Y-4.
X5.0406Y-2.725
X5.065Y-4.125
X5.0742Y-2.7329
X5.075Y-3.125
X5.075Y-3.49
X5.075Y-3.5294
X5.075Y-3.875
X5.075Y-4.
X5.175Y-2.8
X5.2Y-2.9
X5.2Y-3.075
X5.2Y-4.025
X5.2156Y-3.8719
X5.25Y-3.825
X5.25Y-4.2
X5.282Y-4.725
X5.2906Y-2.725
X5.3Y-3.78
X5.3Y-4.072
X5.3242Y-2.7329
X5.325Y-3.45
X5.325Y-4.1
X5.325Y-4.2
X5.35Y-4.2492
X5.35Y-4.65
X5.3571Y-4.3
X5.4Y-3.475
X5.4Y-4.7027
X5.425Y-2.8
X5.45Y-4.
X5.475Y-3.05
X5.475Y-3.475
X5.475Y-3.525
X5.5Y-4.175
X5.525Y-3.
X5.525Y-4.2
X5.55Y-3.25
X5.55Y-3.925
X5.55Y-4.088
X5.5594Y-4.59
X5.6Y-3.575
X5.6Y-4.05
X5.6Y-4.83
X5.6156Y-3.5219
X5.625Y-4.375
X5.65Y-2.5
X5.65Y-4.075
X5.65Y-4.35
X5.675Y-3.475
X5.675Y-3.65
X5.675Y-4.5
X5.6795Y-3.9295
X5.7Y-2.925
X5.7Y-2.975
X5.7Y-3.425
X5.7Y-4.05
X5.7191Y-3.925
X5.725Y-4.525
X5.75Y-4.375
X5.775Y-3.375
X5.78Y-2.3
X5.78Y-4.35
X5.78Y-4.81
X5.8Y-4.475
X5.8Y-4.6
X5.825Y-3.68
X5.825Y-4.125
X5.825Y-4.275
X5.83Y-4.78
X5.85Y-2.45
X5.85Y-2.55
X5.85Y-2.725
X5.875Y-3.375
X5.875Y-3.525
X5.875Y-3.75
X5.875Y-4.5
X5.89Y-4.75
X5.9Y-2.33
X5.925Y-3.175
X5.925Y-4.125
X5.925Y-4.425
X5.925Y-4.475
X5.95Y-2.125
X5.95Y-4.1
X5.95Y-4.825
X5.972Y-4.0751
X6.Y-3.025
X6.Y-4.0746
X6.Y-4.675
X6.05Y-2.
X6.05Y-4.2295
X6.05Y-4.575
X6.05Y-4.725
X6.075Y-3.8906
X6.1Y-4.75
X6.105Y-3.275
X6.1074Y-4.41
X6.175Y-4.475
X6.2Y-3.8
X6.2Y-4.05
X6.2Y-4.45
X6.225Y-2.35
X6.225Y-2.6
X6.225Y-2.825
X6.3Y-3.175
X6.35Y-2.925
X6.35Y-3.275
X6.375Y-4.175
X6.375Y-4.675
X6.4Y-4.125
X6.425Y-2.825
X6.425Y-3.
X6.425Y-3.25
X6.425Y-4.675
X6.425Y-4.825
X6.475Y-2.325
X6.475Y-3.4
X6.5Y-3.35
X6.5156Y-3.075
X6.525Y-2.725
X6.55Y-3.65
X6.575Y-2.725
X6.575Y-3.075
X6.623Y-4.677
X6.625Y-4.45
X6.65Y-4.475
X6.7Y-2.
X6.7Y-2.15
X6.75Y-2.925
X6.75Y-3.3112
X6.75Y-3.65
X6.81Y-2.83
X6.81Y-3.
X6.825Y-2.3
X6.8906Y-3.075
X6.9Y-2.725
X6.95Y-2.725
X6.95Y-3.075
X6.95Y-3.65
T2
X6.625Y-2.15
X6.625Y-2.45
X7.Y-2.15
X7.Y-2.45
X4.8Y-4.45
X4.8Y-4.75
X4.9Y-4.45
X4.9Y-4.75
X5.Y-4.45
X5.Y-4.75
X5.1Y-4.45
X5.1Y-4.75
T3
X5.7Y-2.56
X5.7Y-2.61
X5.7Y-2.66
X5.7Y-2.71
T4
X4.95Y-3.9
X5.475Y-2.225
X5.458Y-4.954
X5.5125Y-5.0658
X5.5671Y-4.954
X5.6216Y-5.0658
X5.6761Y-4.954
X5.7306Y-5.0658
X5.7852Y-4.954
X5.8397Y-5.0658
X5.8942Y-4.954
X5.9487Y-5.0658
X6.0033Y-4.954
X6.0578Y-5.0658
X6.1123Y-4.954
X6.1669Y-5.0658
X6.2214Y-4.954
X6.07Y-3.675
X6.875Y-2.625
X6.975Y-2.625
X4.95Y-3.725
X5.57Y-3.09
X6.475Y-2.15
X6.85Y-2.45
X5.78Y-3.09
X6.74Y-3.
X6.32Y-3.68
X6.8Y-4.55
X6.35Y-3.
X5.025Y-2.175
X5.025Y-2.275
X5.025Y-2.375
X6.74Y-2.82
X4.775Y-2.775
X6.8Y-4.75
X5.6189Y-1.847
X5.6735Y-1.7352
X5.728Y-1.847
X5.7825Y-1.7352
X5.8371Y-1.847
X5.8916Y-1.7352
X5.9461Y-1.847
X6.0006Y-1.7352
X6.0552Y-1.847
X6.85Y-2.15
X6.35Y-2.825
X6.475Y-2.45
X4.775Y-3.05
X5.325Y-3.25
X6.5Y-2.625
X6.6Y-2.625
X6.725Y-3.925
X6.725Y-4.025
X6.725Y-4.125
X6.725Y-4.225
X6.725Y-4.325
X6.825Y-3.925
X6.825Y-4.025
X6.825Y-4.125
X6.825Y-4.225
X6.825Y-4.325
T5
X6.6125Y-3.3112
X6.6125Y-3.4884
X6.8684Y-3.3112
X6.8684Y-3.4884
T6
X5.675Y-2.225
X6.075Y-2.225
T7
X4.7219Y-5.1861
X6.9531Y-5.1861
X4.7222Y-1.528
X5.1842Y-5.0099
X6.4952Y-5.0099
X6.9527Y-1.5281
X5.3449Y-1.7911
X6.3292Y-1.7911
T0
M30
